<svg width="500" height="500" viewBox="0 0 500 500" fill="none" xmlns="http://www.w3.org/2000/svg">
<path d="M458.24 276.2H309.55V57.94H458.24V276.2ZM313.55 272.2H454.24V61.94H313.55V272.2Z" fill="#EBEBEB"/>
<path d="M385.84 62.99H381.84V274.2H385.84V62.99Z" fill="#EBEBEB"/>
<path d="M461.87 66.03H305.92V71.6H461.87V66.03Z" fill="#EBEBEB"/>
<path d="M461.87 72.29H305.92V77.86H461.87V72.29Z" fill="#EBEBEB"/>
<path d="M461.87 78.56H305.92V84.13H461.87V78.56Z" fill="#EBEBEB"/>
<path d="M461.87 84.83H305.92V90.4H461.87V84.83Z" fill="#EBEBEB"/>
<path d="M461.87 91.09H305.92V96.66H461.87V91.09Z" fill="#EBEBEB"/>
<path d="M461.87 97.36H305.92V102.93H461.87V97.36Z" fill="#EBEBEB"/>
<path d="M461.87 103.63H305.92V109.2H461.87V103.63Z" fill="#EBEBEB"/>
<path d="M461.87 109.89H305.92V115.46H461.87V109.89Z" fill="#EBEBEB"/>
<path d="M461.87 116.16H305.92V121.73H461.87V116.16Z" fill="#EBEBEB"/>
<path d="M449.99 64.9H448.99V193.29H449.99V64.9Z" fill="#263238"/>
<path d="M451.26 197.94H447.71L448.61 192.84H450.38L451.26 197.94Z" fill="#263238"/>
<path d="M453.59 64.9H452.59V240.63H453.59V64.9Z" fill="#263238"/>
<path d="M454.87 244.38H451.32L452.21 239.28H453.98L454.87 244.38Z" fill="#263238"/>
<path d="M468.07 57.16H299.71V68.81H468.07V57.16Z" fill="#DBDBDB"/>
<path d="M66 171.55C66 170.71 66.11 168.48 66.11 167.55C66.11 163.48 64.66 161.65 60.87 161.55C60.505 161.572 60.1392 161.52 59.7953 161.395C59.4513 161.271 59.1365 161.078 58.8701 160.827C58.6037 160.576 58.3914 160.274 58.2463 159.938C58.1012 159.603 58.0264 159.241 58.0264 158.875C58.0264 158.509 58.1012 158.147 58.2463 157.812C58.3914 157.476 58.6037 157.174 58.8701 156.923C59.1365 156.672 59.4513 156.479 59.7953 156.355C60.1392 156.23 60.505 156.178 60.87 156.2C64.66 156.04 66.11 154.25 66.11 150.13C66.11 149.13 66 146.95 66 146.13C66 140.73 68.29 137.27 76.93 135.38C77.5228 135.227 78.1515 135.306 78.6885 135.6C79.2255 135.893 79.6306 136.381 79.8215 136.962C80.0124 137.544 79.9748 138.176 79.7164 138.731C79.4579 139.286 78.998 139.722 78.43 139.95C73.02 141.62 72.24 143.35 72.24 147.14C72.24 148.25 72.36 150.09 72.36 151.26C72.36 155.61 70.24 157.73 66.56 158.9C70.29 160.12 72.36 162.19 72.36 166.53C72.36 167.71 72.24 169.53 72.24 170.66C72.24 174.45 73.02 176.18 78.43 177.85C78.998 178.078 79.4579 178.514 79.7164 179.069C79.9748 179.624 80.0124 180.256 79.8215 180.838C79.6306 181.42 79.2255 181.907 78.6885 182.201C78.1515 182.494 77.5228 182.573 76.93 182.42C68.28 180.47 66 177 66 171.55Z" fill="#EBEBEB"/>
<path d="M98.65 146.07C98.65 146.91 98.54 149.14 98.54 150.07C98.54 154.19 100.05 155.98 103.84 156.14C104.205 156.118 104.571 156.17 104.915 156.295C105.259 156.419 105.574 156.612 105.84 156.863C106.106 157.114 106.319 157.416 106.464 157.752C106.609 158.087 106.684 158.449 106.684 158.815C106.684 159.181 106.609 159.543 106.464 159.878C106.319 160.214 106.106 160.516 105.84 160.767C105.574 161.018 105.259 161.211 104.915 161.335C104.571 161.46 104.205 161.512 103.84 161.49C100.05 161.61 98.54 163.49 98.54 167.49C98.54 168.44 98.65 170.67 98.65 171.49C98.65 176.95 96.37 180.41 87.73 182.3C87.134 182.458 86.4999 182.381 85.9593 182.084C85.4188 181.787 85.0132 181.294 84.8267 180.706C84.6402 180.118 84.6871 179.481 84.9577 178.927C85.2283 178.373 85.7018 177.944 86.28 177.73C91.63 176.06 92.41 174.33 92.41 170.54C92.41 169.42 92.3 167.59 92.3 166.41C92.3 162.07 94.42 159.95 98.1 158.78C94.36 157.55 92.3 155.49 92.3 151.14C92.3 149.97 92.41 148.14 92.41 147.02C92.41 143.23 91.63 141.5 86.28 139.83C85.7018 139.616 85.2283 139.187 84.9577 138.633C84.6871 138.079 84.6402 137.442 84.8267 136.854C85.0132 136.266 85.4188 135.773 85.9593 135.476C86.4999 135.179 87.134 135.102 87.73 135.26C96.37 137.21 98.65 140.67 98.65 146.07Z" fill="#EBEBEB"/>
<path d="M213.59 93.75C214.051 94.2044 214.368 94.7857 214.498 95.42C214.629 96.0544 214.569 96.7133 214.324 97.3131C214.08 97.913 213.663 98.4268 213.127 98.7894C212.59 99.1521 211.958 99.3472 211.31 99.35C210.424 99.3576 209.568 99.0247 208.92 98.42L194.34 83.63C194.18 83.63 194.13 83.47 194.08 83.32C194.031 83.2777 193.977 83.2409 193.92 83.21C193.848 83.0823 193.798 82.9439 193.77 82.8C193.729 82.7795 193.693 82.75 193.666 82.7136C193.638 82.6772 193.619 82.6349 193.61 82.59C193.56 82.49 193.56 82.33 193.51 82.28C193.46 82.23 193.41 82.07 193.41 82.02V81.66C193.41 81.55 193.35 81.5 193.35 81.35C193.35 81.2 193.41 81.14 193.41 81.09V80.72C193.41 80.62 193.51 80.57 193.51 80.52C193.51 80.47 193.56 80.26 193.61 80.1C193.66 79.94 193.67 80.1 193.67 80C193.741 79.8369 193.824 79.6798 193.92 79.53C193.92 79.516 193.923 79.5021 193.928 79.4893C193.934 79.4765 193.942 79.4649 193.953 79.4555C193.963 79.4461 193.975 79.4389 193.989 79.4346C194.002 79.4302 194.016 79.4286 194.03 79.43C194.099 79.2815 194.206 79.1539 194.34 79.06L208.92 64.28C209.549 63.6791 210.385 63.3438 211.255 63.3438C212.125 63.3438 212.961 63.6791 213.59 64.28C213.897 64.5865 214.14 64.9505 214.306 65.3511C214.473 65.7518 214.558 66.1813 214.558 66.615C214.558 67.0487 214.473 67.4782 214.306 67.8789C214.14 68.2795 213.897 68.6435 213.59 68.95L201.29 81.35L213.59 93.75Z" fill="#EBEBEB"/>
<path d="M226.82 95.41L239.53 65.16C239.833 64.4581 240.403 63.9051 241.113 63.6221C241.823 63.3391 242.617 63.3491 243.32 63.65C244 63.9484 244.535 64.5042 244.807 65.1957C245.078 65.8872 245.065 66.6582 244.77 67.34L232.06 97.64C231.832 98.1519 231.461 98.5863 230.99 98.89C230.519 99.1937 229.97 99.3536 229.41 99.35C229.065 99.3532 228.724 99.2816 228.41 99.14C228.055 99.0071 227.731 98.8035 227.457 98.5414C227.183 98.2794 226.965 97.9645 226.816 97.6157C226.667 97.2669 226.591 96.8916 226.592 96.5124C226.592 96.1333 226.67 95.7582 226.82 95.41V95.41Z" fill="#EBEBEB"/>
<path d="M269.88 83.21C269.88 83.21 269.88 83.27 269.83 83.27C269.718 83.3974 269.597 83.5176 269.47 83.63L254.89 98.42C254.259 99.0207 253.421 99.354 252.55 99.35C251.682 99.3556 250.846 99.0219 250.22 98.42C249.911 98.1149 249.665 97.7513 249.497 97.3505C249.33 96.9496 249.244 96.5195 249.244 96.085C249.244 95.6505 249.33 95.2204 249.497 94.8195C249.665 94.4187 249.911 94.0551 250.22 93.75L262.51 81.35L250.22 69C249.911 68.6949 249.665 68.3313 249.497 67.9305C249.33 67.5296 249.244 67.0995 249.244 66.665C249.244 66.2305 249.33 65.8004 249.497 65.3995C249.665 64.9987 249.911 64.6351 250.22 64.33C250.849 63.7291 251.685 63.3938 252.555 63.3938C253.425 63.3938 254.261 63.7291 254.89 64.33L269.47 79.11C269.6 79.2231 269.72 79.3469 269.83 79.48C269.88 79.48 269.88 79.58 269.88 79.58C269.975 79.7318 270.062 79.8887 270.14 80.05C270.14 80.05 270.19 80.05 270.19 80.15C270.224 80.3127 270.277 80.4706 270.35 80.62C270.35 80.67 270.35 80.67 270.35 80.77V81.14C270.35 81.14 270.4 81.34 270.4 81.4C270.4 81.46 270.35 81.6 270.35 81.66V82C270.35 82 270.35 82 270.35 82.1C270.286 82.2529 270.233 82.41 270.19 82.57C270.19 82.57 270.14 82.57 270.14 82.73C270.14 82.89 270 83 269.88 83.21Z" fill="#EBEBEB"/>
<path d="M250 442.73C361.307 442.73 451.54 435.54 451.54 426.67C451.54 417.8 361.307 410.61 250 410.61C138.693 410.61 48.46 417.8 48.46 426.67C48.46 435.54 138.693 442.73 250 442.73Z" fill="#EBEBEB"/>
<path d="M440.04 407.23H318.92L343.07 266.75H433.64L440.04 407.23Z" fill="#DBDBDB"/>
<path d="M440.04 407.23H429.42L423.46 266.75H433.64L440.04 407.23Z" fill="#A6A6A6"/>
<path d="M40.74 407.23L93.06 406.99L145.37 406.9L250 406.73L354.63 406.9L406.94 406.99L459.26 407.23L406.94 407.48L354.63 407.56L250 407.73L145.37 407.56L93.06 407.48L40.74 407.23Z" fill="#263238"/>
<path d="M154.44 57.16H55.06V120.56H154.44V57.16Z" fill="white"/>
<path d="M155.06 121.18H54.43V56.53H155.06V121.18ZM55.68 119.93H153.81V57.79H55.68V119.93Z" fill="#EBEBEB"/>
<path d="M63.264 103C62.896 103 62.576 102.864 62.304 102.592C62.032 102.32 61.896 102 61.896 101.632V86.848C61.896 86.48 62.032 86.16 62.304 85.888C62.576 85.616 62.896 85.48 63.264 85.48H63.864C64.28 85.48 64.664 85.592 65.016 85.816C65.368 86.04 65.624 86.336 65.784 86.704L69.984 95.776C69.984 95.792 69.992 95.8 70.008 95.8C70.024 95.8 70.032 95.792 70.032 95.776L74.232 86.704C74.392 86.336 74.648 86.04 75 85.816C75.352 85.592 75.736 85.48 76.152 85.48H76.848C77.216 85.48 77.536 85.616 77.808 85.888C78.08 86.16 78.216 86.48 78.216 86.848V101.632C78.216 102 78.08 102.32 77.808 102.592C77.536 102.864 77.216 103 76.848 103H76.32C75.952 103 75.632 102.864 75.36 102.592C75.088 102.32 74.952 102 74.952 101.632V91.192C74.952 91.176 74.944 91.168 74.928 91.168C74.912 91.168 74.904 91.176 74.904 91.192L72.024 97.36C71.848 97.728 71.576 98.032 71.208 98.272C70.856 98.496 70.48 98.608 70.08 98.608H69.936C69.536 98.608 69.152 98.496 68.784 98.272C68.432 98.032 68.168 97.728 67.992 97.36L65.112 91.192C65.112 91.176 65.104 91.168 65.088 91.168C65.072 91.168 65.064 91.176 65.064 91.192V101.632C65.064 102 64.928 102.32 64.656 102.592C64.384 102.864 64.064 103 63.696 103H63.264ZM93.4774 94.24C93.4774 90.08 91.9574 88 88.9174 88C85.8774 88 84.3574 90.08 84.3574 94.24C84.3574 98.4 85.8774 100.48 88.9174 100.48C91.9574 100.48 93.4774 98.4 93.4774 94.24ZM94.7494 100.864C93.3254 102.448 91.3814 103.24 88.9174 103.24C86.4534 103.24 84.5014 102.448 83.0614 100.864C81.6374 99.28 80.9254 97.072 80.9254 94.24C80.9254 91.408 81.6374 89.2 83.0614 87.616C84.5014 86.032 86.4534 85.24 88.9174 85.24C91.3814 85.24 93.3254 86.032 94.7494 87.616C96.1894 89.2 96.9094 91.408 96.9094 94.24C96.9094 97.072 96.1894 99.28 94.7494 100.864ZM102.942 95.224V100.264C102.942 100.392 103.014 100.472 103.158 100.504C103.718 100.584 104.246 100.624 104.742 100.624C106.07 100.624 107.038 100.384 107.646 99.904C108.27 99.408 108.582 98.656 108.582 97.648C108.582 96.752 108.222 96.096 107.502 95.68C106.798 95.248 105.622 95.032 103.974 95.032H103.134C103.006 95.032 102.942 95.096 102.942 95.224ZM102.942 88.216V92.32C102.942 92.464 103.006 92.536 103.134 92.536H103.83C105.318 92.536 106.39 92.336 107.046 91.936C107.718 91.52 108.054 90.912 108.054 90.112C108.054 89.344 107.782 88.776 107.238 88.408C106.694 88.04 105.806 87.856 104.574 87.856C104.014 87.856 103.534 87.888 103.134 87.952C103.006 87.984 102.942 88.072 102.942 88.216ZM100.974 103.048C100.59 103.016 100.27 102.856 100.014 102.568C99.7584 102.264 99.6304 101.912 99.6304 101.512V86.968C99.6304 86.568 99.7584 86.224 100.014 85.936C100.27 85.632 100.598 85.464 100.998 85.432C102.182 85.304 103.326 85.24 104.43 85.24C108.91 85.24 111.15 86.704 111.15 89.632C111.15 90.608 110.822 91.456 110.166 92.176C109.51 92.896 108.646 93.36 107.574 93.568C107.558 93.568 107.55 93.576 107.55 93.592C107.55 93.624 107.558 93.64 107.574 93.64C108.886 93.832 109.91 94.32 110.646 95.104C111.398 95.872 111.774 96.824 111.774 97.96C111.774 99.72 111.198 101.04 110.046 101.92C108.894 102.8 107.102 103.24 104.67 103.24C103.454 103.24 102.222 103.176 100.974 103.048ZM116.338 103C115.97 103 115.65 102.864 115.378 102.592C115.106 102.32 114.97 102 114.97 101.632V86.848C114.97 86.48 115.106 86.16 115.378 85.888C115.65 85.616 115.97 85.48 116.338 85.48H117.298C117.666 85.48 117.986 85.616 118.258 85.888C118.53 86.16 118.666 86.48 118.666 86.848V101.632C118.666 102 118.53 102.32 118.258 102.592C117.986 102.864 117.666 103 117.298 103H116.338ZM124.271 103C123.903 103 123.583 102.864 123.311 102.592C123.055 102.32 122.927 102 122.927 101.632V86.848C122.927 86.48 123.055 86.16 123.311 85.888C123.583 85.616 123.903 85.48 124.271 85.48H125.039C125.407 85.48 125.727 85.616 125.999 85.888C126.271 86.16 126.407 86.48 126.407 86.848V100C126.407 100.144 126.471 100.216 126.599 100.216H132.767C133.135 100.216 133.447 100.352 133.703 100.624C133.975 100.88 134.111 101.192 134.111 101.56V101.632C134.111 102 133.975 102.32 133.703 102.592C133.447 102.864 133.135 103 132.767 103H124.271ZM138.662 103C138.294 103 137.974 102.864 137.702 102.592C137.43 102.32 137.294 102 137.294 101.632V86.848C137.294 86.48 137.43 86.16 137.702 85.888C137.974 85.616 138.294 85.48 138.662 85.48H146.822C147.19 85.48 147.51 85.616 147.782 85.888C148.054 86.16 148.19 86.48 148.19 86.848C148.19 87.216 148.054 87.536 147.782 87.808C147.51 88.064 147.19 88.192 146.822 88.192H140.87C140.726 88.192 140.654 88.264 140.654 88.408V92.272C140.654 92.416 140.726 92.488 140.87 92.488H146.414C146.782 92.488 147.086 92.616 147.326 92.872C147.582 93.128 147.71 93.432 147.71 93.784C147.71 94.136 147.582 94.44 147.326 94.696C147.086 94.936 146.782 95.056 146.414 95.056H140.87C140.726 95.056 140.654 95.128 140.654 95.272V100.072C140.654 100.216 140.726 100.288 140.87 100.288H146.822C147.19 100.288 147.51 100.424 147.782 100.696C148.054 100.952 148.19 101.264 148.19 101.632C148.19 102 148.054 102.32 147.782 102.592C147.51 102.864 147.19 103 146.822 103H138.662Z" fill="#EBEBEB"/>
<path d="M318.38 239H219V302.4H318.38V239Z" fill="white"/>
<path d="M232.664 271.264C232.296 271.264 231.976 271.136 231.704 270.88C231.432 270.608 231.296 270.288 231.296 269.92V269.848C231.296 269.48 231.432 269.16 231.704 268.888C231.976 268.616 232.296 268.48 232.664 268.48H242.888C243.256 268.48 243.576 268.616 243.848 268.888C244.12 269.16 244.256 269.48 244.256 269.848V269.92C244.256 270.288 244.12 270.608 243.848 270.88C243.576 271.136 243.256 271.264 242.888 271.264H239.672C239.544 271.264 239.48 271.336 239.48 271.48V284.632C239.48 285 239.344 285.32 239.072 285.592C238.8 285.864 238.48 286 238.112 286H237.44C237.072 286 236.752 285.864 236.48 285.592C236.208 285.32 236.072 285 236.072 284.632V271.48C236.072 271.336 236.008 271.264 235.88 271.264H232.664ZM257.97 277.24C257.97 273.08 256.45 271 253.41 271C250.37 271 248.85 273.08 248.85 277.24C248.85 281.4 250.37 283.48 253.41 283.48C256.45 283.48 257.97 281.4 257.97 277.24ZM259.242 283.864C257.818 285.448 255.874 286.24 253.41 286.24C250.946 286.24 248.994 285.448 247.554 283.864C246.13 282.28 245.418 280.072 245.418 277.24C245.418 274.408 246.13 272.2 247.554 270.616C248.994 269.032 250.946 268.24 253.41 268.24C255.874 268.24 257.818 269.032 259.242 270.616C260.682 272.2 261.402 274.408 261.402 277.24C261.402 280.072 260.682 282.28 259.242 283.864ZM275.829 277.24C275.829 273.08 274.309 271 271.269 271C268.229 271 266.709 273.08 266.709 277.24C266.709 281.4 268.229 283.48 271.269 283.48C274.309 283.48 275.829 281.4 275.829 277.24ZM277.101 283.864C275.677 285.448 273.733 286.24 271.269 286.24C268.805 286.24 266.853 285.448 265.413 283.864C263.989 282.28 263.277 280.072 263.277 277.24C263.277 274.408 263.989 272.2 265.413 270.616C266.853 269.032 268.805 268.24 271.269 268.24C273.733 268.24 275.677 269.032 277.101 270.616C278.541 272.2 279.261 274.408 279.261 277.24C279.261 280.072 278.541 282.28 277.101 283.864ZM283.326 286C282.958 286 282.638 285.864 282.366 285.592C282.11 285.32 281.982 285 281.982 284.632V269.848C281.982 269.48 282.11 269.16 282.366 268.888C282.638 268.616 282.958 268.48 283.326 268.48H284.094C284.462 268.48 284.782 268.616 285.054 268.888C285.326 269.16 285.462 269.48 285.462 269.848V283C285.462 283.144 285.526 283.216 285.654 283.216H291.822C292.19 283.216 292.502 283.352 292.758 283.624C293.03 283.88 293.166 284.192 293.166 284.56V284.632C293.166 285 293.03 285.32 292.758 285.592C292.502 285.864 292.19 286 291.822 286H283.326ZM300.728 278.608C298.808 277.968 297.416 277.192 296.552 276.28C295.704 275.368 295.28 274.264 295.28 272.968C295.28 271.512 295.768 270.36 296.744 269.512C297.72 268.664 299.088 268.24 300.848 268.24C302.336 268.24 303.632 268.408 304.736 268.744C305.12 268.856 305.424 269.088 305.648 269.44C305.888 269.776 306.008 270.152 306.008 270.568V270.784C306.008 271.088 305.872 271.328 305.6 271.504C305.328 271.664 305.048 271.688 304.76 271.576C303.56 271.112 302.336 270.88 301.088 270.88C300.288 270.88 299.68 271.064 299.264 271.432C298.848 271.8 298.64 272.312 298.64 272.968C298.64 274.12 299.392 274.944 300.896 275.44C303.056 276.128 304.552 276.912 305.384 277.792C306.232 278.672 306.656 279.808 306.656 281.2C306.656 284.56 304.584 286.24 300.44 286.24C299.144 286.24 297.968 286.04 296.912 285.64C296.528 285.496 296.224 285.248 296 284.896C295.792 284.544 295.688 284.152 295.688 283.72V283.432C295.688 283.128 295.816 282.912 296.072 282.784C296.328 282.64 296.592 282.632 296.864 282.76C297.92 283.288 299.032 283.552 300.2 283.552C302.232 283.552 303.248 282.784 303.248 281.248C303.248 280.624 303.056 280.112 302.672 279.712C302.288 279.296 301.64 278.928 300.728 278.608Z" fill="#EBEBEB"/>
<path d="M154.44 57.16H55.06V69.15H154.44V57.16Z" fill="#C53F3F"/>
<path d="M155.06 69.78H54.43V56.53H155.06V69.78ZM55.68 68.52H153.81V57.79H55.68V68.52Z" fill="#EBEBEB"/>
<path d="M66.31 63.24C66.31 63.8333 66.134 64.4134 65.8044 64.9067C65.4748 65.4001 65.0062 65.7846 64.4581 66.0116C63.9099 66.2387 63.3067 66.2981 62.7247 66.1824C62.1428 66.0666 61.6082 65.7809 61.1887 65.3613C60.7691 64.9418 60.4834 64.4072 60.3676 63.8253C60.2519 63.2433 60.3113 62.6401 60.5384 62.0919C60.7654 61.5438 61.1499 61.0752 61.6433 60.7456C62.1366 60.4159 62.7167 60.24 63.31 60.24C64.1057 60.24 64.8687 60.5561 65.4313 61.1187C65.9939 61.6813 66.31 62.4443 66.31 63.24V63.24Z" fill="#A6A6A6"/>
<path d="M78.63 63.24C78.63 63.8333 78.4541 64.4134 78.1244 64.9067C77.7948 65.4001 77.3262 65.7846 76.7781 66.0116C76.2299 66.2387 75.6267 66.2981 75.0447 66.1824C74.4628 66.0666 73.9282 65.7809 73.5087 65.3613C73.0891 64.9418 72.8034 64.4072 72.6877 63.8253C72.5719 63.2433 72.6313 62.6401 72.8584 62.0919C73.0854 61.5438 73.4699 61.0752 73.9633 60.7456C74.4566 60.4159 75.0367 60.24 75.63 60.24C76.4257 60.24 77.1887 60.5561 77.7513 61.1187C78.3139 61.6813 78.63 62.4443 78.63 63.24V63.24Z" fill="#EBEBEB"/>
<path d="M91 63.24C91 63.8333 90.8241 64.4134 90.4944 64.9067C90.1648 65.4001 89.6962 65.7846 89.148 66.0116C88.5999 66.2387 87.9967 66.2981 87.4147 66.1824C86.8328 66.0666 86.2982 65.7809 85.8787 65.3613C85.4591 64.9418 85.1734 64.4072 85.0576 63.8253C84.9419 63.2433 85.0013 62.6401 85.2284 62.0919C85.4554 61.5438 85.8399 61.0752 86.3333 60.7456C86.8266 60.4159 87.4067 60.24 88 60.24C88.7956 60.24 89.5587 60.5561 90.1213 61.1187C90.6839 61.6813 91 62.4443 91 63.24V63.24Z" fill="white"/>
<path d="M319.21 302.57H218.57V237.91H319.21V302.57ZM219.83 301.31H318V239.17H219.83V301.31Z" fill="#EBEBEB"/>
<path d="M318.58 238.54H219.2V250.53H318.58V238.54Z" fill="#C53F3F"/>
<path d="M319.21 251.16H218.57V237.91H319.21V251.16ZM219.83 249.9H318V239.17H219.83V249.9Z" fill="#EBEBEB"/>
<path d="M230.46 244.62C230.46 245.213 230.284 245.793 229.954 246.287C229.625 246.78 229.156 247.165 228.608 247.392C228.06 247.619 227.457 247.678 226.875 247.562C226.293 247.447 225.758 247.161 225.339 246.741C224.919 246.322 224.633 245.787 224.518 245.205C224.402 244.623 224.461 244.02 224.688 243.472C224.915 242.924 225.3 242.455 225.793 242.126C226.287 241.796 226.867 241.62 227.46 241.62C228.256 241.62 229.019 241.936 229.581 242.499C230.144 243.061 230.46 243.824 230.46 244.62V244.62Z" fill="#A6A6A6"/>
<path d="M242.78 244.62C242.78 245.213 242.604 245.793 242.274 246.287C241.945 246.78 241.476 247.165 240.928 247.392C240.38 247.619 239.777 247.678 239.195 247.562C238.613 247.447 238.078 247.161 237.659 246.741C237.239 246.322 236.953 245.787 236.838 245.205C236.722 244.623 236.781 244.02 237.008 243.472C237.235 242.924 237.62 242.455 238.113 242.126C238.607 241.796 239.187 241.62 239.78 241.62C240.576 241.62 241.339 241.936 241.901 242.499C242.464 243.061 242.78 243.824 242.78 244.62V244.62Z" fill="#EBEBEB"/>
<path d="M255.1 244.62C255.1 245.213 254.924 245.793 254.594 246.287C254.265 246.78 253.796 247.165 253.248 247.392C252.7 247.619 252.097 247.678 251.515 247.562C250.933 247.447 250.398 247.161 249.979 246.741C249.559 246.322 249.273 245.787 249.158 245.205C249.042 244.623 249.101 244.02 249.328 243.472C249.555 242.924 249.94 242.455 250.433 242.126C250.927 241.796 251.507 241.62 252.1 241.62C252.896 241.62 253.659 241.936 254.221 242.499C254.784 243.061 255.1 243.824 255.1 244.62V244.62Z" fill="white"/>
<path d="M272.23 116.73H106.49V252.84H272.23V116.73Z" fill="white"/>
<path d="M272.86 253.48H105.86V116.11H272.86V253.48ZM107.12 252.22H271.6V117.36H107.12V252.22Z" fill="#EBEBEB"/>
<path d="M272.23 116.73H106.49V128.72H272.23V116.73Z" fill="#C53F3F"/>
<path d="M272.86 129.35H105.86V116.11H272.86V129.35ZM107.12 128.09H271.6V117.36H107.12V128.09Z" fill="#EBEBEB"/>
<path d="M117.74 122.82C117.74 123.413 117.564 123.993 117.234 124.487C116.905 124.98 116.436 125.365 115.888 125.592C115.34 125.819 114.737 125.878 114.155 125.762C113.573 125.647 113.038 125.361 112.619 124.941C112.199 124.522 111.913 123.987 111.798 123.405C111.682 122.823 111.741 122.22 111.968 121.672C112.195 121.124 112.58 120.655 113.073 120.326C113.567 119.996 114.147 119.82 114.74 119.82C115.536 119.82 116.299 120.136 116.861 120.699C117.424 121.261 117.74 122.024 117.74 122.82V122.82Z" fill="#A6A6A6"/>
<path d="M130.06 122.82C130.06 123.413 129.884 123.993 129.554 124.487C129.225 124.98 128.756 125.365 128.208 125.592C127.66 125.819 127.057 125.878 126.475 125.762C125.893 125.647 125.358 125.361 124.939 124.941C124.519 124.522 124.233 123.987 124.118 123.405C124.002 122.823 124.061 122.22 124.288 121.672C124.515 121.124 124.9 120.655 125.393 120.326C125.887 119.996 126.467 119.82 127.06 119.82C127.856 119.82 128.619 120.136 129.181 120.699C129.744 121.261 130.06 122.024 130.06 122.82Z" fill="#EBEBEB"/>
<path d="M142.39 122.82C142.39 123.413 142.214 123.993 141.884 124.487C141.555 124.98 141.086 125.365 140.538 125.592C139.99 125.819 139.387 125.878 138.805 125.762C138.223 125.647 137.688 125.361 137.269 124.941C136.849 124.522 136.563 123.987 136.448 123.405C136.332 122.823 136.391 122.22 136.618 121.672C136.845 121.124 137.23 120.655 137.723 120.326C138.217 119.996 138.797 119.82 139.39 119.82C140.186 119.82 140.949 120.136 141.511 120.699C142.074 121.261 142.39 122.024 142.39 122.82Z" fill="white"/>
<path d="M125.76 152.57H119.35V154.91H125.76V152.57Z" fill="#EBEBEB"/>
<path d="M203.96 152.57H130.43V154.91H203.96V152.57Z" fill="#EBEBEB"/>
<path d="M220.07 152.57H207.9V154.91H220.07V152.57Z" fill="#C53F3F"/>
<path d="M247.92 183.9H235.74V186.24H247.92V183.9Z" fill="#EBEBEB"/>
<path d="M243.77 152.57H222.72V154.91H243.77V152.57Z" fill="#A6A6A6"/>
<path d="M132.17 158.84H125.76V161.18H132.17V158.84Z" fill="#EBEBEB"/>
<path d="M184.93 158.84H136.68V161.18H184.93V158.84Z" fill="#A6A6A6"/>
<path d="M232.85 183.9H204.6V186.24H232.85V183.9Z" fill="#A6A6A6"/>
<path d="M176.52 177.64H130.43V179.98H176.52V177.64Z" fill="#A6A6A6"/>
<path d="M169.01 165.1H136.68V167.44H169.01V165.1Z" fill="#C53F3F"/>
<path d="M228.37 171.37H216.04V173.71H228.37V171.37Z" fill="#A6A6A6"/>
<path d="M224.23 165.1H172.6V167.44H224.23V165.1Z" fill="#A6A6A6"/>
<path d="M192.06 183.9H130.43V186.24H192.06V183.9Z" fill="#C53F3F"/>
<path d="M254.76 158.84H221.36V161.18H254.76V158.84Z" fill="#C53F3F"/>
<path d="M218.71 158.84H187.96V161.18H218.71V158.84Z" fill="#EBEBEB"/>
<path d="M247.41 165.1H226.66V167.44H247.41V165.1Z" fill="#EBEBEB"/>
<path d="M132.17 165.1H125.76V167.44H132.17V165.1Z" fill="#EBEBEB"/>
<path d="M125.76 171.37H119.35V173.71H125.76V171.37Z" fill="#A6A6A6"/>
<path d="M168.31 171.37H130.43V173.71H168.31V171.37Z" fill="#EBEBEB"/>
<path d="M174.56 190.17H136.68V192.51H174.56V190.17Z" fill="#EBEBEB"/>
<path d="M236.12 196.44H207.32V198.78H236.12V196.44Z" fill="#C53F3F"/>
<path d="M215.63 190.17H177.64V192.51H215.63V190.17Z" fill="#C53F3F"/>
<path d="M204.01 196.44H170.94V198.78H204.01V196.44Z" fill="#EBEBEB"/>
<path d="M147.65 196.44H136.68V198.78H147.65V196.44Z" fill="#A6A6A6"/>
<path d="M220.07 177.64H179.13V179.98H220.07V177.64Z" fill="#EBEBEB"/>
<path d="M248.77 177.64H222.72V179.98H248.77V177.64Z" fill="#C53F3F"/>
<path d="M213.05 171.37H172.16V173.71H213.05V171.37Z" fill="#C53F3F"/>
<path d="M125.76 177.64H119.35V179.98H125.76V177.64Z" fill="#EBEBEB"/>
<path d="M125.76 183.9H119.35V186.24H125.76V183.9Z" fill="#EBEBEB"/>
<path d="M132.17 190.17H125.76V192.51H132.17V190.17Z" fill="#A6A6A6"/>
<path d="M132.17 196.44H125.76V198.78H132.17V196.44Z" fill="#EBEBEB"/>
<path d="M125.76 201.68H119.35V204.02H125.76V201.68Z" fill="#EBEBEB"/>
<path d="M203.96 201.68H130.43V204.02H203.96V201.68Z" fill="#EBEBEB"/>
<path d="M132.17 207.95H125.76V210.29H132.17V207.95Z" fill="#EBEBEB"/>
<path d="M184.93 207.95H136.68V210.29H184.93V207.95Z" fill="#A6A6A6"/>
<path d="M176.52 226.75H130.43V229.09H176.52V226.75Z" fill="#A6A6A6"/>
<path d="M169.01 214.22H136.68V216.56H169.01V214.22Z" fill="#C53F3F"/>
<path d="M224.23 214.22H172.6V216.56H224.23V214.22Z" fill="#A6A6A6"/>
<path d="M192.06 233.01H130.43V235.35H192.06V233.01Z" fill="#C53F3F"/>
<path d="M254.76 207.95H221.36V210.29H254.76V207.95Z" fill="#C53F3F"/>
<path d="M218.71 207.95H187.96V210.29H218.71V207.95Z" fill="#EBEBEB"/>
<path d="M247.41 214.22H226.66V216.56H247.41V214.22Z" fill="#EBEBEB"/>
<path d="M132.17 214.22H125.76V216.56H132.17V214.22Z" fill="#EBEBEB"/>
<path d="M125.76 220.48H119.35V222.82H125.76V220.48Z" fill="#A6A6A6"/>
<path d="M168.31 220.48H130.43V222.82H168.31V220.48Z" fill="#EBEBEB"/>
<path d="M220.07 226.75H179.13V229.09H220.07V226.75Z" fill="#EBEBEB"/>
<path d="M213.05 220.48H172.16V222.82H213.05V220.48Z" fill="#C53F3F"/>
<path d="M125.76 226.75H119.35V229.09H125.76V226.75Z" fill="#EBEBEB"/>
<path d="M123.31 146.41C123.414 146.515 123.473 146.657 123.473 146.805C123.473 146.953 123.414 147.095 123.31 147.2C123.204 147.302 123.062 147.359 122.915 147.359C122.768 147.359 122.626 147.302 122.52 147.2L120.05 144.69C120.045 144.674 120.045 144.656 120.05 144.64C120.046 144.617 120.046 144.593 120.05 144.57V144.57C120.046 144.55 120.046 144.53 120.05 144.51C120.05 144.51 120.05 144.51 120.05 144.51V144.45C120.05 144.45 120.05 144.45 120.05 144.39C120.05 144.33 120.05 144.39 120.05 144.39V144.33C120.046 144.307 120.046 144.283 120.05 144.26C120.05 144.26 120.05 144.19 120.05 144.18C120.05 144.17 120.05 144.18 120.05 144.18C120.062 144.153 120.083 144.132 120.11 144.12L122.58 141.61C122.686 141.508 122.828 141.451 122.975 141.451C123.122 141.451 123.264 141.508 123.37 141.61C123.474 141.715 123.533 141.857 123.533 142.005C123.533 142.153 123.474 142.295 123.37 142.4L121.29 144.5L123.31 146.41Z" fill="#C53F3F"/>
<path d="M125.55 146.69L127.71 141.56C127.734 141.502 127.77 141.448 127.815 141.404C127.859 141.359 127.913 141.324 127.971 141.3C128.03 141.275 128.092 141.263 128.156 141.263C128.219 141.263 128.282 141.276 128.34 141.3C128.398 141.324 128.452 141.36 128.496 141.405C128.541 141.449 128.576 141.503 128.6 141.561C128.625 141.62 128.637 141.682 128.637 141.746C128.637 141.809 128.624 141.872 128.6 141.93L126.44 147.07C126.401 147.157 126.338 147.23 126.258 147.282C126.178 147.333 126.085 147.361 125.99 147.36C125.934 147.374 125.876 147.374 125.82 147.36C125.754 147.339 125.694 147.304 125.644 147.257C125.593 147.21 125.554 147.152 125.528 147.088C125.502 147.024 125.491 146.956 125.495 146.887C125.498 146.818 125.517 146.751 125.55 146.69V146.69Z" fill="#C53F3F"/>
<path d="M132.85 144.62C132.835 144.645 132.815 144.665 132.79 144.68L130.32 147.19C130.211 147.29 130.068 147.347 129.92 147.35C129.774 147.348 129.635 147.291 129.53 147.19C129.426 147.085 129.367 146.943 129.367 146.795C129.367 146.647 129.426 146.505 129.53 146.4L131.61 144.29L129.53 142.19C129.426 142.085 129.367 141.943 129.367 141.795C129.367 141.647 129.426 141.505 129.53 141.4C129.636 141.298 129.778 141.241 129.925 141.241C130.072 141.241 130.214 141.298 130.32 141.4L132.79 143.91C132.817 143.922 132.838 143.943 132.85 143.97C132.87 143.994 132.887 144.021 132.9 144.05V144.05C132.896 144.077 132.896 144.103 132.9 144.13C132.9 144.13 132.9 144.13 132.9 144.13V144.19V144.31C132.897 144.337 132.897 144.363 132.9 144.39V144.39L132.85 144.62Z" fill="#C53F3F"/>
<path d="M291.13 97.65H223.43V122.72H291.13V97.65Z" fill="#455A64"/>
<path d="M248.912 110.16C248.912 107.387 247.899 106 245.872 106C243.845 106 242.832 107.387 242.832 110.16C242.832 112.933 243.845 114.32 245.872 114.32C247.899 114.32 248.912 112.933 248.912 110.16ZM249.76 114.576C248.811 115.632 247.515 116.16 245.872 116.16C244.229 116.16 242.928 115.632 241.968 114.576C241.019 113.52 240.544 112.048 240.544 110.16C240.544 108.272 241.019 106.8 241.968 105.744C242.928 104.688 244.229 104.16 245.872 104.16C247.515 104.16 248.811 104.688 249.76 105.744C250.72 106.8 251.2 108.272 251.2 110.16C251.2 112.048 250.72 113.52 249.76 114.576ZM260.818 110.16C260.818 107.387 259.805 106 257.778 106C255.752 106 254.738 107.387 254.738 110.16C254.738 112.933 255.752 114.32 257.778 114.32C259.805 114.32 260.818 112.933 260.818 110.16ZM261.666 114.576C260.717 115.632 259.421 116.16 257.778 116.16C256.136 116.16 254.834 115.632 253.874 114.576C252.925 113.52 252.45 112.048 252.45 110.16C252.45 108.272 252.925 106.8 253.874 105.744C254.834 104.688 256.136 104.16 257.778 104.16C259.421 104.16 260.717 104.688 261.666 105.744C262.626 106.8 263.106 108.272 263.106 110.16C263.106 112.048 262.626 113.52 261.666 114.576ZM267.128 106.144V110C267.128 110.075 267.171 110.123 267.256 110.144C267.662 110.197 268.056 110.224 268.44 110.224C269.304 110.224 269.96 110.037 270.408 109.664C270.867 109.28 271.096 108.736 271.096 108.032C271.096 106.613 270.211 105.904 268.44 105.904C268.056 105.904 267.662 105.931 267.256 105.984C267.171 106.005 267.128 106.059 267.128 106.144ZM265.816 116C265.571 116 265.358 115.909 265.176 115.728C265.006 115.547 264.92 115.333 264.92 115.088V105.312C264.92 105.056 265.006 104.827 265.176 104.624C265.347 104.421 265.56 104.309 265.816 104.288C266.723 104.203 267.598 104.16 268.44 104.16C270.04 104.16 271.24 104.48 272.04 105.12C272.84 105.749 273.24 106.667 273.24 107.872C273.24 109.205 272.851 110.213 272.072 110.896C271.304 111.579 270.163 111.92 268.648 111.92C268.296 111.92 267.832 111.899 267.256 111.856C267.171 111.856 267.128 111.899 267.128 111.984V115.088C267.128 115.333 267.038 115.547 266.856 115.728C266.675 115.909 266.462 116 266.216 116H265.816Z" fill="#EBEBEB"/>
<path d="M274.67 191.78L278.9 202L274.67 203.75L270.42 193.46L263.43 198.88V170.09L283.59 190.45L274.67 191.78Z" fill="#263238"/>
<path d="M263.43 167C263.253 166.537 263.165 166.045 263.17 165.55C263.159 165.054 263.247 164.561 263.43 164.1C263.61 164.562 263.695 165.055 263.68 165.55C263.689 166.045 263.604 166.537 263.43 167V167Z" fill="#263238"/>
<path d="M260.93 168C260.482 167.796 260.075 167.511 259.73 167.16C259.37 166.819 259.084 166.407 258.89 165.95C259.341 166.153 259.748 166.442 260.09 166.8C260.45 167.137 260.736 167.546 260.93 168V168Z" fill="#263238"/>
<path d="M259.9 170.47C258.968 170.816 257.942 170.816 257.01 170.47C257.944 170.137 258.966 170.137 259.9 170.47V170.47Z" fill="#263238"/>
<path d="M260.93 173C260.736 173.454 260.45 173.863 260.09 174.2C259.748 174.558 259.341 174.847 258.89 175.05C259.084 174.593 259.37 174.181 259.73 173.84C260.075 173.489 260.482 173.204 260.93 173Z" fill="#263238"/>
<path d="M267 170.47C267.938 170.137 268.962 170.137 269.9 170.47C268.964 170.817 267.936 170.817 267 170.47V170.47Z" fill="#263238"/>
<path d="M265.92 168C266.121 167.55 266.406 167.143 266.76 166.8C267.103 166.44 267.515 166.151 267.97 165.95C267.546 166.839 266.819 167.548 265.92 167.95V168Z" fill="#263238"/>
<path d="M110.22 193.41H54.43V218.48H110.22V193.41Z" fill="#455A64"/>
<path d="M63.496 207.072C62.216 206.645 61.288 206.128 60.712 205.52C60.1467 204.912 59.864 204.176 59.864 203.312C59.864 202.341 60.1893 201.573 60.84 201.008C61.4907 200.443 62.4027 200.16 63.576 200.16C64.568 200.16 65.432 200.272 66.168 200.496C66.424 200.571 66.6267 200.725 66.776 200.96C66.936 201.184 67.016 201.435 67.016 201.712V201.856C67.016 202.059 66.9253 202.219 66.744 202.336C66.5627 202.443 66.376 202.459 66.184 202.384C65.384 202.075 64.568 201.92 63.736 201.92C63.2027 201.92 62.7973 202.043 62.52 202.288C62.2427 202.533 62.104 202.875 62.104 203.312C62.104 204.08 62.6053 204.629 63.608 204.96C65.048 205.419 66.0453 205.941 66.6 206.528C67.1653 207.115 67.448 207.872 67.448 208.8C67.448 211.04 66.0667 212.16 63.304 212.16C62.44 212.16 61.656 212.027 60.952 211.76C60.696 211.664 60.4933 211.499 60.344 211.264C60.2053 211.029 60.136 210.768 60.136 210.48V210.288C60.136 210.085 60.2213 209.941 60.392 209.856C60.5627 209.76 60.7387 209.755 60.92 209.84C61.624 210.192 62.3653 210.368 63.144 210.368C64.4987 210.368 65.176 209.856 65.176 208.832C65.176 208.416 65.048 208.075 64.792 207.808C64.536 207.531 64.104 207.285 63.496 207.072ZM77.0683 206.16C77.0683 203.387 76.0549 202 74.0283 202C72.0016 202 70.9883 203.387 70.9883 206.16C70.9883 208.933 72.0016 210.32 74.0283 210.32C76.0549 210.32 77.0683 208.933 77.0683 206.16ZM77.9163 210.576C76.9669 211.632 75.6709 212.16 74.0283 212.16C72.3856 212.16 71.0843 211.632 70.1243 210.576C69.1749 209.52 68.7003 208.048 68.7003 206.16C68.7003 204.272 69.1749 202.8 70.1243 201.744C71.0843 200.688 72.3856 200.16 74.0283 200.16C75.6709 200.16 76.9669 200.688 77.9163 201.744C78.8763 202.8 79.3563 204.272 79.3563 206.16C79.3563 208.048 78.8763 209.52 77.9163 210.576ZM82.0663 212C81.8209 212 81.6076 211.909 81.4263 211.728C81.2556 211.547 81.1703 211.333 81.1703 211.088V201.232C81.1703 200.987 81.2556 200.773 81.4263 200.592C81.6076 200.411 81.8209 200.32 82.0663 200.32H82.5783C82.8236 200.32 83.0369 200.411 83.2183 200.592C83.3996 200.773 83.4903 200.987 83.4903 201.232V210C83.4903 210.096 83.5329 210.144 83.6183 210.144H87.7303C87.9756 210.144 88.1836 210.235 88.3542 210.416C88.5356 210.587 88.6263 210.795 88.6263 211.04V211.088C88.6263 211.333 88.5356 211.547 88.3542 211.728C88.1836 211.909 87.9756 212 87.7303 212H82.0663ZM91.9804 212C91.735 212 91.5217 211.909 91.3404 211.728C91.159 211.547 91.0684 211.333 91.0684 211.088V201.232C91.0684 200.987 91.159 200.773 91.3404 200.592C91.5217 200.411 91.735 200.32 91.9804 200.32H92.6204C92.8657 200.32 93.079 200.411 93.2604 200.592C93.4417 200.773 93.5324 200.987 93.5324 201.232V211.088C93.5324 211.333 93.4417 211.547 93.2604 211.728C93.079 211.909 92.8657 212 92.6204 212H91.9804ZM98.5974 202.176V210.144C98.5974 210.219 98.64 210.267 98.7254 210.288C99.0667 210.341 99.3867 210.368 99.6854 210.368C100.933 210.368 101.851 210.032 102.437 209.36C103.024 208.677 103.317 207.557 103.317 206C103.317 204.603 103.019 203.579 102.421 202.928C101.824 202.277 100.912 201.952 99.6854 201.952C99.3867 201.952 99.0667 201.979 98.7254 202.032C98.64 202.053 98.5974 202.101 98.5974 202.176ZM97.2854 212.048C97.0187 212.016 96.8 211.904 96.6294 211.712C96.4587 211.509 96.3734 211.275 96.3734 211.008V201.312C96.3734 201.045 96.4587 200.816 96.6294 200.624C96.8 200.421 97.0187 200.304 97.2854 200.272C97.968 200.197 98.7307 200.16 99.5734 200.16C101.472 200.16 102.923 200.656 103.925 201.648C104.939 202.64 105.445 204.091 105.445 206C105.445 208.048 104.939 209.589 103.925 210.624C102.923 211.648 101.472 212.16 99.5734 212.16C98.7307 212.16 97.968 212.123 97.2854 212.048Z" fill="#EBEBEB"/>
<path d="M339.37 290.42C331.66 324 316.05 366.51 304 375.09C294.28 382.01 243.25 394.19 240.41 394.5C233.36 395.21 219.41 345.45 226.75 343.43C235.96 340.88 279.68 339.52 282.17 336.97C284.66 334.42 300.66 312.75 318.68 287.78C331.1 270.53 344.15 269.59 339.37 290.42Z" fill="#DD6A57"/>
<path d="M246.05 391.77C245.21 392.19 233.3 398.18 225.93 400.32C220.44 401.91 204.49 406.07 202.14 400.2C200.53 396.2 209.61 392.64 215.98 389.98C219.34 388.59 223.48 385.07 222.49 382.92C220.76 379.14 212.12 382.92 206.44 386.23C195.44 392.62 180.81 404.11 174.1 398.53C171.57 396.43 174.51 392.59 178.82 388.83C171.82 393.21 164.37 396.83 161.46 394.58C159.8 393.31 159.72 391.58 160.65 389.58C158.49 390.28 156.58 390.14 155.25 388.74C152.98 386.36 154.08 382.85 156.57 379.25C156.143 379.203 155.734 379.055 155.376 378.818C155.018 378.582 154.721 378.264 154.51 377.89C149.69 370.55 173.78 349.48 182.12 347.51C206.63 341.68 232.7 343.81 232.7 343.81C242.33 351.5 246.07 391.75 246.05 391.77Z" fill="#DD6A57"/>
<path d="M210 369.2C204.164 370.109 198.59 372.253 193.65 375.49C187.43 379.6 183.31 384.4 178.1 389.23C178.081 389.257 178.072 389.29 178.073 389.324C178.075 389.357 178.088 389.389 178.11 389.414C178.131 389.439 178.161 389.456 178.194 389.463C178.226 389.469 178.26 389.465 178.29 389.45C180.77 387.15 191.07 378.51 193.73 376.55C198.532 372.928 204.096 370.449 210 369.3C210.09 369.29 210.07 369.19 210 369.2Z" fill="#263238"/>
<path d="M205.44 358.8C199 360.56 192.44 362.34 186.44 365.39C179.89 368.72 174.77 374.16 169.74 379.39C166.713 382.53 163.76 385.74 160.88 389.02C160.76 389.15 160.94 389.37 161.07 389.23C166.177 383.83 171.447 378.583 176.88 373.49C181.888 368.738 187.784 365.021 194.23 362.55C197.92 361.15 201.7 360.03 205.48 358.91C205.53 358.89 205.51 358.78 205.44 358.8Z" fill="#263238"/>
<path d="M198.56 349.7C192.3 350.99 186.84 352.09 181.29 355.44C173.96 359.88 166.87 367.36 164.39 370.02C161.64 372.95 159 376.02 156.39 379.02C156.28 379.14 156.5 379.33 156.61 379.2C162.561 372.494 168.938 366.177 175.7 360.29C178.882 357.442 182.484 355.101 186.38 353.35C190.328 351.797 194.403 350.589 198.56 349.74C198.56 349.74 198.58 349.7 198.56 349.7Z" fill="#263238"/>
<path d="M282.54 332.07L329.54 330.07C329.54 330.07 338.08 306.76 341.22 286.07C344.36 265.38 326.73 272.8 309.28 295.07C291.83 317.34 282.54 332.07 282.54 332.07Z" fill="#C53F3F"/>
<path d="M297.93 318C298.25 317.91 298.57 317.88 298.93 317.81C299.209 317.749 299.497 317.751 299.775 317.816C300.053 317.881 300.312 318.007 300.535 318.185C300.757 318.364 300.937 318.59 301.061 318.847C301.185 319.103 301.249 319.385 301.25 319.67C301.244 319.926 301.305 320.18 301.426 320.406C301.547 320.631 301.724 320.822 301.94 320.96C302.177 321.114 302.448 321.206 302.73 321.23C303.05 321.29 303.37 321.33 303.73 321.42C303.41 321.51 303.09 321.55 302.73 321.62C302.37 321.692 301.997 321.654 301.66 321.51C301.305 321.355 301.003 321.101 300.79 320.778C300.577 320.455 300.463 320.077 300.46 319.69C300.457 319.436 300.389 319.187 300.261 318.968C300.133 318.749 299.95 318.567 299.73 318.44C299.487 318.297 299.212 318.214 298.93 318.2C298.57 318.14 298.25 318.1 297.93 318ZM331 289.44C331.285 289.461 331.562 289.546 331.81 289.69C332.029 289.818 332.21 290.001 332.338 290.22C332.466 290.439 332.536 290.687 332.54 290.94C332.543 291.327 332.657 291.705 332.87 292.028C333.083 292.351 333.385 292.605 333.74 292.76C334.078 292.901 334.451 292.936 334.81 292.86C335.13 292.8 335.45 292.76 335.81 292.67C335.49 292.58 335.17 292.54 334.81 292.48C334.528 292.458 334.256 292.365 334.02 292.21C333.806 292.07 333.63 291.879 333.51 291.653C333.389 291.428 333.327 291.176 333.33 290.92C333.317 290.531 333.19 290.155 332.967 289.837C332.743 289.519 332.431 289.274 332.07 289.13C331.726 289.01 331.356 288.986 331 289.06C330.68 289.12 330.36 289.16 330.05 289.25C330.37 289.34 330.69 289.38 331 289.44ZM332.2 307.77C331.984 307.957 331.727 308.091 331.45 308.16C331.207 308.226 330.951 308.227 330.707 308.164C330.464 308.101 330.24 307.976 330.06 307.8C329.785 307.525 329.437 307.337 329.057 307.257C328.677 307.177 328.282 307.209 327.92 307.35C327.582 307.495 327.294 307.735 327.09 308.04C326.91 308.31 326.71 308.56 326.55 308.85C326.84 308.69 327.09 308.49 327.36 308.31C327.579 308.132 327.835 308.005 328.11 307.94C328.361 307.887 328.621 307.899 328.866 307.974C329.111 308.049 329.332 308.185 329.51 308.37C329.714 308.577 329.962 308.736 330.235 308.833C330.509 308.931 330.801 308.965 331.09 308.934C331.379 308.902 331.657 308.805 331.903 308.65C332.149 308.495 332.356 308.287 332.51 308.04C332.69 307.77 332.89 307.51 333.05 307.22C332.73 307.39 332.48 307.59 332.21 307.77H332.2ZM319.42 286.39C319.202 286.576 318.946 286.712 318.67 286.79C318.424 286.852 318.167 286.85 317.922 286.785C317.678 286.72 317.453 286.595 317.27 286.42L317.02 286.2C316.83 286.39 316.65 286.58 316.47 286.78C316.566 286.838 316.653 286.909 316.73 286.99C317.014 287.257 317.37 287.435 317.753 287.502C318.137 287.57 318.532 287.524 318.89 287.37C319.219 287.214 319.496 286.968 319.69 286.66C319.87 286.39 320.07 286.14 320.23 285.85C320 286 319.7 286.21 319.43 286.39H319.42ZM314.11 304C314.091 304.284 314.009 304.561 313.87 304.81C313.74 305.027 313.557 305.208 313.339 305.336C313.12 305.463 312.873 305.534 312.62 305.54C312.231 305.541 311.851 305.654 311.526 305.868C311.201 306.081 310.945 306.384 310.79 306.74C310.655 307.076 310.62 307.444 310.69 307.8C310.76 308.12 310.79 308.44 310.88 308.8C310.97 308.48 311.01 308.16 311.08 307.8C311.107 307.521 311.196 307.251 311.34 307.01C311.48 306.797 311.672 306.623 311.897 306.504C312.123 306.385 312.375 306.325 312.63 306.33C313.02 306.319 313.399 306.193 313.719 305.969C314.038 305.745 314.286 305.433 314.43 305.07C314.546 304.725 314.57 304.357 314.5 304C314.43 303.68 314.39 303.36 314.3 303C314.21 303.36 314.18 303.68 314.11 304ZM327.57 321.91C327.555 322.195 327.473 322.473 327.33 322.72C327.202 322.939 327.019 323.12 326.8 323.248C326.581 323.376 326.333 323.446 326.08 323.45C325.694 323.452 325.317 323.565 324.994 323.776C324.671 323.987 324.416 324.287 324.26 324.64C324.117 324.978 324.079 325.35 324.15 325.71C324.22 326.03 324.26 326.35 324.35 326.71C324.44 326.39 324.48 326.07 324.54 325.71C324.566 325.429 324.658 325.158 324.81 324.92C324.949 324.706 325.14 324.53 325.366 324.411C325.592 324.292 325.845 324.233 326.1 324.24C326.489 324.227 326.865 324.1 327.183 323.877C327.501 323.653 327.746 323.341 327.89 322.98C328.01 322.636 328.034 322.266 327.96 321.91C327.9 321.59 327.86 321.27 327.77 320.91C327.68 321.27 327.64 321.59 327.57 321.91Z" fill="white"/>
<path d="M331.17 319.87C321 319.61 310.8 320.06 300.63 320.71C297.75 320.903 294.877 321.157 292.01 321.47C291.93 321.47 291.92 321.6 292.01 321.6C297.09 321.6 302.17 321.43 307.25 321.28C312.33 321.13 317.45 320.92 322.54 320.63C325.42 320.46 328.29 320.29 331.16 320.06C331.29 320.05 331.3 319.87 331.17 319.87Z" fill="#263238"/>
<path d="M295.73 407.23H415.73C417.05 404.81 397.37 299.66 356.89 270.05C347.89 263.49 331.98 267.71 327.55 274.1C305.31 306.2 295.73 407.23 295.73 407.23Z" fill="#C53F3F"/>
<path d="M346.64 318C346.96 317.91 347.28 317.88 347.64 317.81C347.919 317.749 348.207 317.751 348.485 317.816C348.763 317.881 349.022 318.007 349.245 318.185C349.467 318.364 349.647 318.59 349.771 318.847C349.895 319.103 349.959 319.385 349.96 319.67C349.954 319.926 350.015 320.18 350.136 320.406C350.257 320.631 350.434 320.822 350.65 320.96C350.888 321.112 351.159 321.204 351.44 321.23C351.76 321.29 352.08 321.33 352.44 321.42C352.12 321.51 351.8 321.55 351.44 321.62C351.08 321.691 350.708 321.653 350.37 321.51C350.015 321.355 349.713 321.101 349.5 320.778C349.287 320.455 349.173 320.077 349.17 319.69C349.168 319.436 349.099 319.187 348.971 318.968C348.843 318.749 348.66 318.567 348.44 318.44C348.197 318.295 347.922 318.213 347.64 318.2C347.28 318.14 347 318.1 346.64 318ZM365.29 381.47C365.572 381.491 365.846 381.576 366.09 381.72C366.309 381.845 366.492 382.026 366.62 382.243C366.748 382.461 366.817 382.708 366.82 382.96C366.821 383.349 366.934 383.729 367.148 384.054C367.361 384.379 367.664 384.635 368.02 384.79C368.36 384.926 368.731 384.96 369.09 384.89C369.41 384.83 369.73 384.79 370.09 384.7C369.77 384.61 369.45 384.57 369.09 384.5C368.809 384.482 368.537 384.393 368.3 384.24C368.086 384.1 367.91 383.909 367.79 383.683C367.669 383.458 367.607 383.206 367.61 382.95C367.605 382.559 367.481 382.18 367.257 381.86C367.032 381.541 366.716 381.297 366.35 381.16C366.011 381.034 365.643 381.01 365.29 381.09C364.97 381.15 364.65 381.19 364.29 381.28C364.65 381.38 365 381.42 365.29 381.48V381.47ZM387.29 321.62C387.572 321.634 387.847 321.717 388.09 321.86C388.31 321.987 388.493 322.169 388.621 322.388C388.749 322.607 388.817 322.856 388.82 323.11C388.823 323.497 388.937 323.875 389.15 324.198C389.363 324.521 389.665 324.775 390.02 324.93C390.357 325.074 390.73 325.112 391.09 325.04C391.41 324.97 391.73 324.93 392.09 324.84C391.77 324.75 391.45 324.71 391.09 324.65C390.808 324.626 390.537 324.534 390.3 324.38C390.084 324.242 389.907 324.051 389.786 323.825C389.665 323.6 389.604 323.346 389.61 323.09C389.609 322.805 389.545 322.523 389.421 322.267C389.297 322.01 389.117 321.784 388.895 321.605C388.672 321.427 388.413 321.301 388.135 321.236C387.857 321.171 387.569 321.169 387.29 321.23C386.97 321.3 386.65 321.33 386.29 321.42C386.67 321.52 387 321.56 387.31 321.63L387.29 321.62ZM331 289.44C331.285 289.461 331.562 289.546 331.81 289.69C332.029 289.818 332.21 290.001 332.338 290.22C332.466 290.439 332.536 290.687 332.54 290.94C332.543 291.327 332.657 291.705 332.87 292.028C333.083 292.351 333.385 292.605 333.74 292.76C334.078 292.901 334.451 292.936 334.81 292.86C335.13 292.8 335.45 292.76 335.81 292.67C335.49 292.58 335.17 292.54 334.81 292.48C334.528 292.458 334.256 292.365 334.02 292.21C333.806 292.07 333.63 291.879 333.51 291.653C333.389 291.428 333.327 291.176 333.33 290.92C333.317 290.531 333.19 290.155 332.967 289.837C332.743 289.519 332.431 289.274 332.07 289.13C331.726 289.01 331.356 288.985 331 289.06C330.68 289.12 330.36 289.16 330.05 289.25C330.37 289.34 330.69 289.38 331 289.44ZM365.65 288.72C365.934 288.739 366.211 288.821 366.46 288.96C366.677 289.09 366.858 289.273 366.986 289.491C367.113 289.71 367.184 289.957 367.19 290.21C367.191 290.599 367.304 290.979 367.518 291.304C367.731 291.629 368.034 291.885 368.39 292.04C368.73 292.176 369.101 292.21 369.46 292.14C369.77 292.07 370.09 292.03 370.41 291.95C370.09 291.86 369.77 291.82 369.46 291.75C369.177 291.725 368.904 291.636 368.66 291.49C368.447 291.35 368.273 291.158 368.154 290.933C368.035 290.707 367.975 290.455 367.98 290.2C367.969 289.81 367.843 289.431 367.619 289.111C367.395 288.792 367.083 288.544 366.72 288.4C366.376 288.28 366.006 288.255 365.65 288.33C365.33 288.4 365.01 288.44 364.65 288.53C365 288.61 365.34 288.65 365.66 288.72H365.65ZM322.5 344.72C322.784 344.739 323.061 344.821 323.31 344.96C323.526 345.09 323.705 345.273 323.831 345.492C323.957 345.711 324.026 345.958 324.03 346.21C324.031 346.599 324.144 346.979 324.358 347.304C324.571 347.629 324.874 347.885 325.23 348.04C325.57 348.176 325.941 348.21 326.3 348.14C326.62 348.08 326.94 348.04 327.3 347.95C326.98 347.86 326.66 347.82 326.3 347.75C326.02 347.728 325.749 347.639 325.51 347.49C325.296 347.35 325.12 347.159 325 346.933C324.879 346.708 324.817 346.456 324.82 346.2C324.816 345.809 324.693 345.429 324.468 345.109C324.243 344.789 323.927 344.546 323.56 344.41C323.221 344.284 322.853 344.259 322.5 344.34C322.18 344.4 321.86 344.44 321.5 344.53C321.87 344.58 322.19 344.62 322.51 344.68L322.5 344.72ZM360.28 402.72C360.565 402.738 360.842 402.82 361.09 402.96C361.307 403.09 361.488 403.273 361.616 403.491C361.743 403.71 361.814 403.957 361.82 404.21C361.827 404.59 361.941 404.959 362.15 405.276C362.359 405.593 362.654 405.844 363 406C363.34 406.136 363.711 406.17 364.07 406.1C364.39 406.03 364.71 405.99 365.07 405.9C364.75 405.81 364.43 405.78 364.07 405.71C363.788 405.688 363.516 405.595 363.28 405.44C363.065 405.303 362.889 405.114 362.768 404.89C362.647 404.666 362.586 404.415 362.59 404.16C362.589 403.874 362.524 403.591 362.4 403.333C362.276 403.075 362.095 402.848 361.872 402.668C361.648 402.489 361.388 402.362 361.109 402.296C360.83 402.231 360.54 402.229 360.26 402.29C359.94 402.36 359.63 402.4 359.26 402.49C359.66 402.55 360 402.59 360.29 402.66L360.28 402.72ZM341.68 371.57C341.965 371.585 342.243 371.667 342.49 371.81C342.709 371.937 342.89 372.12 343.016 372.339C343.143 372.558 343.209 372.807 343.21 373.06C343.213 373.447 343.327 373.825 343.54 374.148C343.753 374.471 344.055 374.725 344.41 374.88C344.748 375.023 345.12 375.061 345.48 374.99C345.8 374.92 346.12 374.88 346.48 374.79C346.16 374.7 345.84 374.66 345.48 374.6C345.199 374.574 344.928 374.482 344.69 374.33C344.466 374.191 344.283 373.994 344.161 373.76C344.04 373.526 343.984 373.263 344 373C343.998 372.714 343.932 372.433 343.807 372.176C343.682 371.919 343.501 371.693 343.278 371.515C343.055 371.337 342.794 371.211 342.516 371.146C342.238 371.081 341.949 371.079 341.67 371.14C341.35 371.2 341.03 371.24 340.67 371.33C341.05 371.4 341.37 371.44 341.69 371.51L341.68 371.57ZM299.08 403.5C298.799 403.474 298.528 403.382 298.29 403.23C298.074 403.093 297.897 402.902 297.777 402.676C297.658 402.45 297.6 402.196 297.61 401.94C297.596 401.575 297.482 401.221 297.281 400.916C297.08 400.611 296.8 400.367 296.47 400.21C296.47 400.47 296.41 400.71 296.39 400.95C296.524 401.08 296.63 401.235 296.702 401.407C296.775 401.579 296.811 401.764 296.81 401.95C296.813 402.337 296.927 402.715 297.14 403.038C297.353 403.361 297.655 403.615 298.01 403.77C298.348 403.913 298.72 403.951 299.08 403.88C299.4 403.81 299.72 403.77 300.08 403.68C299.73 403.54 299.41 403.5 299.09 403.44L299.08 403.5ZM307.26 377.23C307.545 377.245 307.823 377.327 308.07 377.47C308.289 377.598 308.47 377.781 308.598 378C308.726 378.219 308.796 378.467 308.8 378.72C308.803 379.107 308.917 379.485 309.13 379.808C309.343 380.131 309.645 380.385 310 380.54C310.337 380.684 310.71 380.722 311.07 380.65C311.39 380.58 311.7 380.54 312.02 380.45C311.7 380.36 311.39 380.32 311.07 380.26C310.788 380.238 310.516 380.145 310.28 379.99C310.062 379.854 309.884 379.663 309.763 379.437C309.642 379.211 309.582 378.957 309.59 378.7C309.577 378.311 309.45 377.935 309.227 377.617C309.003 377.299 308.691 377.054 308.33 376.91C307.986 376.79 307.616 376.765 307.26 376.84C306.94 376.91 306.62 376.94 306.26 377.03C306.63 377.06 307 377.1 307.27 377.17L307.26 377.23ZM357.52 345.5C357.805 345.522 358.082 345.608 358.33 345.75C358.549 345.878 358.73 346.061 358.858 346.28C358.986 346.499 359.056 346.747 359.06 347C359.063 347.387 359.177 347.765 359.39 348.088C359.603 348.411 359.905 348.665 360.26 348.82C360.595 348.96 360.965 348.995 361.32 348.92C361.64 348.86 361.96 348.82 362.32 348.73C362 348.64 361.68 348.6 361.32 348.54C361.039 348.514 360.768 348.422 360.53 348.27C360.317 348.13 360.143 347.938 360.024 347.713C359.905 347.487 359.845 347.235 359.85 346.98C359.837 346.591 359.71 346.215 359.487 345.897C359.263 345.579 358.951 345.334 358.59 345.19C358.246 345.07 357.876 345.045 357.52 345.12C357.2 345.18 356.88 345.22 356.52 345.31C356.89 345.34 357.21 345.38 357.53 345.44L357.52 345.5ZM401.52 388.16C401.801 388.179 402.075 388.261 402.32 388.4C402.539 388.528 402.72 388.711 402.848 388.93C402.976 389.149 403.046 389.397 403.05 389.65C403.051 390.039 403.164 390.419 403.378 390.744C403.591 391.069 403.894 391.325 404.25 391.48C404.59 391.616 404.961 391.65 405.32 391.58C405.64 391.51 405.96 391.47 406.32 391.38C406 391.29 405.68 391.26 405.32 391.19C405.038 391.166 404.767 391.074 404.53 390.92C404.315 390.783 404.139 390.594 404.018 390.37C403.897 390.146 403.836 389.895 403.84 389.64C403.841 389.354 403.777 389.071 403.654 388.813C403.531 388.555 403.351 388.328 403.129 388.148C402.906 387.969 402.646 387.842 402.367 387.776C402.089 387.711 401.799 387.709 401.52 387.77C401.2 387.84 400.88 387.88 400.52 387.97C400.91 388 401.23 388 401.55 388.1L401.52 388.16ZM384.04 362.16C384.325 362.178 384.602 362.26 384.85 362.4C385.067 362.53 385.248 362.713 385.376 362.931C385.503 363.15 385.574 363.397 385.58 363.65C385.581 364.039 385.694 364.419 385.908 364.744C386.121 365.069 386.424 365.325 386.78 365.48C387.12 365.616 387.491 365.65 387.85 365.58C388.17 365.51 388.49 365.48 388.85 365.39C388.53 365.3 388.21 365.26 387.85 365.19C387.569 365.171 387.297 365.081 387.06 364.93C386.846 364.79 386.67 364.599 386.55 364.373C386.429 364.148 386.367 363.896 386.37 363.64C386.357 363.251 386.23 362.875 386.007 362.557C385.783 362.239 385.471 361.994 385.11 361.85C384.767 361.726 384.397 361.699 384.04 361.77C383.72 361.84 383.41 361.88 383.09 361.97C383.44 362 383.75 362 384.07 362.06L384.04 362.16ZM332.18 307.87C331.964 308.057 331.707 308.191 331.43 308.26C331.187 308.326 330.931 308.327 330.687 308.264C330.444 308.201 330.221 308.076 330.04 307.9C329.766 307.625 329.417 307.437 329.037 307.357C328.657 307.277 328.262 307.309 327.9 307.45C327.562 307.595 327.274 307.835 327.07 308.14C326.89 308.41 326.69 308.66 326.53 308.95C326.82 308.79 327.07 308.59 327.34 308.41C327.559 308.232 327.815 308.105 328.09 308.04C328.341 307.987 328.601 307.999 328.846 308.074C329.091 308.149 329.312 308.285 329.49 308.47C329.694 308.677 329.942 308.836 330.215 308.933C330.489 309.031 330.781 309.065 331.07 309.034C331.359 309.002 331.637 308.905 331.883 308.75C332.129 308.595 332.336 308.387 332.49 308.14C332.67 307.87 332.87 307.61 333.03 307.32C332.73 307.39 332.48 307.59 332.21 307.77L332.18 307.87ZM383.92 345C383.707 345.188 383.454 345.325 383.18 345.4C382.934 345.461 382.677 345.46 382.432 345.395C382.188 345.33 381.963 345.205 381.78 345.03C381.505 344.759 381.158 344.573 380.78 344.495C380.402 344.417 380.01 344.45 379.65 344.59C379.313 344.731 379.025 344.967 378.82 345.27C378.64 345.54 378.44 345.79 378.28 346.08C378.57 345.92 378.82 345.72 379.09 345.54C379.308 345.36 379.565 345.233 379.84 345.17C380.089 345.117 380.348 345.129 380.591 345.204C380.834 345.279 381.054 345.415 381.23 345.6C381.434 345.806 381.683 345.962 381.956 346.059C382.23 346.155 382.521 346.189 382.809 346.157C383.098 346.126 383.375 346.029 383.621 345.876C383.867 345.722 384.075 345.515 384.23 345.27C384.41 345 384.61 344.75 384.77 344.46C384.45 344.6 384.2 344.8 383.92 345ZM351.65 275.71C351.437 275.898 351.184 276.035 350.91 276.11C350.665 276.176 350.406 276.177 350.16 276.112C349.915 276.047 349.69 275.919 349.51 275.74C349.234 275.467 348.885 275.28 348.505 275.202C348.125 275.124 347.731 275.158 347.37 275.3C347.033 275.441 346.745 275.678 346.54 275.98C346.36 276.26 346.16 276.51 346 276.8C346.29 276.64 346.55 276.44 346.82 276.26C347.034 276.08 347.288 275.954 347.56 275.89C347.81 275.837 348.069 275.847 348.314 275.921C348.559 275.994 348.781 276.128 348.96 276.31C349.162 276.52 349.409 276.68 349.683 276.78C349.956 276.879 350.249 276.915 350.538 276.884C350.828 276.853 351.106 276.757 351.353 276.602C351.599 276.447 351.807 276.238 351.96 275.99C352.14 275.71 352.34 275.46 352.5 275.17C352.18 275.32 351.92 275.51 351.65 275.69V275.71ZM351 296.22C350.978 296.502 350.892 296.775 350.75 297.02C350.623 297.24 350.441 297.423 350.222 297.551C350.003 297.679 349.754 297.747 349.5 297.75C349.113 297.753 348.735 297.867 348.412 298.08C348.089 298.293 347.835 298.595 347.68 298.95C347.541 299.289 347.503 299.66 347.57 300.02C347.64 300.34 347.68 300.66 347.77 301.02C347.86 300.7 347.9 300.38 347.96 300.02C347.984 299.738 348.076 299.467 348.23 299.23C348.37 299.016 348.561 298.84 348.787 298.72C349.012 298.599 349.264 298.537 349.52 298.54C349.805 298.539 350.087 298.475 350.343 298.351C350.6 298.227 350.826 298.047 351.005 297.825C351.183 297.602 351.309 297.343 351.374 297.065C351.439 296.787 351.441 296.499 351.38 296.22C351.32 295.9 351.28 295.58 351.19 295.22C351.12 295.58 351.08 295.9 351 296.22ZM343.38 352.44C343.359 352.725 343.274 353.002 343.13 353.25C343.002 353.469 342.819 353.65 342.6 353.778C342.381 353.906 342.133 353.976 341.88 353.98C341.493 353.983 341.115 354.097 340.792 354.31C340.469 354.523 340.215 354.825 340.06 355.18C339.924 355.52 339.89 355.891 339.96 356.25C340.02 356.57 340.06 356.89 340.15 357.25C340.24 356.93 340.28 356.61 340.35 356.25C340.365 355.968 340.454 355.695 340.61 355.46C340.75 355.246 340.941 355.07 341.167 354.95C341.392 354.829 341.644 354.767 341.9 354.77C342.289 354.757 342.665 354.63 342.983 354.407C343.301 354.183 343.546 353.871 343.69 353.51C343.816 353.168 343.84 352.796 343.76 352.44C343.7 352.13 343.66 351.81 343.57 351.49C343.5 351.81 343.46 352.13 343.4 352.44H343.38ZM383.28 303.44H383.12C382.731 303.441 382.351 303.554 382.026 303.768C381.701 303.981 381.445 304.284 381.29 304.64C381.154 304.98 381.12 305.351 381.19 305.71C381.25 306.03 381.29 306.35 381.38 306.71C381.47 306.39 381.51 306.07 381.58 305.71C381.601 305.429 381.69 305.158 381.84 304.92C381.98 304.706 382.171 304.53 382.397 304.41C382.622 304.289 382.874 304.227 383.13 304.23C383.307 304.23 383.483 304.2 383.65 304.14L383.28 303.44ZM383 394.28C382.985 394.565 382.903 394.843 382.76 395.09C382.632 395.309 382.449 395.49 382.23 395.618C382.011 395.746 381.763 395.816 381.51 395.82C381.123 395.823 380.745 395.937 380.422 396.15C380.099 396.363 379.845 396.665 379.69 397.02C379.551 397.359 379.513 397.73 379.58 398.09C379.65 398.41 379.69 398.73 379.78 399.09C379.87 398.78 379.91 398.46 379.97 398.09C379.992 397.808 380.085 397.536 380.24 397.3C380.376 397.082 380.567 396.904 380.793 396.783C381.019 396.662 381.273 396.602 381.53 396.61C381.919 396.597 382.295 396.47 382.613 396.247C382.931 396.023 383.176 395.711 383.32 395.35C383.44 395.006 383.465 394.636 383.39 394.28C383.33 393.96 383.29 393.64 383.2 393.28C383.13 393.64 383.09 394 383 394.28ZM400.17 343.28C400.174 343.307 400.174 343.333 400.17 343.36C400.043 343.58 399.861 343.763 399.642 343.891C399.423 344.019 399.174 344.087 398.92 344.09C398.533 344.093 398.155 344.207 397.832 344.42C397.509 344.633 397.255 344.935 397.1 345.29C396.957 345.628 396.919 346 396.99 346.36C397.06 346.68 397.1 347 397.19 347.36C397.28 347.04 397.32 346.72 397.38 346.36C397.406 346.079 397.498 345.808 397.65 345.57C397.788 345.354 397.979 345.177 398.204 345.056C398.43 344.935 398.684 344.874 398.94 344.88C399.239 344.872 399.533 344.797 399.8 344.66C400.066 344.523 400.299 344.329 400.48 344.09L400.17 343.28ZM312.4 354.46C312.382 354.742 312.3 355.015 312.16 355.26C312.032 355.479 311.849 355.66 311.63 355.788C311.411 355.916 311.163 355.986 310.91 355.99C310.521 355.991 310.141 356.104 309.816 356.317C309.491 356.531 309.235 356.834 309.08 357.19C308.944 357.53 308.91 357.901 308.98 358.26C309.05 358.58 309.08 358.9 309.17 359.26C309.26 358.94 309.3 358.62 309.37 358.26C309.395 357.98 309.484 357.71 309.63 357.47C309.77 357.256 309.961 357.08 310.187 356.96C310.412 356.839 310.664 356.777 310.92 356.78C311.31 356.769 311.689 356.643 312.009 356.419C312.328 356.195 312.576 355.883 312.72 355.52C312.836 355.179 312.86 354.813 312.79 354.46C312.72 354.14 312.68 353.82 312.59 353.46C312.5 353.82 312.47 354.14 312.4 354.46ZM314.51 304.07L314 305.74C314.191 305.551 314.338 305.322 314.43 305.07C314.541 304.749 314.569 304.405 314.51 304.07V304.07ZM332.51 271.2C332.489 271.485 332.404 271.762 332.26 272.01C332.132 272.229 331.949 272.41 331.73 272.538C331.511 272.666 331.263 272.736 331.01 272.74C330.623 272.743 330.245 272.857 329.922 273.07C329.599 273.283 329.345 273.585 329.19 273.94C329.051 274.279 329.013 274.65 329.08 275.01C329.15 275.33 329.19 275.65 329.28 276.01C329.37 275.69 329.41 275.37 329.47 275.01C329.492 274.728 329.585 274.456 329.74 274.22C329.88 274.006 330.071 273.83 330.297 273.71C330.522 273.589 330.774 273.527 331.03 273.53C331.419 273.517 331.795 273.39 332.113 273.167C332.431 272.943 332.676 272.631 332.82 272.27C332.94 271.926 332.965 271.556 332.89 271.2C332.83 270.89 332.79 270.57 332.7 270.25C332.62 270.57 332.58 270.89 332.52 271.2H332.51ZM327.56 321.91C327.545 322.195 327.463 322.473 327.32 322.72C327.192 322.939 327.009 323.12 326.79 323.248C326.571 323.376 326.323 323.446 326.07 323.45C325.684 323.452 325.307 323.565 324.984 323.776C324.661 323.987 324.406 324.287 324.25 324.64C324.107 324.978 324.069 325.35 324.14 325.71C324.21 326.03 324.25 326.35 324.34 326.71C324.43 326.39 324.47 326.07 324.53 325.71C324.556 325.429 324.648 325.158 324.8 324.92C324.939 324.706 325.13 324.53 325.356 324.411C325.582 324.292 325.835 324.233 326.09 324.24C326.479 324.227 326.855 324.1 327.173 323.877C327.491 323.653 327.736 323.341 327.88 322.98C328 322.636 328.025 322.266 327.95 321.91C327.89 321.59 327.85 321.27 327.76 320.91C327.68 321.27 327.64 321.59 327.57 321.91H327.56ZM371.93 328.73C371.912 329.012 371.83 329.285 371.69 329.53C371.562 329.749 371.379 329.93 371.16 330.058C370.941 330.186 370.693 330.256 370.44 330.26C370.051 330.261 369.671 330.374 369.346 330.587C369.021 330.801 368.765 331.104 368.61 331.46C368.474 331.8 368.44 332.171 368.51 332.53C368.58 332.85 368.61 333.17 368.7 333.53C368.79 333.21 368.83 332.89 368.9 332.53C368.927 332.251 369.016 331.981 369.16 331.74C369.3 331.526 369.491 331.35 369.717 331.23C369.942 331.109 370.194 331.047 370.45 331.05C370.84 331.039 371.219 330.913 371.539 330.689C371.858 330.465 372.106 330.153 372.25 329.79C372.366 329.449 372.39 329.083 372.32 328.73C372.25 328.41 372.21 328.09 372.12 327.73C372 328.09 372 328.41 371.94 328.73H371.93ZM330.93 385.67C330.909 385.952 330.824 386.226 330.68 386.47C330.553 386.69 330.371 386.873 330.152 387.001C329.933 387.129 329.684 387.197 329.43 387.2C329.043 387.203 328.665 387.317 328.342 387.53C328.019 387.743 327.765 388.045 327.61 388.4C327.47 388.738 327.435 389.111 327.51 389.47C327.57 389.79 327.61 390.11 327.7 390.47C327.79 390.15 327.83 389.83 327.89 389.47C327.916 389.189 328.008 388.918 328.16 388.68C328.3 388.466 328.491 388.29 328.717 388.17C328.942 388.049 329.194 387.987 329.45 387.99C329.735 387.989 330.017 387.925 330.273 387.801C330.53 387.677 330.756 387.497 330.935 387.275C331.113 387.052 331.239 386.793 331.304 386.515C331.369 386.237 331.371 385.949 331.31 385.67C331.25 385.35 331.21 385.03 331.12 384.67C331 385 331 385.35 330.94 385.67H330.93ZM365.34 311.13C365.553 310.942 365.806 310.805 366.08 310.73C366.326 310.669 366.583 310.67 366.828 310.735C367.072 310.8 367.297 310.925 367.48 311.1C367.754 311.373 368.1 311.56 368.478 311.64C368.856 311.72 369.249 311.689 369.61 311.55C369.948 311.405 370.236 311.165 370.44 310.86C370.62 310.59 370.82 310.34 370.98 310.05C370.69 310.21 370.44 310.41 370.17 310.59C369.952 310.77 369.695 310.897 369.42 310.96C369.171 311.013 368.912 311.001 368.669 310.926C368.426 310.851 368.206 310.715 368.03 310.53C367.826 310.324 367.577 310.168 367.304 310.071C367.03 309.975 366.739 309.941 366.451 309.973C366.162 310.004 365.885 310.101 365.639 310.254C365.393 310.408 365.185 310.615 365.03 310.86C364.85 311.13 364.65 311.38 364.49 311.67C364.82 311.51 365.07 311.31 365.35 311.13H365.34ZM339.45 334.57C339.666 334.383 339.923 334.249 340.2 334.18C340.445 334.114 340.702 334.113 340.947 334.176C341.193 334.239 341.417 334.364 341.6 334.54C341.874 334.813 342.22 335 342.598 335.08C342.976 335.16 343.369 335.129 343.73 334.99C344.068 334.845 344.356 334.605 344.56 334.3C344.74 334.03 344.94 333.78 345.1 333.49C344.81 333.65 344.56 333.85 344.29 334.03C344.072 334.21 343.815 334.337 343.54 334.4C343.289 334.452 343.03 334.44 342.785 334.365C342.54 334.29 342.318 334.154 342.14 333.97C341.936 333.763 341.688 333.604 341.415 333.507C341.141 333.409 340.849 333.375 340.56 333.406C340.271 333.438 339.993 333.535 339.747 333.69C339.501 333.845 339.294 334.053 339.14 334.3C338.96 334.57 338.76 334.83 338.6 335.12C338.94 335 339.19 334.75 339.46 334.57H339.45ZM321.92 369.11C322.136 368.926 322.388 368.789 322.66 368.71C322.906 368.648 323.163 368.65 323.408 368.715C323.652 368.78 323.877 368.905 324.06 369.08C324.336 369.353 324.685 369.54 325.065 369.618C325.445 369.696 325.839 369.662 326.2 369.52C326.537 369.379 326.825 369.142 327.03 368.84C327.21 368.57 327.41 368.31 327.57 368.02C327.28 368.19 327.03 368.38 326.75 368.56C326.541 368.747 326.285 368.875 326.01 368.93C325.76 368.987 325.5 368.978 325.255 368.905C325.009 368.831 324.787 368.695 324.61 368.51C324.326 368.243 323.97 368.065 323.587 367.998C323.203 367.93 322.808 367.976 322.45 368.13C322.121 368.286 321.844 368.532 321.65 368.84C321.47 369.11 321.27 369.36 321.11 369.65C321.41 369.49 321.66 369.29 321.93 369.11H321.92ZM329.51 405C329.723 404.815 329.977 404.681 330.25 404.61C330.495 404.544 330.752 404.543 330.997 404.606C331.243 404.669 331.467 404.794 331.65 404.97C331.925 405.245 332.273 405.433 332.653 405.513C333.033 405.593 333.428 405.561 333.79 405.42C334.128 405.275 334.416 405.035 334.62 404.73C334.8 404.46 335 404.21 335.16 403.92C334.87 404.08 334.62 404.28 334.34 404.46C334.126 404.64 333.872 404.766 333.6 404.83C333.349 404.884 333.089 404.873 332.844 404.797C332.599 404.722 332.377 404.585 332.2 404.4C331.996 404.193 331.748 404.034 331.475 403.937C331.201 403.839 330.909 403.805 330.62 403.836C330.331 403.868 330.053 403.965 329.807 404.12C329.561 404.275 329.354 404.483 329.2 404.73C329.02 405 328.82 405.26 328.66 405.54C329 405.37 329.24 405.17 329.51 405ZM363.44 365.57C363.653 365.382 363.906 365.245 364.18 365.17C364.426 365.109 364.683 365.11 364.928 365.175C365.172 365.24 365.397 365.365 365.58 365.54C365.856 365.813 366.205 366 366.585 366.078C366.965 366.156 367.359 366.122 367.72 365.98C368.054 365.839 368.339 365.602 368.54 365.3C368.72 365.03 368.92 364.77 369.09 364.48C368.8 364.65 368.54 364.84 368.27 365.02C368.057 365.208 367.798 365.335 367.52 365.39C367.272 365.447 367.013 365.439 366.769 365.365C366.525 365.291 366.305 365.155 366.13 364.97C365.846 364.703 365.49 364.525 365.107 364.458C364.723 364.39 364.328 364.436 363.97 364.59C363.637 364.743 363.355 364.99 363.16 365.3C362.98 365.57 362.79 365.82 362.62 366.11C362.91 365.94 363.17 365.74 363.44 365.56V365.57ZM386.79 379.86C387.006 379.676 387.258 379.539 387.53 379.46C387.776 379.398 388.033 379.4 388.278 379.465C388.522 379.53 388.747 379.655 388.93 379.83C389.206 380.103 389.555 380.29 389.935 380.368C390.315 380.446 390.709 380.412 391.07 380.27C391.407 380.129 391.695 379.892 391.9 379.59C392.08 379.32 392.28 379.07 392.44 378.78C392.15 378.94 391.9 379.14 391.62 379.32C391.406 379.5 391.152 379.626 390.88 379.69C390.629 379.744 390.369 379.733 390.124 379.657C389.879 379.582 389.657 379.445 389.48 379.26C389.276 379.053 389.028 378.894 388.755 378.797C388.481 378.699 388.189 378.665 387.9 378.696C387.611 378.728 387.333 378.825 387.087 378.98C386.841 379.135 386.634 379.343 386.48 379.59C386.3 379.86 386.1 380.11 385.94 380.4C386.26 380.23 386.52 380 386.79 379.85V379.86ZM347.51 390.7C347.724 390.514 347.977 390.377 348.25 390.3C348.496 390.238 348.753 390.24 348.998 390.305C349.242 390.37 349.467 390.495 349.65 390.67C349.926 390.943 350.275 391.13 350.655 391.208C351.035 391.286 351.429 391.252 351.79 391.11C352.127 390.969 352.415 390.732 352.62 390.43C352.8 390.16 352.99 389.9 353.16 389.61C352.87 389.78 352.61 389.98 352.34 390.16C352.123 390.342 351.866 390.469 351.59 390.53C351.341 390.583 351.082 390.571 350.839 390.496C350.596 390.421 350.376 390.285 350.2 390.1C349.916 389.833 349.56 389.655 349.177 389.588C348.793 389.52 348.398 389.566 348.04 389.72C347.714 389.88 347.437 390.125 347.24 390.43C347.06 390.7 346.86 390.95 346.69 391.24C347 391.08 347.24 390.88 347.51 390.7ZM398.17 405C398.383 404.815 398.637 404.681 398.91 404.61C399.155 404.544 399.412 404.543 399.657 404.606C399.903 404.669 400.127 404.794 400.31 404.97C400.585 405.245 400.933 405.433 401.313 405.513C401.693 405.593 402.088 405.561 402.45 405.42C402.788 405.275 403.076 405.035 403.28 404.73C403.46 404.46 403.66 404.21 403.82 403.92C403.53 404.08 403.28 404.28 403 404.46C402.786 404.64 402.532 404.766 402.26 404.83C402.009 404.883 401.749 404.871 401.504 404.796C401.259 404.721 401.038 404.585 400.86 404.4C400.656 404.193 400.408 404.034 400.135 403.937C399.861 403.839 399.569 403.805 399.28 403.836C398.991 403.868 398.713 403.965 398.467 404.12C398.221 404.275 398.014 404.483 397.86 404.73C397.68 405 397.48 405.26 397.32 405.54C397.65 405.37 397.9 405.17 398.17 405ZM407.17 366.16C406.931 366.089 406.714 365.958 406.54 365.78C406.336 365.573 406.088 365.414 405.815 365.317C405.541 365.219 405.249 365.185 404.96 365.216C404.671 365.248 404.393 365.345 404.147 365.5C403.901 365.655 403.694 365.863 403.54 366.11C403.36 366.38 403.16 366.63 403 366.92C403.29 366.76 403.54 366.56 403.81 366.38C404.026 366.196 404.278 366.059 404.55 365.98C404.796 365.918 405.053 365.92 405.298 365.985C405.542 366.05 405.767 366.175 405.95 366.35C406.318 366.721 406.817 366.933 407.34 366.94L407.17 366.16ZM311.32 395.65C311.536 395.466 311.788 395.329 312.06 395.25C312.306 395.188 312.563 395.19 312.808 395.255C313.052 395.32 313.277 395.445 313.46 395.62C313.734 395.895 314.083 396.083 314.463 396.163C314.843 396.243 315.238 396.211 315.6 396.07C315.938 395.925 316.226 395.685 316.43 395.38C316.61 395.11 316.81 394.86 316.97 394.57C316.68 394.73 316.43 394.93 316.15 395.11C315.936 395.29 315.682 395.416 315.41 395.48C315.159 395.533 314.899 395.521 314.654 395.446C314.409 395.371 314.188 395.235 314.01 395.05C313.806 394.843 313.558 394.684 313.285 394.587C313.011 394.489 312.719 394.455 312.43 394.486C312.141 394.518 311.863 394.615 311.617 394.77C311.371 394.925 311.164 395.133 311.01 395.38C310.83 395.65 310.63 395.91 310.47 396.19C310.84 396 311.09 395.82 311.36 395.64L311.32 395.65ZM308.43 335.4C308.64 335.208 308.894 335.071 309.17 335C309.415 334.934 309.674 334.933 309.919 334.998C310.165 335.063 310.39 335.191 310.57 335.37C310.846 335.643 311.195 335.83 311.575 335.908C311.955 335.986 312.349 335.952 312.71 335.81C313.044 335.669 313.329 335.432 313.53 335.13C313.71 334.85 313.91 334.6 314.08 334.31C313.79 334.47 313.53 334.67 313.26 334.85C313.048 335.039 312.789 335.167 312.51 335.22C312.262 335.275 312.003 335.266 311.76 335.192C311.516 335.119 311.296 334.984 311.12 334.8C310.836 334.533 310.48 334.355 310.097 334.288C309.713 334.22 309.318 334.266 308.96 334.42C308.63 334.573 308.349 334.815 308.15 335.12C307.97 335.4 307.78 335.65 307.61 335.94C307.94 335.77 308.2 335.57 308.47 335.39L308.43 335.4Z" fill="white"/>
<path d="M314.8 302.07C313.7 306.07 312.633 310.07 311.6 314.07C311.73 312.32 311.92 310.58 312.15 308.84C312.15 308.74 312.01 308.69 311.98 308.84C311.554 310.999 311.316 313.19 311.27 315.39C310.03 320.223 308.87 325.073 307.79 329.94C305.74 339.27 303.91 348.68 302.39 358.11C301.54 363.44 300.88 368.79 299.97 374.11C299.97 374.21 300.11 374.25 300.13 374.11C300.96 369.4 302.07 364.72 303.13 360.04C304.19 355.36 305.13 350.74 306.13 346.09C308.07 336.72 310.13 327.38 312.05 318.02C313.14 312.74 314.15 307.45 315.24 302.18C315.247 302.151 315.249 302.121 315.244 302.092C315.24 302.062 315.23 302.034 315.214 302.008C315.184 301.957 315.133 301.92 315.075 301.905C315.017 301.89 314.955 301.9 314.903 301.931C314.852 301.961 314.815 302.012 314.8 302.07V302.07Z" fill="#263238"/>
<path d="M310.11 239.78C311.44 247.06 307.34 253.91 300.95 255.08C294.56 256.25 288.31 251.29 286.95 244.01C285.59 236.73 289.71 229.87 296.1 228.71C302.49 227.55 308.78 232.5 310.11 239.78Z" fill="#455A64"/>
<path d="M313.94 239.55C315.42 247.65 310.86 255.27 303.76 256.55C296.66 257.83 289.69 252.34 288.21 244.24C286.73 236.14 291.29 228.52 298.39 227.24C305.49 225.96 312.46 231.45 313.94 239.55Z" fill="#C7C7C7"/>
<path d="M334.21 296.71C341.45 296.71 350.66 283.35 353.21 273.71C353.38 273.05 345.33 250.38 344.21 245.71C343.98 244.71 316.72 259.89 316.72 259.89C316.72 259.89 321.96 268.96 323.88 277.09C324.06 277.82 327.21 296.74 334.21 296.71Z" fill="#DD6A57"/>
<path d="M327.25 278.86C326.304 279.123 325.337 279.3 324.36 279.39C324.24 278.82 324.14 278.34 324.07 277.97C324.074 277.954 324.074 277.936 324.07 277.92C324.075 277.877 324.075 277.833 324.07 277.79C324.07 277.65 324.02 277.5 323.98 277.35C323.985 277.32 323.985 277.29 323.98 277.26V277.14C323.537 275.323 322.99 273.534 322.34 271.78C321.067 268.385 319.577 265.075 317.88 261.87C317.74 261.603 317.61 261.363 317.49 261.15L316.85 259.97L317.57 259.56L318.57 259.03L319.21 258.68L320 258.24L320.73 257.84L320.87 257.76L321.87 257.24L322.09 257.12L323.04 256.6L323.54 256.33L325.08 255.49L326.26 254.85L327.26 254.31L330.68 252.47L331.78 251.87L335.73 249.79L336.58 249.35L337 249L337.67 248.65L339.11 247.92L339.99 247.48C340.42 247.26 340.82 247.07 341.2 246.89C341.39 246.79 341.58 246.71 341.75 246.63C342.27 246.38 342.75 246.18 343.09 246.03L343.33 245.93C343.67 253.85 343 274.64 327.25 278.86Z" fill="#263238"/>
<path d="M336.06 210.67C342.51 219.76 346.91 250.74 341.89 259.67C334.61 272.59 317.84 279.18 305.64 269.32C293.82 259.77 288.81 219.32 294.87 210.68C303.79 198 326.52 197.26 336.06 210.67Z" fill="#DD6A57"/>
<path d="M313 238C313 237.91 313.17 238.07 313.18 238.16C313.42 240.25 314.05 242.61 316.04 243.03C316.1 243.03 316.11 243.15 316.04 243.15C313.64 243.19 312.84 240.05 313 238Z" fill="#263238"/>
<path d="M314.49 235.57C317.81 234.83 319.06 241.57 315.98 242.21C312.9 242.85 311.71 236.2 314.49 235.57Z" fill="#263238"/>
<path d="M301.56 240.48C301.56 240.4 301.42 240.6 301.43 240.69C301.89 242.75 302.06 245.18 300.31 246.22C300.26 246.22 300.31 246.36 300.31 246.34C302.58 245.59 302.32 242.36 301.56 240.48Z" fill="#263238"/>
<path d="M299.31 238.66C295.93 239.03 296.91 245.76 300.05 245.42C303.19 245.08 302.14 238.35 299.31 238.66Z" fill="#263238"/>
<path d="M316.56 232C315.633 231.908 314.711 231.764 313.8 231.57C312.801 231.552 311.836 231.2 311.06 230.57C310.855 230.327 310.736 230.023 310.72 229.705C310.703 229.387 310.791 229.073 310.97 228.81C311.408 228.352 311.961 228.018 312.57 227.842C313.18 227.666 313.825 227.655 314.44 227.81C315.736 227.933 316.94 228.531 317.82 229.49C318.012 229.719 318.132 229.999 318.167 230.295C318.201 230.592 318.148 230.892 318.015 231.159C317.881 231.426 317.672 231.648 317.413 231.797C317.155 231.946 316.858 232.017 316.56 232Z" fill="#263238"/>
<path d="M296.09 235.77C296.954 235.422 297.798 235.028 298.62 234.59C299.569 234.292 300.394 233.691 300.97 232.88C301.1 232.59 301.13 232.265 301.056 231.955C300.982 231.646 300.808 231.37 300.56 231.17C300.013 230.848 299.39 230.678 298.755 230.678C298.12 230.678 297.497 230.848 296.95 231.17C295.733 231.641 294.74 232.556 294.17 233.73C294.054 234.003 294.02 234.305 294.072 234.597C294.124 234.89 294.261 235.16 294.464 235.377C294.668 235.593 294.93 235.745 295.219 235.815C295.507 235.885 295.81 235.869 296.09 235.77V235.77Z" fill="#263238"/>
<path d="M319 256.77C318.6 257.35 318.23 258.11 317.49 258.31C316.715 258.442 315.921 258.408 315.16 258.21C315.144 258.203 315.127 258.203 315.11 258.208C315.094 258.213 315.081 258.224 315.072 258.239C315.063 258.254 315.06 258.271 315.064 258.288C315.067 258.305 315.076 258.32 315.09 258.33C315.462 258.682 315.923 258.927 316.423 259.038C316.923 259.149 317.444 259.122 317.93 258.96C318.332 258.772 318.669 258.47 318.898 258.091C319.128 257.712 319.24 257.273 319.22 256.83C319.23 256.7 319.06 256.69 319 256.77Z" fill="#263238"/>
<path d="M315.67 251C315.294 251.915 314.734 252.743 314.023 253.431C313.312 254.12 312.467 254.654 311.54 255C310.736 255.317 309.891 255.516 309.03 255.59C308.864 255.604 308.696 255.604 308.53 255.59C308.377 255.6 308.223 255.6 308.07 255.59C307.955 255.59 307.844 255.554 307.752 255.485C307.66 255.416 307.592 255.32 307.56 255.21V255.21C307.555 255.14 307.555 255.07 307.56 255V255V254.82C307.22 253.23 306.92 250.82 306.92 250.82C306.39 251.22 303.67 253.11 303.56 252.27C302.68 245.27 301.7 237.53 302.3 230.4C302.31 230.356 302.335 230.316 302.37 230.288C302.406 230.26 302.45 230.244 302.495 230.244C302.54 230.244 302.584 230.26 302.62 230.288C302.655 230.316 302.68 230.356 302.69 230.4C303.8 237.08 303.69 243.9 304.74 250.62C305.704 249.93 306.761 249.381 307.88 248.99C308.12 248.99 308.37 253.74 308.58 254.44V254.52C311.32 254.36 313.19 253.17 315.46 250.88C315.57 250.68 315.76 250.79 315.67 251Z" fill="#263238"/>
<path d="M309.82 254.6C310.904 255.584 312.223 256.272 313.65 256.6C314.435 256.747 315.246 256.645 315.97 256.31C317.54 255.57 317.3 254.04 316.75 252.8C316.456 252.141 316.083 251.52 315.64 250.95C314.139 252.757 312.1 254.036 309.82 254.6Z" fill="#263238"/>
<path d="M313.65 256.57C314.435 256.717 315.246 256.615 315.97 256.28C317.54 255.54 317.3 254.01 316.75 252.77C315 253.29 313.48 254.82 313.65 256.57Z" fill="#FF99BA"/>
<path opacity="0.2" d="M334.9 223.68C336.96 226.29 341.46 232.55 342.99 232.63C341.41 222.54 338.84 213.73 334.82 209.04C333.157 207.103 331.154 205.486 328.91 204.27C329.49 206.93 332.71 221 334.9 223.68Z" fill="#263238"/>
<path d="M304.84 217.55C306.087 218.72 307.614 219.55 309.274 219.961C310.933 220.373 312.671 220.351 314.32 219.9C316.009 219.441 317.552 218.556 318.802 217.331C320.052 216.105 320.967 214.58 321.46 212.9C321.46 212.879 321.468 212.858 321.483 212.843C321.498 212.828 321.519 212.82 321.54 212.82C321.561 212.82 321.582 212.828 321.597 212.843C321.612 212.858 321.62 212.879 321.62 212.9C321.25 214.703 320.397 216.371 319.151 217.725C317.906 219.08 316.315 220.07 314.55 220.59C312.785 221.001 310.942 220.94 309.208 220.413C307.474 219.886 305.909 218.913 304.67 217.59C304.678 217.576 304.689 217.564 304.702 217.554C304.715 217.544 304.73 217.537 304.746 217.533C304.762 217.53 304.779 217.529 304.795 217.532C304.811 217.535 304.826 217.541 304.84 217.55V217.55Z" fill="#263238"/>
<path d="M312.38 191.78C318.17 191.26 323.83 193.86 326.38 197.56C327.804 199.663 328.474 202.187 328.28 204.72C328.28 204.82 328.07 204.82 328.07 204.72C327.945 202.513 327.229 200.379 325.998 198.543C324.766 196.706 323.065 195.234 321.07 194.28C318.876 193.166 316.452 192.578 313.992 192.56C311.531 192.543 309.1 193.098 306.89 194.18C304.725 195.184 302.991 196.929 302 199.1C301.91 199.32 301.46 199.23 301.53 199.01C302.66 195.22 307.14 192.26 312.38 191.78Z" fill="#263238"/>
<path d="M280.25 208.08C280.873 205.121 282.524 202.478 284.91 200.62C288.2 198.03 292.25 197.9 296.26 197.86C296.37 197.86 296.38 198.03 296.26 198.03C292.84 198.08 289.37 198.33 286.44 200.27C284.008 201.858 282.202 204.24 281.33 207.01C280.516 209.848 280.751 212.885 281.993 215.564C283.234 218.243 285.399 220.386 288.09 221.6C289.659 222.258 291.346 222.587 293.046 222.568C294.747 222.549 296.426 222.182 297.98 221.49C298.1 221.44 298.22 221.61 298.09 221.67C295.999 222.697 293.664 223.122 291.346 222.896C289.027 222.67 286.818 221.803 284.964 220.392C283.111 218.981 281.688 217.082 280.853 214.907C280.019 212.733 279.806 210.369 280.24 208.08H280.25Z" fill="#263238"/>
<path d="M339.29 217.29C339.29 217.29 343.56 206.29 338.29 200.89C335.29 197.81 326.74 199.26 326.74 199.26C325.396 197.692 323.755 196.406 321.912 195.476C320.069 194.546 318.059 193.99 316 193.84C308.6 193.03 300.52 198.25 300.52 198.25C300.52 198.25 293.21 195.13 287.22 199.55C278.88 205.71 281.6 219.2 291.11 222.55C297.8 224.88 305.72 218.28 305.72 218.28C306.56 218.28 315.61 222.39 321.12 214.1C321.12 214.1 326.85 218.1 331.12 214.33C332.014 215.602 333.277 216.567 334.739 217.097C336.2 217.626 337.789 217.694 339.29 217.29V217.29Z" fill="#263238"/>
<path d="M317.34 247.11C316.157 247.186 314.97 247.027 313.849 246.643C312.727 246.259 311.692 245.657 310.804 244.872C309.916 244.087 309.191 243.134 308.672 242.068C308.153 241.002 307.85 239.844 307.78 238.66V238.66C307.676 236.98 308.045 235.304 308.845 233.824C309.645 232.343 310.845 231.116 312.307 230.283C313.77 229.449 315.437 229.043 317.118 229.11C318.8 229.176 320.43 229.713 321.822 230.659C323.214 231.605 324.313 232.923 324.994 234.462C325.675 236.002 325.91 237.701 325.673 239.368C325.437 241.034 324.738 242.601 323.655 243.89C322.573 245.179 321.15 246.139 319.55 246.66C318.835 246.903 318.093 247.054 317.34 247.11V247.11ZM309 238.58C309.096 240.121 309.646 241.6 310.582 242.828C311.518 244.057 312.797 244.98 314.257 245.482C315.718 245.984 317.294 246.041 318.787 245.647C320.281 245.253 321.623 244.425 322.646 243.268C323.669 242.111 324.326 240.677 324.534 239.147C324.742 237.617 324.491 236.059 323.814 234.671C323.137 233.283 322.064 232.127 320.73 231.349C319.396 230.571 317.861 230.206 316.32 230.3C315.671 230.343 315.03 230.463 314.41 230.66C312.759 231.195 311.332 232.263 310.353 233.696C309.374 235.129 308.898 236.847 309 238.58Z" fill="#C53F3F"/>
<path d="M298.63 250.72C295 251.43 291.26 248.04 290.31 243.16C289.836 240.959 290.063 238.665 290.96 236.6C291.293 235.691 291.855 234.884 292.592 234.256C293.328 233.627 294.214 233.2 295.164 233.014C296.114 232.828 297.096 232.89 298.015 233.194C298.934 233.498 299.759 234.034 300.41 234.75C302.019 236.321 303.095 238.356 303.49 240.57C304.39 245.19 302.49 249.57 299.2 250.57C299.013 250.632 298.823 250.682 298.63 250.72V250.72ZM292.06 237.11C291.264 238.942 291.065 240.978 291.49 242.93C292.32 247.15 295.42 250.12 298.4 249.54C301.38 248.96 303.13 245.04 302.31 240.81C301.961 238.843 301.011 237.034 299.59 235.63C299.056 235.073 298.395 234.652 297.664 234.403C296.933 234.154 296.153 234.085 295.39 234.2C295.24 234.222 295.093 234.259 294.95 234.31C294.301 234.551 293.708 234.924 293.211 235.406C292.713 235.888 292.321 236.469 292.06 237.11Z" fill="#C53F3F"/>
<path d="M308.28 239.62L308.87 238.57C307.3 237.7 303.87 236.79 302.19 239.57L303.19 240.21C304.74 237.72 308.14 239.55 308.28 239.62Z" fill="#C53F3F"/>
<path d="M348.18 234.17L349.13 233.42C348.78 232.98 345.63 229.12 342.9 229.21C340.36 229.3 324.78 233.89 324.12 234.09L324.46 235.25C328.93 233.92 340.97 230.48 342.94 230.41C344.74 230.36 347.33 233.11 348.18 234.17Z" fill="#C53F3F"/>
<path d="M337.75 236.56C337.75 236.56 341.44 225 346.49 226C351.54 227 350.83 242.37 346.35 245.83C345.807 246.314 345.171 246.682 344.482 246.913C343.792 247.145 343.063 247.234 342.338 247.176C341.613 247.118 340.907 246.914 340.263 246.576C339.619 246.238 339.05 245.774 338.59 245.21L337.75 236.56Z" fill="#DD6A57"/>
<path d="M346.18 230.4C346.26 230.4 346.31 230.48 346.25 230.53C343.14 233.07 342.3 236.95 342.05 240.77C342.7 239.13 343.91 237.96 346.05 238.67C346.17 238.67 346.12 238.88 346.05 238.89C345.363 238.886 344.692 239.094 344.128 239.486C343.564 239.878 343.135 240.435 342.9 241.08C342.516 242.161 342.251 243.281 342.11 244.42C342.04 244.79 341.42 244.8 341.43 244.42V244.33C339.91 239.8 341.46 232.37 346.18 230.4Z" fill="#263238"/>
<path d="M343.33 227.8C343.33 227.8 342.61 211.61 336.92 203.28C330.58 194 313.08 187.79 300.56 198.28C300.56 198.28 318.74 193.55 330.65 204.73C336.12 209.87 338.02 228.85 338.02 228.85L343.33 227.8Z" fill="#C7C7C7"/>
<path d="M343.704 251.115C350.891 250.387 356.044 243.155 355.213 234.962C354.382 226.769 347.883 220.719 340.696 221.448C333.509 222.176 328.356 229.409 329.186 237.601C330.017 245.794 336.517 251.844 343.704 251.115Z" fill="#C7C7C7"/>
<path d="M332.94 236.74C333.69 244.11 339.53 249.55 345.99 248.89C352.45 248.23 357.08 241.73 356.34 234.37C355.6 227.01 349.75 221.57 343.28 222.22C336.81 222.87 332.19 229.38 332.94 236.74Z" fill="#455A64"/>
<path d="M294.74 315.91C277.9 313.57 273.21 315.55 260.05 306.02C251.41 299.77 243.71 302.6 248.63 312.54C256.7 328.79 277.8 336.38 285.87 336.91L294.74 315.91Z" fill="#DD6A57"/>
<path d="M372.29 280.44C391.67 301.2 437.78 379.1 422.83 393.44C407.88 407.78 324.93 388.44 301.63 377.37C294.69 374.07 321.03 330.85 329.18 329.84C335.96 329 370.64 344.84 371.64 342.84C372.78 340.59 364.9 326.12 356.56 295.99C346.94 261.3 363.73 271.27 372.29 280.44Z" fill="#DD6A57"/>
<path d="M339.49 332.13C339.49 332.13 320.56 321.62 302.86 317.34C290.61 314.39 263.26 310.92 237.09 337.91C230.88 344.32 226.57 357.84 240.51 351.07C250.41 346.25 255.23 340.21 261.51 338.46C261.51 338.46 258.08 356.32 264.73 362.28C270.552 367.499 276.738 372.298 283.24 376.64C284.306 375.63 285.308 374.554 286.24 373.42C286.24 373.42 292.99 378.42 305.68 377.2L339.49 332.13Z" fill="#DD6A57"/>
<path d="M290.72 316.39C284.87 319.44 272.57 326.12 264.41 335.08C255.35 345.03 240.57 366.65 247.98 373.27C253.42 378.12 259.79 370.36 259.79 370.36C259.79 370.36 255.57 380.58 261.44 383.89C266.79 386.89 271.35 380.61 271.35 380.61C271.35 380.61 269.86 387.25 275.57 389.16C282.44 391.46 284.45 377.16 293.42 373.47C295.43 372.65 290.72 316.39 290.72 316.39Z" fill="#DD6A57"/>
<path fill-rule="evenodd" clip-rule="evenodd" d="M315.647 382.86C316.085 382.176 316.549 381.444 317.03 380.678C319.581 376.618 322.714 371.411 324.673 367.332C328.256 359.869 330.657 353.483 332.539 345.286C333.396 341.55 333.914 335.935 334.222 331.537C334.271 330.849 334.314 330.182 334.354 329.544C331.781 328.263 328.416 326.658 324.585 325C324.581 325.091 324.577 325.185 324.572 325.281C324.504 326.707 324.399 328.673 324.247 330.837C323.935 335.286 323.453 340.171 322.792 343.048C321.104 350.401 318.981 356.083 315.658 363.003C313.965 366.528 311.098 371.322 308.562 375.359C307.615 376.867 306.732 378.241 306 379.367C308.777 380.489 312.029 381.665 315.647 382.86Z" fill="white"/>
<path d="M276.52 342.9C271.52 346.68 262.25 358.18 259.7 370.09C259.64 370.36 259.81 370.55 259.92 370.32C264.356 360.569 269.964 351.394 276.62 343C276.66 342.93 276.58 342.86 276.52 342.9Z" fill="#263238"/>
<path d="M286.31 352.34C282.31 356.05 273.31 368.34 271.13 380.49C271.08 380.76 271.27 380.94 271.37 380.7C275.289 370.738 280.321 361.252 286.37 352.42C286.45 352.36 286.36 352.3 286.31 352.34Z" fill="#263238"/>
<path d="M261.5 338.35C256.01 339.97 252.44 342.66 247.8 345.88C245.528 347.503 243.168 348.999 240.73 350.36C238.49 351.57 235.2 353.36 232.81 351.5C231.49 350.45 231.51 348.5 231.81 347.02C232.128 345.311 232.81 343.691 233.81 342.27C233.86 342.2 233.74 342.11 233.69 342.18C232.744 343.418 231.98 344.786 231.42 346.24C230.823 347.586 230.649 349.082 230.92 350.53C231.73 353.53 235.3 353.95 237.82 353.12C239.33 352.57 240.78 351.87 242.15 351.03C243.48 350.26 244.77 349.44 246.04 348.58C248.65 346.81 251.16 344.9 253.75 343.11C256.265 341.418 258.887 339.891 261.6 338.54C261.625 338.527 261.644 338.504 261.653 338.477C261.661 338.45 261.658 338.42 261.645 338.395C261.632 338.37 261.609 338.351 261.582 338.342C261.555 338.334 261.525 338.337 261.5 338.35V338.35Z" fill="#263238"/>
<path d="M250 357.67C251.42 354.54 259.11 341.5 261.61 338.48C261.619 338.465 261.623 338.447 261.621 338.429C261.619 338.411 261.611 338.394 261.598 338.382C261.586 338.369 261.569 338.361 261.551 338.359C261.533 338.357 261.515 338.361 261.5 338.37C257.22 342.43 250.34 353.2 248.74 356.66C247.14 360.12 245.33 364.43 245.33 368.23C245.33 373.97 249.13 375.05 250.54 375.33C252.209 375.634 253.932 375.355 255.42 374.54C257.163 373.467 258.67 372.052 259.85 370.38C259.91 370.3 259.8 370.19 259.73 370.27C257.73 372.53 254.44 374.76 251.33 374.35C250.641 374.284 249.972 374.081 249.362 373.753C248.753 373.425 248.215 372.979 247.78 372.44C246.93 371.06 246.604 369.421 246.86 367.82C247.32 364.282 248.382 360.85 250 357.67V357.67Z" fill="#263238"/>
<path d="M271.13 380.49C270.33 381.17 268.69 383.55 266.08 384.06C265.153 384.312 264.179 384.335 263.242 384.126C262.304 383.917 261.432 383.482 260.7 382.86C259.356 381.457 258.613 379.583 258.63 377.64C258.847 375.206 259.248 372.793 259.83 370.42C259.83 370.31 259.72 370.26 259.69 370.37C258.731 372.856 258.148 375.472 257.96 378.13C257.924 379.182 258.1 380.231 258.478 381.214C258.856 382.197 259.428 383.093 260.16 383.85C260.948 384.591 261.925 385.1 262.984 385.32C264.043 385.541 265.142 385.465 266.16 385.1C267.16 384.72 270.41 382.65 271.34 380.61C271.37 380.56 271.17 380.46 271.13 380.49Z" fill="#263238"/>
<path d="M292.88 372.44C291.997 373.032 291.182 373.719 290.45 374.49C289.64 375.27 288.86 376.08 288.11 376.9C286.592 378.566 285.251 380.386 284.11 382.33C282.95 384.28 281.88 386.45 279.99 387.8C279.093 388.484 278.003 388.868 276.876 388.896C275.748 388.925 274.64 388.597 273.71 387.96C272.73 387.248 272.024 386.22 271.71 385.05C271.336 383.779 271.214 382.448 271.35 381.13C271.35 381.109 271.342 381.088 271.327 381.073C271.312 381.058 271.291 381.05 271.27 381.05C271.249 381.05 271.228 381.058 271.213 381.073C271.198 381.088 271.19 381.109 271.19 381.13C270.982 382.302 270.888 383.49 270.91 384.68C271.013 385.761 271.399 386.796 272.03 387.68C272.711 388.549 273.618 389.213 274.652 389.599C275.686 389.986 276.806 390.079 277.89 389.87C280.29 389.43 282.04 387.63 283.35 385.68C284.79 383.51 285.99 381.2 287.54 379.09C288.35 377.98 289.15 376.86 290.04 375.81C290.93 374.76 292.04 373.74 292.94 372.6C293.08 372.51 293 372.38 292.88 372.44Z" fill="#263238"/>
<path d="M299.59 377.34C296.456 376.995 293.362 376.352 290.35 375.42C290.25 375.42 290.12 375.66 290.21 375.71C291.666 376.377 293.192 376.881 294.76 377.21C296.339 377.55 297.961 377.651 299.57 377.51C299.65 377.5 299.69 377.35 299.59 377.34Z" fill="#263238"/>
<path d="M403 358C393.332 351.456 382.738 346.4 371.57 343C368.41 342 365.22 341.16 362.03 340.29C362.015 340.296 362.001 340.306 361.992 340.319C361.983 340.333 361.978 340.349 361.978 340.365C361.978 340.381 361.983 340.397 361.992 340.411C362.001 340.424 362.015 340.434 362.03 340.44C367.589 342.176 373.044 344.225 378.37 346.58C383.703 348.873 388.97 351.26 394.17 353.74C397.17 355.15 400.01 356.69 402.92 358.19C402.933 358.202 402.949 358.211 402.966 358.216C402.983 358.221 403.001 358.221 403.018 358.218C403.036 358.214 403.052 358.206 403.065 358.195C403.079 358.183 403.09 358.169 403.097 358.153C403.104 358.136 403.106 358.118 403.105 358.101C403.104 358.083 403.098 358.066 403.088 358.051C403.079 358.036 403.066 358.024 403.05 358.015C403.035 358.006 403.018 358.001 403 358Z" fill="#263238"/>
<path d="M412 329.4L364.95 327.84C364.95 327.84 356.19 304.62 352.86 283.96C349.53 263.3 366.45 269.61 384.11 291.73C401.77 313.85 412 329.4 412 329.4Z" fill="#C53F3F"/>
<path d="M370.18 310.59C369.962 310.77 369.705 310.897 369.43 310.96C369.181 311.013 368.922 311.001 368.679 310.926C368.436 310.851 368.216 310.715 368.04 310.53C367.836 310.324 367.587 310.168 367.314 310.071C367.04 309.975 366.749 309.941 366.461 309.973C366.172 310.004 365.895 310.101 365.649 310.254C365.403 310.408 365.195 310.615 365.04 310.86C364.86 311.13 364.66 311.38 364.5 311.67C364.79 311.51 365.04 311.31 365.32 311.13C365.533 310.942 365.786 310.805 366.06 310.73C366.306 310.669 366.563 310.67 366.808 310.735C367.052 310.8 367.277 310.925 367.46 311.1C367.734 311.373 368.08 311.56 368.458 311.64C368.836 311.72 369.229 311.689 369.59 311.55C369.928 311.405 370.216 311.165 370.42 310.86C370.6 310.59 370.8 310.34 370.96 310.05C370.7 310.21 370.45 310.41 370.18 310.59ZM385 301.94C384.93 301.62 384.89 301.3 384.8 300.94C384.71 301.26 384.67 301.58 384.61 301.94C384.591 302.221 384.509 302.495 384.37 302.74C384.242 302.959 384.059 303.14 383.84 303.268C383.621 303.396 383.373 303.466 383.12 303.47C382.731 303.471 382.351 303.584 382.026 303.798C381.701 304.011 381.445 304.314 381.29 304.67C381.154 305.01 381.12 305.381 381.19 305.74C381.25 306.06 381.29 306.38 381.38 306.74C381.47 306.42 381.51 306.1 381.58 305.74C381.601 305.459 381.69 305.188 381.84 304.95C381.98 304.736 382.171 304.56 382.397 304.44C382.622 304.319 382.874 304.257 383.13 304.26C383.415 304.257 383.695 304.191 383.952 304.067C384.208 303.943 384.434 303.763 384.612 303.541C384.791 303.32 384.919 303.061 384.986 302.784C385.053 302.507 385.058 302.219 385 301.94ZM368.47 276.07C368.46 276.183 368.46 276.297 368.47 276.41C368.54 276.72 368.57 277.04 368.66 277.36C368.75 277.04 368.79 276.72 368.86 276.41C368.77 276.27 368.63 276.17 368.49 276.07H368.47ZM402 315.2C401.648 315.192 401.314 315.044 401.07 314.79C400.794 314.517 400.445 314.33 400.065 314.252C399.685 314.174 399.291 314.208 398.93 314.35C398.593 314.491 398.305 314.728 398.1 315.03C397.92 315.31 397.72 315.56 397.56 315.85C397.85 315.69 398.1 315.49 398.38 315.31C398.589 315.123 398.845 314.995 399.12 314.94C399.37 314.885 399.63 314.894 399.875 314.968C400.12 315.041 400.342 315.176 400.52 315.36C400.773 315.6 401.084 315.769 401.423 315.852C401.761 315.934 402.115 315.927 402.45 315.83L402 315.2ZM369.44 291.75C369.157 291.725 368.884 291.636 368.64 291.49C368.427 291.35 368.253 291.158 368.134 290.933C368.015 290.707 367.955 290.455 367.96 290.2C367.949 289.81 367.823 289.431 367.599 289.111C367.375 288.792 367.063 288.544 366.7 288.4C366.356 288.28 365.986 288.255 365.63 288.33C365.31 288.4 364.99 288.44 364.63 288.53C364.95 288.61 365.27 288.65 365.63 288.72C365.914 288.739 366.191 288.821 366.44 288.96C366.657 289.09 366.838 289.273 366.966 289.491C367.093 289.71 367.164 289.957 367.17 290.21C367.171 290.599 367.284 290.979 367.497 291.304C367.711 291.629 368.014 291.885 368.37 292.04C368.71 292.176 369.081 292.21 369.44 292.14C369.75 292.07 370.07 292.04 370.39 291.95C370.1 291.86 369.78 291.82 369.47 291.75H369.44ZM391.08 324.66C390.798 324.636 390.527 324.544 390.29 324.39C390.074 324.252 389.897 324.061 389.776 323.836C389.655 323.61 389.594 323.356 389.6 323.1C389.599 322.815 389.535 322.533 389.411 322.277C389.287 322.02 389.107 321.794 388.885 321.615C388.662 321.437 388.403 321.311 388.125 321.246C387.847 321.181 387.559 321.179 387.28 321.24C386.96 321.31 386.64 321.34 386.28 321.43C386.6 321.52 386.92 321.56 387.28 321.63C387.562 321.644 387.837 321.727 388.08 321.87C388.3 321.997 388.483 322.179 388.611 322.398C388.739 322.617 388.807 322.866 388.81 323.12C388.813 323.507 388.927 323.885 389.14 324.208C389.353 324.531 389.655 324.785 390.01 324.94C390.347 325.084 390.72 325.122 391.08 325.05C391.4 324.98 391.72 324.94 392.08 324.85C391.75 324.76 391.43 324.72 391.11 324.66H391.08Z" fill="white"/>
<path d="M366.88 327.68C366.62 327.68 364.97 327.39 364.96 327.39C364.84 326.78 362.16 317.07 361.45 314.96C360.02 310.65 358.33 306.42 356.7 302.19C356.686 302.168 356.664 302.152 356.64 302.143C356.615 302.134 356.588 302.134 356.564 302.142C356.539 302.15 356.517 302.166 356.502 302.187C356.487 302.208 356.479 302.234 356.48 302.26C357.54 305.9 358.54 309.56 359.63 313.2C359.3 312.68 358.98 312.2 358.63 311.64C358 310.56 357.44 309.44 356.85 308.34C356.837 308.32 356.817 308.306 356.795 308.3C356.772 308.293 356.748 308.295 356.726 308.304C356.705 308.314 356.688 308.331 356.677 308.352C356.667 308.373 356.664 308.397 356.67 308.42C357.174 309.945 357.869 311.4 358.74 312.75C359.115 313.328 359.526 313.883 359.97 314.41L360.24 315.32C360.91 317.44 364.35 327.95 364.53 327.96H366.8C367 328 367 327.68 366.88 327.68Z" fill="#263238"/>
<path d="M404.37 320.29C394.23 319.53 384.01 319.48 373.83 319.64C370.943 319.68 368.06 319.79 365.18 319.97C365.167 319.975 365.156 319.984 365.148 319.996C365.14 320.007 365.136 320.021 365.136 320.035C365.136 320.049 365.14 320.063 365.148 320.074C365.156 320.086 365.167 320.095 365.18 320.1C370.26 320.37 375.34 320.43 380.43 320.53C385.52 320.63 390.63 320.67 395.73 320.62C398.61 320.62 401.49 320.57 404.37 320.48C404.39 320.473 404.407 320.461 404.42 320.444C404.432 320.427 404.439 320.406 404.439 320.385C404.439 320.364 404.432 320.343 404.42 320.326C404.407 320.309 404.39 320.297 404.37 320.29V320.29Z" fill="#263238"/>
<path d="M241.48 410.66H248.66V405.97H241.48V410.66Z" fill="#455A64"/>
<path d="M232.17 410.35H239.35V405.66H232.17V410.35Z" fill="#455A64"/>
<path d="M222.85 410.04H230.03V405.35H222.85V410.04Z" fill="#455A64"/>
<path d="M213.54 409.73H220.72V405.04H213.54V409.73Z" fill="#455A64"/>
<path d="M204.22 409.42H211.4V404.73H204.22V409.42Z" fill="#455A64"/>
<path d="M194.91 409.11H202.09V404.42H194.91V409.11Z" fill="#455A64"/>
<path d="M185.59 408.8H192.77V404.11H185.59V408.8Z" fill="#455A64"/>
<path d="M176.28 408.49H183.46V403.8H176.28V408.49Z" fill="#455A64"/>
<path d="M166.96 408.18H174.14V403.49H166.96V408.18Z" fill="#455A64"/>
<path d="M165.2 413.36H250.42V407.66L165.2 405.28V413.36Z" fill="#37474F"/>
<path d="M82.03 390.86H222.71L200.34 286.12H59.65L82.03 390.86Z" fill="#455A64"/>
<path d="M76.82 390.86H217.51L195.13 286.12H54.45L76.82 390.86Z" fill="#37474F"/>
<path d="M123.82 332.42C124.249 334.805 125.485 336.971 127.32 338.555C129.155 340.138 131.477 341.044 133.9 341.12C134.994 341.155 136.081 340.941 137.08 340.495C138.08 340.049 138.965 339.382 139.669 338.545C140.374 337.707 140.88 336.721 141.148 335.66C141.417 334.6 141.441 333.492 141.22 332.42C140.785 330.037 139.548 327.875 137.715 326.292C135.881 324.709 133.561 323.802 131.14 323.72C130.046 323.685 128.959 323.899 127.96 324.345C126.96 324.791 126.075 325.458 125.371 326.295C124.666 327.133 124.161 328.119 123.892 329.18C123.623 330.24 123.599 331.348 123.82 332.42Z" fill="#263238"/>
<path d="M116.61 418.21H185.8V412.84L116.61 410.6V418.21Z" fill="#455A64"/>
<path d="M97.8 418.2H134.95L157.32 359.52H120.17L97.8 418.2Z" fill="#455A64"/>
<path d="M91.68 418.2H128.83L151.21 359.52H114.06L91.68 418.2Z" fill="#263238"/>
<path d="M253.05 419.64H324.39C330.48 419.64 321.67 402.31 299.45 395.64C277.23 388.97 246 413.14 253.05 419.64Z" fill="#37474F"/>
<path d="M281.05 419.64C280.599 417.75 280.021 415.892 279.32 414.08C278.627 412.29 277.78 410.564 276.79 408.92C275.817 407.271 274.656 405.741 273.33 404.36L272.33 403.36L271.22 402.43C270.52 401.75 269.65 401.31 268.88 400.69C270.716 401.434 272.408 402.493 273.88 403.82C275.369 405.15 276.643 406.702 277.66 408.42C278.675 410.128 279.484 411.951 280.07 413.85C280.647 415.729 280.977 417.676 281.05 419.64V419.64Z" fill="#263238"/>
<path d="M272.59 403.15C271.59 403.67 270.64 404.15 269.68 404.72C268.72 405.29 267.75 405.79 266.81 406.35C264.93 407.48 263.06 408.62 261.29 409.9C259.492 411.132 257.818 412.535 256.29 414.09C255.532 414.864 254.862 415.72 254.29 416.64C253.692 417.558 253.259 418.573 253.01 419.64C253.074 418.517 253.363 417.419 253.86 416.41C254.368 415.402 254.985 414.453 255.7 413.58C257.164 411.869 258.845 410.356 260.7 409.08C264.354 406.543 268.356 404.545 272.58 403.15H272.59Z" fill="#263238"/>
<path d="M235.53 377.52L231.29 430.76H202.01L197.77 377.52H235.53Z" fill="white"/>
<path fill-rule="evenodd" clip-rule="evenodd" d="M200.467 411.39L199.352 397.39H233.948L232.833 411.39H200.467Z" fill="#C53F3F"/>
<path d="M238.05 372.72H195V380.48H238.05V372.72Z" fill="#455A64"/>
<path d="M235.1 372.72H197.95L200.12 364H232.93L235.1 372.72Z" fill="#526670"/>
</svg>
