<svg width="500" height="500" viewBox="0 0 500 500" fill="none" xmlns="http://www.w3.org/2000/svg">
<path d="M500 382.4H0V382.65H500V382.4Z" fill="#EBEBEB"/>
<path d="M449.9 398.49H416.78V398.74H449.9V398.49Z" fill="#EBEBEB"/>
<path d="M331.22 401.21H322.53V401.46H331.22V401.21Z" fill="#EBEBEB"/>
<path d="M415.78 389.21H396.59V389.46H415.78V389.21Z" fill="#EBEBEB"/>
<path d="M95.65 390.89H52.46V391.14H95.65V390.89Z" fill="#EBEBEB"/>
<path d="M110.89 390.89H104.56V391.14H110.89V390.89Z" fill="#EBEBEB"/>
<path d="M225.15 395.11H131.47V395.36H225.15V395.11Z" fill="#EBEBEB"/>
<path d="M237 337.8H43.91C42.3974 337.797 40.9476 337.195 39.8789 336.124C38.8102 335.054 38.21 333.603 38.21 332.09V60.66C38.2232 59.156 38.8292 57.718 39.8965 56.6582C40.9637 55.5985 42.406 55.0026 43.91 55H237C238.514 55 239.967 55.6016 241.038 56.6724C242.108 57.7433 242.71 59.1956 242.71 60.71V332.09C242.71 333.604 242.108 335.057 241.038 336.128C239.967 337.198 238.514 337.8 237 337.8V337.8ZM43.91 55.2C42.4637 55.2026 41.0775 55.7791 40.0557 56.8027C39.0339 57.8264 38.46 59.2136 38.46 60.66V332.09C38.46 333.536 39.0339 334.924 40.0557 335.947C41.0775 336.971 42.4637 337.547 43.91 337.55H237C238.447 337.547 239.835 336.971 240.858 335.948C241.881 334.924 242.457 333.537 242.46 332.09V60.66C242.457 59.2127 241.881 57.8255 240.858 56.8021C239.835 55.7787 238.447 55.2026 237 55.2H43.91Z" fill="#EBEBEB"/>
<path d="M453.31 337.8H260.21C258.696 337.797 257.246 337.195 256.175 336.125C255.105 335.054 254.503 333.604 254.5 332.09V60.66C254.516 59.1551 255.124 57.7171 256.193 56.6576C257.262 55.5981 258.705 55.0025 260.21 55H453.31C454.812 55.0052 456.252 55.6022 457.317 56.6617C458.382 57.7212 458.987 59.1578 459 60.66V332.09C459 333.601 458.401 335.05 457.335 336.121C456.268 337.191 454.821 337.795 453.31 337.8V337.8ZM260.21 55.2C258.763 55.2026 257.375 55.7787 256.352 56.8021C255.329 57.8255 254.753 59.2127 254.75 60.66V332.09C254.753 333.537 255.329 334.924 256.352 335.948C257.375 336.971 258.763 337.547 260.21 337.55H453.31C454.757 337.547 456.145 336.971 457.168 335.948C458.191 334.924 458.767 333.537 458.77 332.09V60.66C458.767 59.2127 458.191 57.8255 457.168 56.8021C456.145 55.7787 454.757 55.2026 453.31 55.2H260.21Z" fill="#EBEBEB"/>
<path d="M229.56 218.53V92.97L67.98 92.97V218.53H229.56Z" fill="#E0E0E0"/>
<path d="M70.22 216.29L227.32 216.29L227.32 95.21L70.22 95.21L70.22 216.29Z" fill="#EBEBEB"/>
<path d="M146.63 117.08H145.63V133.96H146.63V117.08Z" fill="#E0E0E0"/>
<path d="M108.24 188.32H107.24V133.47H179.5V165.15H178.5V134.47H108.24V188.32Z" fill="#E0E0E0"/>
<path d="M200.24 182.32H199.24V165.65H161.07V181.74H160.07V164.65H200.24V182.32Z" fill="#E0E0E0"/>
<path d="M164.15 110.88H128.11V123.29H164.15V110.88Z" fill="#F5F5F5"/>
<path d="M196.71 140.65H162.36V154.13H196.71V140.65Z" fill="#F5F5F5"/>
<path d="M172.36 174.79H148.77V188.69H172.36V174.79Z" fill="#F5F5F5"/>
<path d="M212.38 177.04H187.11V187.6H212.38V177.04Z" fill="#F5F5F5"/>
<path d="M130.19 143.5H91.16V161.51H130.19V143.5Z" fill="#F5F5F5"/>
<path d="M120.2 181.74H95.28V194.9H120.2V181.74Z" fill="#F5F5F5"/>
<path d="M151.515 134.402L146.134 129.021L140.753 134.402L146.134 139.783L151.515 134.402Z" fill="#F5F5F5"/>
<path d="M184.392 165.141L179.01 159.76L173.629 165.141L179.01 170.522L184.392 165.141Z" fill="#F5F5F5"/>
<path d="M394.96 114.12H295.37V119.24H394.96V114.12Z" fill="#E0E0E0"/>
<path d="M304.34 95.26H299.95V114.12H304.34V95.26Z" fill="#EBEBEB"/>
<path d="M325.56 95.26H321.17V114.12H325.56V95.26Z" fill="#EBEBEB"/>
<path d="M349.646 94.7687L345.319 95.5144L348.523 114.1L352.849 113.355L349.646 94.7687Z" fill="#EBEBEB"/>
<path d="M309.78 97.74H305.39V114.12H309.78V97.74Z" fill="#EBEBEB"/>
<path d="M319.86 97.74H315.47V114.12H319.86V97.74Z" fill="#EBEBEB"/>
<path d="M345.32 97.74H340.93V114.12H345.32V97.74Z" fill="#EBEBEB"/>
<path d="M331.319 97.1516L327.034 98.104L330.587 114.094L334.873 113.141L331.319 97.1516Z" fill="#EBEBEB"/>
<path d="M313.57 94.32H311.38V114.12H313.57V94.32Z" fill="#EBEBEB"/>
<path d="M339.66 94.32H337.47V114.12H339.66V94.32Z" fill="#EBEBEB"/>
<path d="M385.41 99.19H364.03V113.95H385.41V99.19Z" fill="#EBEBEB"/>
<path d="M295.37 157.44H394.96V152.32H295.37V157.44Z" fill="#E0E0E0"/>
<path d="M385.99 152.32H390.38V133.46H385.99V152.32Z" fill="#EBEBEB"/>
<path d="M364.77 152.32H369.16V133.46H364.77V152.32Z" fill="#EBEBEB"/>
<path d="M337.491 151.567L341.817 152.313L345.02 133.727L340.694 132.982L337.491 151.567Z" fill="#EBEBEB"/>
<path d="M380.55 152.32H384.94V135.94H380.55V152.32Z" fill="#EBEBEB"/>
<path d="M370.46 152.32H374.85V135.94H370.46V152.32Z" fill="#EBEBEB"/>
<path d="M345.01 152.32H349.4V135.94H345.01V152.32Z" fill="#EBEBEB"/>
<path d="M355.473 151.348L359.759 152.301L363.312 136.311L359.027 135.358L355.473 151.348Z" fill="#EBEBEB"/>
<path d="M376.76 152.32H378.95V132.52H376.76V152.32Z" fill="#EBEBEB"/>
<path d="M350.67 152.32H352.86V132.52H350.67V152.32Z" fill="#EBEBEB"/>
<path d="M304.93 152.15H326.31V137.39H304.93V152.15Z" fill="#EBEBEB"/>
<path d="M373.15 182.53H317.29V381.67H373.15V182.53Z" fill="#F5F5F5"/>
<path d="M368.33 188.21H322.11V377.15H368.33V188.21Z" fill="#EBEBEB"/>
<path d="M359.91 193.77H330.52V195.72H359.91V193.77Z" fill="#E0E0E0"/>
<path d="M359.91 202.18H330.52V204.13H359.91V202.18Z" fill="#E0E0E0"/>
<path d="M359.91 210.6H330.52V212.55H359.91V210.6Z" fill="#E0E0E0"/>
<path d="M359.91 219.02H330.52V220.97H359.91V219.02Z" fill="#E0E0E0"/>
<path d="M359.91 227.44H330.52V229.39H359.91V227.44Z" fill="#E0E0E0"/>
<path d="M359.91 235.85H330.52V237.8H359.91V235.85Z" fill="#E0E0E0"/>
<path d="M359.91 244.27H330.52V246.22H359.91V244.27Z" fill="#E0E0E0"/>
<path d="M359.91 312.73H330.52V314.68H359.91V312.73Z" fill="#E0E0E0"/>
<path d="M359.91 321.15H330.52V323.1H359.91V321.15Z" fill="#E0E0E0"/>
<path d="M359.91 329.57H330.52V331.52H359.91V329.57Z" fill="#E0E0E0"/>
<path d="M359.91 337.98H330.52V339.93H359.91V337.98Z" fill="#E0E0E0"/>
<path d="M359.91 346.4H330.52V348.35H359.91V346.4Z" fill="#E0E0E0"/>
<path d="M359.91 354.82H330.52V356.77H359.91V354.82Z" fill="#E0E0E0"/>
<path d="M359.91 363.24H330.52V365.19H359.91V363.24Z" fill="#E0E0E0"/>
<path d="M361.36 273.09C361.36 273.733 361.169 274.361 360.812 274.896C360.455 275.43 359.948 275.847 359.354 276.093C358.76 276.339 358.106 276.403 357.476 276.278C356.845 276.152 356.266 275.843 355.812 275.388C355.357 274.934 355.048 274.354 354.922 273.724C354.797 273.094 354.861 272.44 355.107 271.846C355.353 271.252 355.77 270.745 356.304 270.388C356.839 270.031 357.467 269.84 358.11 269.84C358.537 269.839 358.96 269.922 359.355 270.085C359.75 270.248 360.109 270.487 360.411 270.789C360.713 271.091 360.952 271.45 361.115 271.845C361.278 272.24 361.361 272.663 361.36 273.09V273.09Z" fill="#E0E0E0"/>
<path d="M315.65 182.53H259.79V381.67H315.65V182.53Z" fill="#F5F5F5"/>
<path d="M310.83 188.21H264.61V377.15H310.83V188.21Z" fill="#EBEBEB"/>
<path d="M302.41 193.77H273.02V195.72H302.41V193.77Z" fill="#E0E0E0"/>
<path d="M302.41 202.18H273.02V204.13H302.41V202.18Z" fill="#E0E0E0"/>
<path d="M302.41 210.6H273.02V212.55H302.41V210.6Z" fill="#E0E0E0"/>
<path d="M302.41 219.02H273.02V220.97H302.41V219.02Z" fill="#E0E0E0"/>
<path d="M302.41 227.44H273.02V229.39H302.41V227.44Z" fill="#E0E0E0"/>
<path d="M302.41 235.85H273.02V237.8H302.41V235.85Z" fill="#E0E0E0"/>
<path d="M302.41 244.27H273.02V246.22H302.41V244.27Z" fill="#E0E0E0"/>
<path d="M302.41 312.73H273.02V314.68H302.41V312.73Z" fill="#E0E0E0"/>
<path d="M302.41 321.15H273.02V323.1H302.41V321.15Z" fill="#E0E0E0"/>
<path d="M302.41 329.57H273.02V331.52H302.41V329.57Z" fill="#E0E0E0"/>
<path d="M302.41 337.98H273.02V339.93H302.41V337.98Z" fill="#E0E0E0"/>
<path d="M302.41 346.4H273.02V348.35H302.41V346.4Z" fill="#E0E0E0"/>
<path d="M302.41 354.82H273.02V356.77H302.41V354.82Z" fill="#E0E0E0"/>
<path d="M302.41 363.24H273.02V365.19H302.41V363.24Z" fill="#E0E0E0"/>
<path d="M303.86 273.09C303.86 273.733 303.669 274.361 303.312 274.896C302.955 275.43 302.448 275.847 301.854 276.093C301.26 276.339 300.606 276.403 299.976 276.278C299.345 276.152 298.766 275.843 298.312 275.388C297.857 274.934 297.548 274.354 297.422 273.724C297.297 273.094 297.361 272.44 297.607 271.846C297.853 271.252 298.27 270.745 298.804 270.388C299.339 270.031 299.967 269.84 300.61 269.84C301.037 269.839 301.46 269.922 301.855 270.085C302.25 270.248 302.609 270.487 302.911 270.789C303.213 271.091 303.452 271.45 303.615 271.845C303.778 272.24 303.861 272.663 303.86 273.09V273.09Z" fill="#E0E0E0"/>
<path d="M430.65 182.53H374.79V381.67H430.65V182.53Z" fill="#F5F5F5"/>
<path d="M425.83 188.21H379.61V377.15H425.83V188.21Z" fill="#EBEBEB"/>
<path d="M417.41 193.77H388.02V195.72H417.41V193.77Z" fill="#E0E0E0"/>
<path d="M417.41 202.18H388.02V204.13H417.41V202.18Z" fill="#E0E0E0"/>
<path d="M417.41 210.6H388.02V212.55H417.41V210.6Z" fill="#E0E0E0"/>
<path d="M417.41 219.02H388.02V220.97H417.41V219.02Z" fill="#E0E0E0"/>
<path d="M417.41 227.44H388.02V229.39H417.41V227.44Z" fill="#E0E0E0"/>
<path d="M417.41 235.85H388.02V237.8H417.41V235.85Z" fill="#E0E0E0"/>
<path d="M417.41 244.27H388.02V246.22H417.41V244.27Z" fill="#E0E0E0"/>
<path d="M417.41 312.73H388.02V314.68H417.41V312.73Z" fill="#E0E0E0"/>
<path d="M417.41 321.15H388.02V323.1H417.41V321.15Z" fill="#E0E0E0"/>
<path d="M417.41 329.57H388.02V331.52H417.41V329.57Z" fill="#E0E0E0"/>
<path d="M417.41 337.98H388.02V339.93H417.41V337.98Z" fill="#E0E0E0"/>
<path d="M417.41 346.4H388.02V348.35H417.41V346.4Z" fill="#E0E0E0"/>
<path d="M417.41 354.82H388.02V356.77H417.41V354.82Z" fill="#E0E0E0"/>
<path d="M417.41 363.24H388.02V365.19H417.41V363.24Z" fill="#E0E0E0"/>
<path d="M418.86 273.09C418.86 273.733 418.669 274.361 418.312 274.896C417.955 275.43 417.448 275.847 416.854 276.093C416.26 276.339 415.606 276.403 414.976 276.278C414.345 276.152 413.766 275.843 413.312 275.388C412.857 274.934 412.548 274.354 412.422 273.724C412.297 273.094 412.361 272.44 412.607 271.846C412.853 271.252 413.27 270.745 413.804 270.388C414.339 270.031 414.967 269.84 415.61 269.84C416.037 269.839 416.46 269.922 416.855 270.085C417.25 270.248 417.609 270.487 417.911 270.789C418.213 271.091 418.452 271.45 418.615 271.845C418.778 272.24 418.861 272.663 418.86 273.09V273.09Z" fill="#E0E0E0"/>
<path d="M250 427.56C357.082 427.56 443.89 422.492 443.89 416.24C443.89 409.988 357.082 404.92 250 404.92C142.917 404.92 56.11 409.988 56.11 416.24C56.11 422.492 142.917 427.56 250 427.56Z" fill="#F5F5F5"/>
<path d="M93.91 402.73C93.91 402.73 88.64 377.84 98.23 364.36C107.82 350.88 89.57 364.21 87.47 376.83C87.47 376.83 84.32 354.26 93.62 338.39C102.92 322.52 85.52 335.55 84.04 351.9C84.04 351.9 81.19 331.78 85.47 320.46C89.75 309.14 82.3 316.46 79.47 323.52C76.64 330.58 80.36 348.17 80.36 348.17C80.36 348.17 72.9 315.7 65.84 318.28C58.78 320.86 76.39 342.14 78.84 353.2C78.84 353.2 70.51 338.31 64.19 341.41C57.87 344.51 73.98 346.05 81.35 368.26L83.94 378.67C83.94 378.67 76.26 364 71.25 368.61C66.24 373.22 86.1 381.25 90.72 403.52L93.91 402.73Z" fill="#C53F3F"/>
<path d="M92.88 404.16C92.88 404.16 91.77 372.78 76.27 359.5C60.77 346.22 86.6 356.73 92.88 371.22C92.88 371.22 89.93 343.22 74.05 327.01C58.17 310.8 82.91 321.2 89.56 340.35C89.56 340.35 86.97 315.35 78.48 303.12C69.99 290.89 81.07 297.34 86.6 304.98C92.13 312.62 92.88 334.77 92.88 334.77C92.88 334.77 92.14 293.66 101.37 294.65C110.6 295.64 95.83 326.37 96.2 340.35C96.2 340.35 101.74 320.03 110.2 321.86C118.66 323.69 99.86 330.34 97.65 359.13V372.37C97.65 372.37 102.45 352.48 109.83 356.54C117.21 360.6 95.83 376.11 96.91 404.16H92.88Z" fill="#C53F3F"/>
<path opacity="0.2" d="M92.88 404.16C92.88 404.16 91.77 372.78 76.27 359.5C60.77 346.22 86.6 356.73 92.88 371.22C92.88 371.22 89.93 343.22 74.05 327.01C58.17 310.8 82.91 321.2 89.56 340.35C89.56 340.35 86.97 315.35 78.48 303.12C69.99 290.89 81.07 297.34 86.6 304.98C92.13 312.62 92.88 334.77 92.88 334.77C92.88 334.77 92.14 293.66 101.37 294.65C110.6 295.64 95.83 326.37 96.2 340.35C96.2 340.35 101.74 320.03 110.2 321.86C118.66 323.69 99.86 330.34 97.65 359.13V372.37C97.65 372.37 102.45 352.48 109.83 356.54C117.21 360.6 95.83 376.11 96.91 404.16H92.88Z" fill="white"/>
<path d="M71.83 402.33H117.41V407.25C117.41 410.167 116.251 412.965 114.188 415.028C112.125 417.091 109.327 418.25 106.41 418.25H82.83C79.9126 418.25 77.1147 417.091 75.0518 415.028C72.9889 412.965 71.83 410.167 71.83 407.25V402.33Z" fill="#263238"/>
<path d="M65.86 399.7V403.18C65.8627 404.297 66.3085 405.368 67.0996 406.158C67.8907 406.947 68.9626 407.39 70.08 407.39H119.17C120.287 407.39 121.357 406.946 122.147 406.157C122.936 405.367 123.38 404.297 123.38 403.18V399.7H65.86Z" fill="#263238"/>
<path opacity="0.2" d="M65.86 399.7V403.18C65.8627 404.297 66.3085 405.368 67.0996 406.158C67.8907 406.947 68.9626 407.39 70.08 407.39H119.17C120.287 407.39 121.357 406.946 122.147 406.157C122.936 405.367 123.38 404.297 123.38 403.18V399.7H65.86Z" fill="white"/>
<path d="M419.41 398.7C419.576 398.359 419.658 397.984 419.648 397.605C419.637 397.226 419.535 396.855 419.351 396.524C419.166 396.193 418.904 395.911 418.587 395.703C418.27 395.495 417.907 395.367 417.53 395.33C417.856 394.363 417.878 393.32 417.593 392.341C417.309 391.361 416.732 390.492 415.94 389.85C415.75 389.674 415.508 389.565 415.25 389.54C414.975 389.569 414.716 389.685 414.51 389.87L410.11 393.02C409.756 393.239 409.459 393.536 409.24 393.89C408.34 395.63 411.58 397.89 410.24 399.29C409.86 399.7 409.24 399.79 408.76 400.09C407.76 400.74 407.59 402.18 407.1 403.31C406.61 404.44 404.92 405.31 404.27 404.31C404.75 403.23 403.27 402.31 402.11 402.15C400.95 401.99 399.7 401.95 399.05 400.84C397.38 402.31 393.63 398.22 393.71 396.58C393.05 396.699 392.444 397.022 391.976 397.502C391.508 397.983 391.202 398.597 391.1 399.26C390.908 400.618 390.861 401.992 390.96 403.36C390.96 406.03 390.06 408.64 390.1 411.3C390.1 413.38 390.94 415.68 392.84 416.51C393.78 416.852 394.783 416.988 395.78 416.91L417.4 416.77C417.919 416.81 418.441 416.724 418.92 416.52C419.92 416.01 420.11 414.73 420.2 413.63C420.58 408.93 420.967 404.233 421.36 399.54L419.41 398.7Z" fill="#C53F3F"/>
<path opacity="0.3" d="M419.41 398.7C419.576 398.359 419.658 397.984 419.648 397.605C419.637 397.226 419.535 396.855 419.351 396.524C419.166 396.193 418.904 395.911 418.587 395.703C418.27 395.495 417.907 395.367 417.53 395.33C417.856 394.363 417.878 393.32 417.593 392.341C417.309 391.361 416.732 390.492 415.94 389.85C415.75 389.674 415.508 389.565 415.25 389.54C414.975 389.569 414.716 389.685 414.51 389.87L410.11 393.02C409.756 393.239 409.459 393.536 409.24 393.89C408.34 395.63 411.58 397.89 410.24 399.29C409.86 399.7 409.24 399.79 408.76 400.09C407.76 400.74 407.59 402.18 407.1 403.31C406.61 404.44 404.92 405.31 404.27 404.31C404.75 403.23 403.27 402.31 402.11 402.15C400.95 401.99 399.7 401.95 399.05 400.84C397.38 402.31 393.63 398.22 393.71 396.58C393.05 396.699 392.444 397.022 391.976 397.502C391.508 397.983 391.202 398.597 391.1 399.26C390.908 400.618 390.861 401.992 390.96 403.36C390.96 406.03 390.06 408.64 390.1 411.3C390.1 413.38 390.94 415.68 392.84 416.51C393.78 416.852 394.783 416.988 395.78 416.91L417.4 416.77C417.919 416.81 418.441 416.724 418.92 416.52C419.92 416.01 420.11 414.73 420.2 413.63C420.58 408.93 420.967 404.233 421.36 399.54L419.41 398.7Z" fill="white"/>
<path d="M420.67 375.85H387.13L387.4 379.24L387.6 381.66L388.11 387.96L388.4 391.57L388.79 396.39L388.95 398.45L389.01 399.07L389.21 401.5L389.47 404.82L389.64 406.89L389.81 408.99L390.01 411.41L390.16 413.25L390.33 415.32L390.4 416.21H421.19L421.26 415.32L421.42 413.26L421.57 411.41L421.77 408.98L421.94 406.89L422.11 404.82L422.38 401.49L422.57 399.07L422.62 398.45L422.79 396.39L423.18 391.57L423.47 387.96L423.98 381.66L424.17 379.24L424.45 375.85H420.67ZM422.67 378.07L422.02 377.42H422.73L422.67 378.07ZM422.51 380.13L422.44 380.95L419.44 383.95L416 380.51L419.09 377.42H419.81L422.51 380.13ZM421.64 390.86L419.44 393.06L416 389.62L419.45 386.18L421.83 388.56L421.64 390.86ZM389.72 388.56L392.1 386.18L395.54 389.62L392.1 393.06L389.9 390.86L389.72 388.56ZM418.33 385.06L414.88 388.51L411.44 385.06L414.88 381.62L418.33 385.06ZM412.91 377.42H416.85L414.85 379.42L412.91 377.42ZM413.76 389.62L410.33 393.06L406.88 389.62L410.33 386.18L413.76 389.62ZM402.33 394.17L405.77 390.74L409.21 394.17L405.77 397.62L402.33 394.17ZM404.65 398.73L401.21 402.18L397.77 398.74L401.22 395.29L404.65 398.73ZM410.33 395.29L413.76 398.74L410.33 402.18L406.88 398.73L410.33 395.29ZM405.77 388.51L402.33 385.06L405.77 381.62L409.21 385.06L405.77 388.51ZM404.65 389.62L401.22 393.06L397.77 389.62L401.22 386.18L404.65 389.62ZM396.65 388.51L393.21 385.06L396.65 381.62L400.1 385.06L396.65 388.51ZM396.65 390.74L400.1 394.17L396.65 397.62L393.21 394.17L396.65 390.74ZM400.1 403.29L396.65 406.73L393.21 403.29L396.65 399.85L400.1 403.29ZM401.21 404.41L404.65 407.85L401.22 411.3L397.77 407.85L401.21 404.41ZM402.33 403.29L405.77 399.85L409.21 403.29L405.77 406.73L402.33 403.29ZM410.33 404.41L413.76 407.85L410.33 411.3L406.88 407.85L410.33 404.41ZM414.9 409L418.35 412.45L416.12 414.68H413.69L411.46 412.45L414.9 409ZM411.46 403.33L414.9 399.89L418.35 403.33L414.9 406.77L411.46 403.33ZM411.46 394.21L414.9 390.78L418.35 394.21L414.9 397.66L411.46 394.21ZM413.78 380.55L410.35 384L406.9 380.56L409.98 377.47H410.71L413.78 380.55ZM405.78 379.44L403.78 377.44H407.71L405.78 379.44ZM404.66 380.55L401.24 384L397.79 380.56L400.87 377.47H401.6L404.66 380.55ZM398.66 377.46L396.66 379.46L394.66 377.46H398.66ZM392.5 377.46L395.58 380.55L392.12 384L389.12 381L389.06 380.18L391.75 377.47L392.5 377.46ZM389.5 377.46L388.86 378.1L388.81 377.46H389.5ZM389.29 383.46L390.97 385.14L389.54 386.58L389.29 383.46ZM390.23 395L390.09 393.37L390.97 394.25L390.23 395ZM390.39 397.08L392.09 395.37L395.53 398.82L392.09 402.26L390.7 400.87L390.39 397.08ZM390.9 403.45V403.3L390.97 403.37L390.9 403.45ZM391.5 410.78L391.07 405.5L392.07 404.5L395.51 407.94L392.07 411.38L391.48 410.79L391.5 410.78ZM391.82 414.72L391.75 413.93L392.09 413.6L393.2 414.72H391.82ZM393.2 412.49L396.64 409.04L400.09 412.49L397.86 414.72H395.43L393.2 412.49ZM400.09 414.72L401.21 413.6L402.32 414.72H400.09ZM404.55 414.72L402.32 412.49L405.76 409.04L409.2 412.49L407 414.64L404.55 414.72ZM409.2 414.72L410.32 413.6L411.44 414.72H409.2ZM419.7 414.72H418.31L419.43 413.6L419.76 413.93L419.7 414.72ZM420.02 410.78L419.43 411.37L416 407.85L419.45 404.41L420.45 405.41L420.02 410.78ZM420.63 403.29V403.45L420.56 403.37L420.65 403.29H420.63ZM420.82 400.87L419.43 402.26L416 398.74L419.45 395.29L421.15 397L420.82 400.87ZM421.3 395.01L420.54 394.25L421.43 393.37L421.3 395.01ZM422.24 383.45L421.98 386.59L420.54 385.14L422.24 383.45Z" fill="#C53F3F"/>
<g opacity="0.6">
<path opacity="0.6" d="M420.67 375.85H387.13L387.4 379.24L387.6 381.66L388.11 387.96L388.4 391.57L388.79 396.39L388.95 398.45L389.01 399.07L389.21 401.5L389.47 404.82L389.64 406.89L389.81 408.99L390.01 411.41L390.16 413.25L390.33 415.32L390.4 416.21H421.19L421.26 415.32L421.42 413.26L421.57 411.41L421.77 408.98L421.94 406.89L422.11 404.82L422.38 401.49L422.57 399.07L422.62 398.45L422.79 396.39L423.18 391.57L423.47 387.96L423.98 381.66L424.17 379.24L424.45 375.85H420.67ZM422.67 378.07L422.02 377.42H422.73L422.67 378.07ZM422.51 380.13L422.44 380.95L419.44 383.95L416 380.51L419.09 377.42H419.81L422.51 380.13ZM421.64 390.86L419.44 393.06L416 389.62L419.45 386.18L421.83 388.56L421.64 390.86ZM389.72 388.56L392.1 386.18L395.54 389.62L392.1 393.06L389.9 390.86L389.72 388.56ZM418.33 385.06L414.88 388.51L411.44 385.06L414.88 381.62L418.33 385.06ZM412.91 377.42H416.85L414.85 379.42L412.91 377.42ZM413.76 389.62L410.33 393.06L406.88 389.62L410.33 386.18L413.76 389.62ZM402.33 394.17L405.77 390.74L409.21 394.17L405.77 397.62L402.33 394.17ZM404.65 398.73L401.21 402.18L397.77 398.74L401.22 395.29L404.65 398.73ZM410.33 395.29L413.76 398.74L410.33 402.18L406.88 398.73L410.33 395.29ZM405.77 388.51L402.33 385.06L405.77 381.62L409.21 385.06L405.77 388.51ZM404.65 389.62L401.22 393.06L397.77 389.62L401.22 386.18L404.65 389.62ZM396.65 388.51L393.21 385.06L396.65 381.62L400.1 385.06L396.65 388.51ZM396.65 390.74L400.1 394.17L396.65 397.62L393.21 394.17L396.65 390.74ZM400.1 403.29L396.65 406.73L393.21 403.29L396.65 399.85L400.1 403.29ZM401.21 404.41L404.65 407.85L401.22 411.3L397.77 407.85L401.21 404.41ZM402.33 403.29L405.77 399.85L409.21 403.29L405.77 406.73L402.33 403.29ZM410.33 404.41L413.76 407.85L410.33 411.3L406.88 407.85L410.33 404.41ZM414.9 409L418.35 412.45L416.12 414.68H413.69L411.46 412.45L414.9 409ZM411.46 403.33L414.9 399.89L418.35 403.33L414.9 406.77L411.46 403.33ZM411.46 394.21L414.9 390.78L418.35 394.21L414.9 397.66L411.46 394.21ZM413.78 380.55L410.35 384L406.9 380.56L409.98 377.47H410.71L413.78 380.55ZM405.78 379.44L403.78 377.44H407.71L405.78 379.44ZM404.66 380.55L401.24 384L397.79 380.56L400.87 377.47H401.6L404.66 380.55ZM398.66 377.46L396.66 379.46L394.66 377.46H398.66ZM392.5 377.46L395.58 380.55L392.12 384L389.12 381L389.06 380.18L391.75 377.47L392.5 377.46ZM389.5 377.46L388.86 378.1L388.81 377.46H389.5ZM389.29 383.46L390.97 385.14L389.54 386.58L389.29 383.46ZM390.23 395L390.09 393.37L390.97 394.25L390.23 395ZM390.39 397.08L392.09 395.37L395.53 398.82L392.09 402.26L390.7 400.87L390.39 397.08ZM390.9 403.45V403.3L390.97 403.37L390.9 403.45ZM391.5 410.78L391.07 405.5L392.07 404.5L395.51 407.94L392.07 411.38L391.48 410.79L391.5 410.78ZM391.82 414.72L391.75 413.93L392.09 413.6L393.2 414.72H391.82ZM393.2 412.49L396.64 409.04L400.09 412.49L397.86 414.72H395.43L393.2 412.49ZM400.09 414.72L401.21 413.6L402.32 414.72H400.09ZM404.55 414.72L402.32 412.49L405.76 409.04L409.2 412.49L407 414.64L404.55 414.72ZM409.2 414.72L410.32 413.6L411.44 414.72H409.2ZM419.7 414.72H418.31L419.43 413.6L419.76 413.93L419.7 414.72ZM420.02 410.78L419.43 411.37L416 407.85L419.45 404.41L420.45 405.41L420.02 410.78ZM420.63 403.29V403.45L420.56 403.37L420.65 403.29H420.63ZM420.82 400.87L419.43 402.26L416 398.74L419.45 395.29L421.15 397L420.82 400.87ZM421.3 395.01L420.54 394.25L421.43 393.37L421.3 395.01ZM422.24 383.45L421.98 386.59L420.54 385.14L422.24 383.45Z" fill="white"/>
</g>
<path d="M386.62 378.83H424.96C425.866 378.83 426.6 378.096 426.6 377.19V376.08C426.6 375.174 425.866 374.44 424.96 374.44H386.62C385.714 374.44 384.98 375.174 384.98 376.08V377.19C384.98 378.096 385.714 378.83 386.62 378.83Z" fill="#C53F3F"/>
<path d="M421.96 413.85H389.62C388.714 413.85 387.98 414.584 387.98 415.49V416.6C387.98 417.506 388.714 418.24 389.62 418.24H421.96C422.866 418.24 423.6 417.506 423.6 416.6V415.49C423.6 414.584 422.866 413.85 421.96 413.85Z" fill="#C53F3F"/>
<path d="M366.93 396.24L339.05 393.5V362.06H328V393.49L300 396.24C298.659 396.372 297.414 396.997 296.509 397.995C295.603 398.993 295.101 400.292 295.1 401.64V405.83H371.81V401.64C371.81 400.295 371.31 398.999 370.409 398.001C369.507 397.004 368.268 396.376 366.93 396.24V396.24Z" fill="#263238"/>
<path opacity="0.1" d="M366.93 396.24L339.05 393.5V362.06H328V393.49L300 396.24C298.659 396.372 297.414 396.997 296.509 397.995C295.603 398.993 295.101 400.292 295.1 401.64V405.83H371.81V401.64C371.81 400.295 371.31 398.999 370.409 398.001C369.507 397.004 368.268 396.376 366.93 396.24V396.24Z" fill="white"/>
<path d="M298.06 418.24C302.048 418.24 305.28 415.007 305.28 411.02C305.28 407.032 302.048 403.8 298.06 403.8C294.073 403.8 290.84 407.032 290.84 411.02C290.84 415.007 294.073 418.24 298.06 418.24Z" fill="#263238"/>
<path d="M368.87 418.24C372.858 418.24 376.09 415.007 376.09 411.02C376.09 407.032 372.858 403.8 368.87 403.8C364.883 403.8 361.65 407.032 361.65 411.02C361.65 415.007 364.883 418.24 368.87 418.24Z" fill="#263238"/>
<path d="M326.1 335.58H341V366.34C341 367.435 340.565 368.486 339.79 369.26C339.016 370.035 337.965 370.47 336.87 370.47H330.28C329.185 370.47 328.134 370.035 327.36 369.26C326.585 368.486 326.15 367.435 326.15 366.34V335.58H326.1Z" fill="#263238"/>
<path opacity="0.2" d="M326.1 335.58H341V366.34C341 367.435 340.565 368.486 339.79 369.26C339.016 370.035 337.965 370.47 336.87 370.47H330.28C329.185 370.47 328.134 370.035 327.36 369.26C326.585 368.486 326.15 367.435 326.15 366.34V335.58H326.1Z" fill="white"/>
<path d="M372.11 275C372.11 275 363.83 326.68 347.5 335.57H364.1C364.1 335.57 380.51 318 385.51 275H372.11Z" fill="#263238"/>
<path opacity="0.1" d="M372.11 275C372.11 275 363.83 326.68 347.5 335.57H364.1C364.1 335.57 380.51 318 385.51 275H372.11Z" fill="white"/>
<path d="M369.76 339.59H295.33V333.28C295.33 331.954 295.857 330.682 296.794 329.744C297.732 328.807 299.004 328.28 300.33 328.28H364.76C366.086 328.28 367.358 328.807 368.296 329.744C369.233 330.682 369.76 331.954 369.76 333.28V339.59Z" fill="#C53F3F"/>
<path d="M294.24 339.59H370.85C371.96 339.59 372.86 338.69 372.86 337.58V335.94C372.86 334.83 371.96 333.93 370.85 333.93H294.24C293.13 333.93 292.23 334.83 292.23 335.94V337.58C292.23 338.69 293.13 339.59 294.24 339.59Z" fill="#263238"/>
<path opacity="0.6" d="M294.24 339.59H370.85C371.96 339.59 372.86 338.69 372.86 337.58V335.94C372.86 334.83 371.96 333.93 370.85 333.93H294.24C293.13 333.93 292.23 334.83 292.23 335.94V337.58C292.23 338.69 293.13 339.59 294.24 339.59Z" fill="white"/>
<path d="M387.47 285.51H360.86C353.07 285.51 348.01 279.26 349.56 271.51L351.63 261.22C353.17 253.51 360.75 247.22 368.54 247.22H395.14C402.94 247.22 408 253.47 406.45 261.22L404.38 271.51C402.83 279.26 395.26 285.51 387.47 285.51Z" fill="#C53F3F"/>
<path d="M252.72 250.89L245.83 247C244.754 246.131 243.485 245.534 242.13 245.26C238.327 245.197 234.527 245.495 230.78 246.15C229.78 246.54 230.14 254.57 230.78 254.7C231.42 254.83 241.37 254.95 242.26 254.7C243.15 254.45 245.32 252.02 245.32 252.02L250.43 255.44L252.72 250.89Z" fill="#EBB376"/>
<path d="M283.9 240.13C280.28 243.37 268.9 256.94 267.12 257.43C265.34 257.92 248.7 247.43 248.7 247.43L246.34 254.04C246.34 254.04 262 266.93 267.12 267.82C272.67 268.82 291.17 253.82 291.17 253.82L283.9 240.13Z" fill="#C53F3F"/>
<path opacity="0.5" d="M291.17 253.82C291.17 253.82 287 257.2 282 260.64C276.5 264.44 270 268.33 267.11 267.82C261.98 266.94 246.32 254.05 246.32 254.05L248.68 247.44C248.68 247.44 265.34 257.91 267.11 257.44C268.88 256.97 280.27 243.38 283.87 240.14L288.63 249.08L291.17 253.82Z" fill="white"/>
<path opacity="0.2" d="M291.17 253.82C291.17 253.82 287 257.2 282 260.64C282.85 255.93 286.69 251.2 288.63 249.07L291.17 253.82Z" fill="black"/>
<path d="M301.53 282.54C301.53 282.54 284.72 253.16 283.9 240.13C283.9 240.13 289.67 229.46 297.24 227.13C304.81 224.8 324.85 226.13 324.85 226.13C324.85 226.13 340.7 242.39 349.28 279.38L301.53 282.54Z" fill="#C53F3F"/>
<path opacity="0.7" d="M301.53 282.54C301.53 282.54 284.72 253.16 283.9 240.13C283.9 240.13 289.67 229.46 297.24 227.13C304.81 224.8 324.85 226.13 324.85 226.13C324.85 226.13 340.7 242.39 349.28 279.38L301.53 282.54Z" fill="white"/>
<path opacity="0.1" d="M313.39 248.51L323.35 246.17L326.98 255.38L323.15 259.47L316.91 257.43L313.39 248.51Z" fill="black"/>
<path d="M310.43 408.3L301.89 409.89L294.31 390.86L302.84 389.28L310.43 408.3Z" fill="#EBB376"/>
<path opacity="0.2" d="M302.84 389.28L294.32 390.87L298.65 401.75L307.03 399.76L302.84 389.28Z" fill="black"/>
<path d="M219.61 411.56L212.5 406.58L220.78 387.85L227.88 392.83L219.61 411.56Z" fill="#EBB376"/>
<path opacity="0.2" d="M227.88 392.83L220.78 387.86L216.05 398.57L223.33 403.16L227.88 392.83Z" fill="black"/>
<path d="M338.41 311.45L311.16 319.8L256.8 336.48C244.27 365.58 228.92 396 228.92 396L214.7 390.16C214.7 390.16 230.01 339.07 234.48 326.3C241.62 305.92 317.9 292.3 317.9 292.3L338.41 311.45Z" fill="#263238"/>
<path d="M228.21 401.34L210.7 393.76L212.98 385.76L232.02 394.45L228.21 401.34Z" fill="#C53F3F"/>
<path opacity="0.2" d="M228.21 401.34L210.7 393.76L212.98 385.76L232.02 394.45L228.21 401.34Z" fill="white"/>
<path d="M211.41 406.07C211.41 406.07 211.31 405.97 211.31 405.96L211.2 405.85L211.32 405.95C211.38 405.83 212.59 403.69 212.14 402.58C212.082 402.441 211.994 402.316 211.881 402.215C211.769 402.115 211.635 402.041 211.49 402C211.33 401.939 211.155 401.933 210.991 401.984C210.828 402.034 210.687 402.139 210.59 402.28C210.297 402.967 210.255 403.735 210.47 404.45C209.89 403.72 209.16 402.99 208.55 402.96C208.421 402.96 208.294 402.991 208.179 403.05C208.064 403.109 207.965 403.195 207.89 403.3C207.75 403.45 207.654 403.637 207.616 403.838C207.577 404.04 207.596 404.249 207.67 404.44C207.97 404.926 208.441 405.283 208.99 405.44C209.701 405.733 210.442 405.948 211.2 406.08H211.27H211.33L211.41 406.07ZM210.92 402.55C210.99 402.45 211.11 402.35 211.39 402.44H211.48C211.554 402.472 211.62 402.519 211.675 402.577C211.73 402.635 211.773 402.705 211.8 402.78C212.08 403.44 211.59 404.73 211.24 405.48C211.207 405.421 211.17 405.364 211.13 405.31C210.747 404.441 210.673 403.467 210.92 402.55V402.55ZM208 404.29C207.96 404.167 207.954 404.035 207.982 403.908C208.01 403.782 208.072 403.665 208.16 403.57C208.194 403.517 208.242 403.473 208.298 403.443C208.354 403.413 208.417 403.399 208.48 403.4C209.09 403.4 210.12 404.67 210.78 405.66C209.28 405.32 208.26 404.82 208 404.29Z" fill="#C53F3F"/>
<path d="M212.4 405.36L221.32 409.26C221.396 409.289 221.466 409.332 221.525 409.388C221.584 409.444 221.631 409.512 221.664 409.586C221.696 409.661 221.714 409.741 221.715 409.822C221.716 409.904 221.701 409.985 221.67 410.06V410.06L219 417.32C218.837 417.688 218.537 417.978 218.163 418.128C217.789 418.277 217.372 418.275 217 418.12C213.91 416.71 212.51 415.88 208.6 414.12C206.19 413.06 201.33 411.2 198.27 409.23C195.21 407.26 197.27 404.29 198.71 404.85C202.2 406.17 207.81 405.99 210.82 405.21C211.349 405.081 211.905 405.134 212.4 405.36V405.36Z" fill="#263238"/>
<path d="M300.83 409C300.83 408.85 300.68 406.39 299.78 405.61C299.638 405.505 299.476 405.432 299.303 405.394C299.131 405.356 298.953 405.355 298.78 405.39C298.602 405.402 298.434 405.472 298.3 405.59C298.166 405.707 298.075 405.865 298.04 406.04C298.074 406.787 298.375 407.497 298.89 408.04C298.168 407.612 297.318 407.452 296.49 407.59C296.372 407.647 296.27 407.733 296.193 407.839C296.116 407.946 296.067 408.07 296.05 408.2C295.995 408.397 295.996 408.604 296.053 408.8C296.109 408.996 296.219 409.173 296.37 409.31C296.861 409.618 297.449 409.732 298.02 409.63C298.788 409.565 299.546 409.414 300.28 409.18C300.291 409.185 300.303 409.187 300.315 409.187C300.327 409.187 300.339 409.185 300.35 409.18C300.35 409.18 300.35 409.18 300.35 409.12C300.35 409.06 300.56 409.07 300.57 409.04H300.75L300.83 409ZM298.44 406.12C298.44 406 298.52 405.86 298.8 405.81H298.9C298.98 405.805 299.061 405.817 299.137 405.844C299.212 405.872 299.281 405.915 299.34 405.97C299.89 406.43 300.04 407.8 300.08 408.62L299.9 408.52C299.143 407.92 298.625 407.069 298.44 406.12V406.12ZM296.67 409C296.58 408.908 296.515 408.794 296.482 408.67C296.449 408.546 296.448 408.415 296.48 408.29C296.484 408.225 296.506 408.163 296.543 408.11C296.58 408.057 296.631 408.016 296.69 407.99C297.24 407.73 298.69 408.37 299.77 408.94C298.24 409.34 297.1 409.36 296.67 409Z" fill="#C53F3F"/>
<path d="M301 408L310.72 407.39C310.8 407.382 310.881 407.389 310.958 407.413C311.036 407.436 311.107 407.474 311.17 407.525C311.232 407.576 311.284 407.639 311.321 407.711C311.359 407.782 311.383 407.86 311.39 407.94V407.94L312.39 415.6C312.415 416.004 312.28 416.401 312.014 416.706C311.748 417.011 311.373 417.199 310.97 417.23C307.58 417.38 305.97 417.29 301.67 417.52C299.05 417.68 293.87 418.24 290.25 417.89C286.63 417.54 287.07 413.96 288.64 413.79C292.35 413.37 297.26 410.65 299.58 408.58C299.977 408.237 300.476 408.033 301 408V408Z" fill="#263238"/>
<path d="M284.9 231.82C286.388 231.295 288.012 231.295 289.5 231.82C289.842 233.275 290.66 234.573 291.826 235.508C292.991 236.443 294.436 236.961 295.93 236.98C296.668 237.017 297.408 236.987 298.14 236.89C305.63 235.89 304.81 224.72 304.81 224.72C302.079 224.915 299.355 224.262 297.01 222.85V222.85C295.02 221.682 293.282 220.128 291.9 218.28L284.9 231.82Z" fill="#EBB376"/>
<path opacity="0.2" d="M284.9 231.82C286.388 231.295 288.012 231.295 289.5 231.82C289.842 233.275 290.66 234.573 291.826 235.508C292.991 236.443 294.436 236.961 295.93 236.98C297.86 232.21 297.61 226.75 297.01 222.85C295.02 221.682 293.282 220.128 291.9 218.28L284.9 231.82Z" fill="black"/>
<path d="M279.68 207.2C283.38 208.8 282.6 212.85 276.3 220.2C272.55 216.87 270.61 209.38 272.64 207.02C274.67 204.66 276.45 205.81 279.68 207.2Z" fill="#263238"/>
<path d="M294.93 210.63C296.09 218.71 297.17 223.38 294 228.31C289.22 235.72 278.62 234.11 275.06 226.53C271.88 219.73 270.51 207.66 277.66 202.88C279.231 201.82 281.047 201.179 282.935 201.016C284.823 200.854 286.721 201.176 288.45 201.952C290.179 202.728 291.682 203.932 292.816 205.451C293.95 206.969 294.677 208.752 294.93 210.63V210.63Z" fill="#EBB376"/>
<path d="M283.47 215.29C283.61 215.94 283.37 216.53 282.94 216.62C282.51 216.71 282.07 216.26 281.94 215.62C281.81 214.98 282.03 214.37 282.46 214.28C282.89 214.19 283.29 214.66 283.47 215.29Z" fill="#263238"/>
<path d="M276.09 216.83C276.23 217.47 275.99 218.07 275.57 218.16C275.15 218.25 274.69 217.8 274.57 217.16C274.45 216.52 274.67 215.91 275.1 215.83C275.53 215.75 276 216.18 276.09 216.83Z" fill="#263238"/>
<path d="M278.56 216.63C278.198 218.777 277.542 220.863 276.61 222.83C277.121 223.054 277.675 223.164 278.233 223.152C278.791 223.14 279.339 223.006 279.84 222.76L278.56 216.63Z" fill="#D58745"/>
<path d="M290.29 204.22C286.82 206.27 288.11 210.22 295.29 216.64C298.59 212.85 299.57 205.17 297.29 203.1C295.01 201.03 293.32 202.44 290.29 204.22Z" fill="#263238"/>
<path d="M300.05 216.23C299.896 218.277 298.936 220.18 297.38 221.52C295.3 223.27 293.14 221.69 292.77 219.14C292.44 216.84 293.12 213.14 295.66 212.4C298.2 211.66 300.23 213.72 300.05 216.23Z" fill="#EBB376"/>
<path d="M286.78 211.47C286.724 211.521 286.656 211.555 286.582 211.571C286.508 211.587 286.432 211.583 286.36 211.56C285.87 211.374 285.344 211.304 284.823 211.358C284.302 211.412 283.801 211.587 283.36 211.87C283.274 211.938 283.164 211.968 283.055 211.955C282.947 211.942 282.848 211.886 282.78 211.8C282.712 211.714 282.682 211.604 282.695 211.496C282.708 211.387 282.764 211.288 282.85 211.22V211.22C283.395 210.854 284.02 210.623 284.672 210.546C285.324 210.47 285.985 210.55 286.6 210.78C286.651 210.796 286.698 210.822 286.739 210.856C286.78 210.891 286.813 210.933 286.837 210.98C286.862 211.028 286.876 211.08 286.88 211.133C286.884 211.186 286.877 211.239 286.86 211.29V211.29C286.843 211.354 286.816 211.415 286.78 211.47V211.47Z" fill="#263238"/>
<path d="M272.08 213.46C271.997 213.448 271.92 213.409 271.86 213.35C271.801 213.259 271.78 213.149 271.801 213.043C271.821 212.937 271.882 212.843 271.97 212.78V212.78C272.514 212.412 273.139 212.179 273.791 212.103C274.444 212.026 275.105 212.107 275.72 212.34C275.77 212.361 275.816 212.391 275.853 212.43C275.891 212.469 275.921 212.514 275.941 212.565C275.96 212.615 275.97 212.669 275.968 212.724C275.966 212.778 275.953 212.831 275.93 212.88C275.886 212.979 275.805 213.057 275.704 213.097C275.602 213.136 275.49 213.134 275.39 213.09C274.894 212.917 274.363 212.864 273.842 212.933C273.321 213.003 272.824 213.193 272.39 213.49C272.339 213.507 272.285 213.512 272.232 213.507C272.179 213.502 272.127 213.486 272.08 213.46Z" fill="#263238"/>
<path d="M296.38 204C296.38 204 298.16 200.46 293.48 197.39C288.8 194.32 274.64 196.72 269.57 203.14C264.5 209.56 268.9 213.47 268.9 213.47C268.687 212.407 268.853 211.303 269.37 210.35C269.9 211.428 270.758 212.31 271.82 212.87C273.43 213.59 272.36 213.36 272.36 213.36C272.292 211.668 272.839 210.009 273.9 208.69C275.117 209.883 276.596 210.773 278.22 211.29C278.573 209.894 279.405 208.666 280.57 207.82C280.57 207.82 281.45 210.65 282.8 210.92C282.8 210.92 282.68 208.61 285.8 206.92C285.8 206.92 286.15 209.12 287.03 209.7C287.06 209.78 288.55 204.8 296.38 204Z" fill="#263238"/>
<path d="M281.92 225.48C281.849 225.48 281.779 225.459 281.72 225.42C281.677 225.394 281.64 225.36 281.611 225.32C281.581 225.28 281.56 225.234 281.549 225.186C281.538 225.137 281.537 225.087 281.546 225.038C281.554 224.989 281.573 224.942 281.6 224.9C282.763 223.246 284.457 222.039 286.4 221.48C286.447 221.465 286.496 221.459 286.545 221.464C286.593 221.468 286.641 221.482 286.684 221.506C286.727 221.529 286.765 221.561 286.795 221.6C286.825 221.638 286.847 221.683 286.86 221.73C286.888 221.825 286.878 221.928 286.831 222.016C286.784 222.104 286.705 222.17 286.61 222.2C284.845 222.715 283.303 223.806 282.23 225.3C282.199 225.354 282.153 225.4 282.099 225.431C282.045 225.463 281.983 225.48 281.92 225.48V225.48Z" fill="#263238"/>
<path d="M282.27 220C281.372 219.919 280.528 219.537 279.875 218.916C279.222 218.296 278.797 217.472 278.67 216.58C278.25 214.37 279.43 212.28 281.3 211.92C283.17 211.56 285.03 213.08 285.45 215.29C285.657 216.311 285.502 217.372 285.01 218.29C284.789 218.71 284.479 219.075 284.1 219.361C283.721 219.646 283.284 219.844 282.82 219.94C282.639 219.975 282.455 219.995 282.27 220V220ZM281.85 212.4C281.7 212.385 281.55 212.385 281.4 212.4C279.82 212.7 278.82 214.51 279.19 216.4C279.55 218.32 281.13 219.66 282.72 219.35C283.109 219.269 283.476 219.102 283.792 218.862C284.109 218.621 284.368 218.313 284.55 217.96C284.984 217.149 285.118 216.211 284.93 215.31C284.827 214.542 284.466 213.832 283.906 213.296C283.347 212.76 282.622 212.43 281.85 212.36V212.4Z" fill="#263238"/>
<path d="M273.67 221.45C272.905 221.439 272.169 221.159 271.59 220.66C270.794 219.983 270.26 219.049 270.08 218.02C269.66 215.81 270.84 213.73 272.71 213.37C273.177 213.29 273.657 213.315 274.113 213.443C274.57 213.571 274.992 213.799 275.35 214.11C276.145 214.783 276.679 215.714 276.86 216.74C277.061 217.761 276.906 218.82 276.42 219.74C276.199 220.159 275.889 220.523 275.51 220.807C275.131 221.09 274.694 221.286 274.23 221.38C274.046 221.423 273.859 221.447 273.67 221.45ZM270.6 217.93C270.756 218.834 271.223 219.654 271.92 220.25C272.214 220.511 272.564 220.702 272.943 220.806C273.322 220.911 273.721 220.927 274.107 220.854C274.493 220.78 274.858 220.619 275.172 220.383C275.486 220.146 275.742 219.841 275.92 219.49C276.343 218.67 276.479 217.732 276.307 216.826C276.135 215.92 275.664 215.098 274.97 214.49C274.673 214.229 274.321 214.038 273.94 213.931C273.56 213.823 273.16 213.803 272.77 213.87C271.18 214.17 270.19 215.98 270.56 217.87L270.6 217.93Z" fill="#263238"/>
<path d="M276.6 217.05C276.543 217.05 276.487 217.033 276.44 217C276.412 216.979 276.388 216.953 276.371 216.923C276.353 216.893 276.341 216.86 276.337 216.826C276.332 216.791 276.334 216.756 276.344 216.722C276.353 216.689 276.368 216.657 276.39 216.63C276.716 216.253 277.167 216.008 277.66 215.94C278.153 215.872 278.655 215.986 279.07 216.26C279.128 216.297 279.17 216.355 279.187 216.422C279.203 216.489 279.194 216.56 279.16 216.62C279.143 216.651 279.119 216.678 279.09 216.7C279.062 216.722 279.029 216.737 278.995 216.746C278.96 216.754 278.924 216.755 278.889 216.749C278.853 216.743 278.82 216.73 278.79 216.71C278.483 216.505 278.112 216.417 277.746 216.461C277.379 216.505 277.04 216.678 276.79 216.95C276.767 216.979 276.739 217.003 276.706 217.021C276.673 217.038 276.637 217.048 276.6 217.05V217.05Z" fill="#263238"/>
<path d="M285.19 215.57C285.132 215.569 285.076 215.549 285.031 215.513C284.985 215.477 284.953 215.426 284.94 215.37C284.922 215.304 284.93 215.233 284.964 215.173C284.998 215.113 285.054 215.069 285.12 215.05L292.62 212.95C292.689 212.934 292.761 212.945 292.822 212.98C292.883 213.016 292.929 213.073 292.95 213.14C292.965 213.208 292.954 213.278 292.919 213.338C292.884 213.398 292.827 213.441 292.76 213.46L285.26 215.56L285.19 215.57Z" fill="#263238"/>
<path opacity="0.2" d="M311.16 319.8L256.8 336.48C256.8 336.48 254.8 321.48 264.59 314.48C278.89 304.22 310.43 301.35 310.43 301.35C310.43 301.35 310.82 310.27 311.16 319.8Z" fill="black"/>
<path d="M300.27 302.55L302.37 289.4L301.53 282.54L349.28 279.35L350 287C350 287 355.68 313.84 351.74 321.12C344.74 334.12 315.74 333.61 290.55 333.61C296.02 349.61 307 390.11 307 390.11L293.83 396.11C293.83 396.11 268.42 349.89 262.65 329.88C257.58 312.21 282.29 306.91 300.27 302.55Z" fill="#263238"/>
<path d="M309.99 393.73L292.32 400.92L288.2 393.7L307.74 386.18L309.99 393.73Z" fill="#C53F3F"/>
<path opacity="0.2" d="M309.99 393.73L292.32 400.92L288.2 393.7L307.74 386.18L309.99 393.73Z" fill="white"/>
<path d="M334.31 287.49L350.58 286.52L349.6 280.48L333.69 281.5L334.31 287.49Z" fill="black"/>
<path d="M304.23 283.38L301.53 283.56L302.37 289.4L304.7 289.26L304.23 283.38Z" fill="black"/>
<path d="M306.61 289.15L332.4 287.61L331.92 281.61L306 283.27L306.61 289.15Z" fill="black"/>
<path d="M314.19 289.23C313.628 289.232 313.087 289.022 312.674 288.642C312.26 288.262 312.005 287.74 311.96 287.18L311.77 285C311.717 284.414 311.897 283.832 312.272 283.378C312.647 282.925 313.185 282.638 313.77 282.58L318.4 282.18C318.694 282.151 318.991 282.183 319.273 282.272C319.555 282.362 319.816 282.507 320.04 282.7C320.264 282.889 320.448 283.121 320.582 283.382C320.716 283.643 320.797 283.928 320.82 284.22L321.01 286.4C321.037 286.694 321.005 286.991 320.915 287.272C320.826 287.554 320.681 287.815 320.49 288.04C320.303 288.267 320.072 288.454 319.81 288.59C319.549 288.726 319.263 288.807 318.97 288.83V288.33V288.83L314.34 289.22L314.19 289.23ZM318.63 283.17H318.53L313.9 283.57C313.737 283.583 313.579 283.627 313.434 283.702C313.289 283.776 313.16 283.879 313.054 284.003C312.949 284.128 312.87 284.272 312.821 284.428C312.772 284.584 312.755 284.748 312.77 284.91L312.95 287.1C312.98 287.427 313.138 287.729 313.39 287.94C313.642 288.148 313.964 288.252 314.29 288.23L318.92 287.83C319.084 287.816 319.243 287.77 319.389 287.695C319.535 287.619 319.664 287.516 319.77 287.39C319.979 287.139 320.083 286.816 320.06 286.49L319.87 284.31C319.856 284.146 319.81 283.987 319.735 283.841C319.659 283.695 319.556 283.566 319.43 283.46C319.207 283.27 318.923 283.167 318.63 283.17Z" fill="white"/>
<path d="M317.48 286.2C317.359 286.199 317.243 286.155 317.151 286.077C317.06 285.998 316.999 285.889 316.98 285.77C316.963 285.639 316.999 285.506 317.079 285.401C317.16 285.296 317.279 285.227 317.41 285.21L319.32 284.95C319.385 284.939 319.452 284.941 319.516 284.956C319.581 284.971 319.641 284.999 319.695 285.038C319.748 285.078 319.793 285.127 319.826 285.184C319.86 285.241 319.882 285.304 319.89 285.37C319.907 285.502 319.872 285.636 319.791 285.743C319.711 285.849 319.592 285.92 319.46 285.94L317.54 286.2H317.48Z" fill="white"/>
<path opacity="0.2" d="M300.47 241.23C300.47 241.23 305.31 258.34 311.16 269.92C311.16 269.92 301.95 252.75 298.51 239.52L300.47 241.23Z" fill="black"/>
<path d="M300.72 244.42L303.21 241.17H304.55L306.46 243.17L306.65 245.45C304.3 246.5 300.72 245.45 300.72 245.45V244.42Z" fill="#C53F3F"/>
<path d="M303.11 242C303.057 237.847 302.609 233.708 301.77 229.64L303.11 230.22C304.376 234.302 304.831 238.593 304.45 242.85L303.11 242Z" fill="#C53F3F"/>
<path d="M301.42 244.52C301.42 244.52 292.01 240.8 291.11 234.7L290.45 235.85C290.45 235.85 292.69 243.56 302.59 245.47L301.42 244.52Z" fill="#C53F3F"/>
<path d="M305.34 243.94C306.301 243.786 307.21 243.401 307.989 242.817C308.767 242.233 309.392 241.469 309.81 240.59C312.04 235.46 309.81 227.93 315.33 224.59L318.43 225.69C316.704 227.005 315.442 228.838 314.83 230.92C313.71 235.22 312.44 245.86 305.34 245.46V243.94Z" fill="#C53F3F"/>
<path d="M303.12 222.86L298.51 234.18L298.14 236.89L294.87 235.33L289.6 232.19C289.6 232.19 287.26 235.46 291.17 240.56L294.87 237.5L300.06 243.19L301.53 236.19L307.58 238.14C307.58 238.14 310 228 310 225.1L303.12 222.86Z" fill="#C53F3F"/>
<path opacity="0.6" d="M310 225.1C310 228.02 307.57 238.17 307.57 238.17L301.51 236.22L300.05 243.22L294.86 237.53L291.16 240.59C287.25 235.49 289.58 232.22 289.58 232.22L294.86 235.36L298.13 236.92L298.5 234.21L303.1 222.89L310 225.1Z" fill="white"/>
<path opacity="0.2" d="M307.58 238.17L301.52 236.22L300.06 243.19L299.74 234.43L307.58 238.17Z" fill="black"/>
<path opacity="0.2" d="M300.06 243.19L294.87 237.5L291.17 240.56L293.81 235.84L300.06 243.19Z" fill="black"/>
<path d="M274.86 254.12L267.11 253.25C266.035 252.38 264.766 251.783 263.41 251.51C259.604 251.444 255.8 251.739 252.05 252.39C251.05 252.78 251.41 260.81 252.05 260.95C252.69 261.09 262.64 261.2 263.54 260.95C264.44 260.7 266.6 258.27 266.6 258.27L273.39 259.47L274.86 254.12Z" fill="#EBB376"/>
<path d="M324.85 226.1C321.65 226.75 306.85 254.86 306.85 254.86L268.76 253L268.19 259.52C268.19 259.52 302.32 266.95 310.01 265.52C317.7 264.09 331.57 240.09 332.4 237.45C334.29 231.44 327 225.66 324.85 226.1Z" fill="#C53F3F"/>
<path opacity="0.6" d="M324.85 226.1C321.65 226.75 306.85 254.86 306.85 254.86L268.76 253L268.19 259.52C268.19 259.52 302.32 266.95 310.01 265.52C317.7 264.09 331.57 240.09 332.4 237.45C334.29 231.44 327 225.66 324.85 226.1Z" fill="white"/>
<path d="M295.54 152.69H190.07C189.009 152.69 187.992 153.111 187.242 153.862C186.491 154.612 186.07 155.629 186.07 156.69C186.07 157.751 186.491 158.768 187.242 159.518C187.992 160.269 189.009 160.69 190.07 160.69H295.54C296.601 160.69 297.618 160.269 298.368 159.518C299.119 158.768 299.54 157.751 299.54 156.69C299.54 155.629 299.119 154.612 298.368 153.862C297.618 153.111 296.601 152.69 295.54 152.69Z" fill="#C53F3F"/>
<path opacity="0.6" d="M295.54 152.69H190.07C189.009 152.69 187.992 153.111 187.242 153.862C186.491 154.612 186.07 155.629 186.07 156.69C186.07 157.751 186.491 158.768 187.242 159.518C187.992 160.269 189.009 160.69 190.07 160.69H295.54C296.601 160.69 297.618 160.269 298.368 159.518C299.119 158.768 299.54 157.751 299.54 156.69C299.54 155.629 299.119 154.612 298.368 153.862C297.618 153.111 296.601 152.69 295.54 152.69Z" fill="white"/>
<path d="M253.73 153.59H190.15C189.354 153.635 188.606 153.983 188.059 154.562C187.511 155.141 187.207 155.908 187.207 156.705C187.207 157.502 187.511 158.269 188.059 158.848C188.606 159.427 189.354 159.775 190.15 159.82H253.73C254.526 159.775 255.274 159.427 255.821 158.848C256.368 158.269 256.673 157.502 256.673 156.705C256.673 155.908 256.368 155.141 255.821 154.562C255.274 153.983 254.526 153.635 253.73 153.59V153.59Z" fill="#C53F3F"/>
<path d="M220.1 141.88C220.1 142.88 219.35 143.54 218.1 143.54H216.92V145H216.23V140.22H218.1C219.35 140.21 220.1 140.84 220.1 141.88ZM219.42 141.88C219.42 141.19 218.96 140.8 218.09 140.8H216.93V143H218.09C219 143 219.42 142.56 219.42 141.88Z" fill="#C53F3F"/>
<path d="M224.31 145L223.31 143.53H223.01H221.83V145H221.15V140.22H223C224.25 140.22 225 140.85 225 141.89C225.016 142.222 224.921 142.55 224.731 142.823C224.542 143.096 224.267 143.299 223.95 143.4L225.08 145H224.31ZM224.31 141.89C224.31 141.2 223.85 140.81 222.97 140.81H221.81V143H223C223.83 143 224.29 142.56 224.29 141.88L224.31 141.89Z" fill="#C53F3F"/>
<path d="M225.69 142.6C225.672 142.094 225.806 141.595 226.074 141.165C226.342 140.736 226.732 140.396 227.194 140.19C227.656 139.984 228.17 139.921 228.668 140.008C229.167 140.096 229.628 140.33 229.992 140.682C230.356 141.033 230.607 141.485 230.713 141.98C230.818 142.475 230.773 142.991 230.584 143.46C230.395 143.929 230.069 144.332 229.65 144.615C229.231 144.898 228.736 145.05 228.23 145.05C227.9 145.065 227.571 145.013 227.262 144.896C226.953 144.779 226.671 144.601 226.433 144.371C226.195 144.142 226.007 143.867 225.879 143.562C225.751 143.258 225.687 142.93 225.69 142.6V142.6ZM230.09 142.6C230.094 142.231 229.988 141.87 229.786 141.561C229.584 141.253 229.295 141.011 228.956 140.867C228.616 140.724 228.242 140.684 227.88 140.753C227.517 140.823 227.184 140.998 226.922 141.258C226.66 141.517 226.481 141.848 226.407 142.21C226.334 142.571 226.37 142.946 226.51 143.287C226.65 143.628 226.888 143.92 227.195 144.125C227.501 144.33 227.861 144.44 228.23 144.44C228.475 144.448 228.719 144.406 228.947 144.317C229.175 144.228 229.382 144.093 229.556 143.921C229.73 143.748 229.868 143.542 229.959 143.315C230.051 143.088 230.096 142.845 230.09 142.6V142.6Z" fill="#C53F3F"/>
<path d="M235.13 142.57H235.79V144.44C235.271 144.846 234.629 145.062 233.97 145.05C233.571 145.032 233.182 144.917 232.838 144.715C232.493 144.513 232.203 144.23 231.993 143.89C231.783 143.55 231.66 143.163 231.633 142.765C231.607 142.366 231.678 141.967 231.841 141.602C232.004 141.238 232.254 140.918 232.569 140.672C232.884 140.426 233.254 140.261 233.647 140.191C234.04 140.12 234.445 140.147 234.825 140.269C235.206 140.391 235.551 140.604 235.83 140.89L235.4 141.31C235.219 141.129 235.004 140.987 234.767 140.893C234.529 140.798 234.275 140.753 234.02 140.76C233.532 140.76 233.064 140.954 232.719 141.299C232.374 141.644 232.18 142.112 232.18 142.6C232.18 143.088 232.374 143.556 232.719 143.901C233.064 144.246 233.532 144.44 234.02 144.44C234.416 144.45 234.806 144.342 235.14 144.13L235.13 142.57Z" fill="#C53F3F"/>
<path d="M240.29 145L239.29 143.53H238.99H237.8V145H237.12V140.22H239C240.24 140.22 241 140.85 241 141.89C241.019 142.216 240.932 142.539 240.752 142.812C240.571 143.084 240.308 143.29 240 143.4L241 145H240.29ZM240.29 141.89C240.29 141.2 239.83 140.81 238.96 140.81H237.79V143H238.96C239.81 143 240.27 142.56 240.27 141.88L240.29 141.89Z" fill="#C53F3F"/>
<path d="M245.53 144.4V145H242.06V140.22H245.43V140.81H242.74V142.28H245.14V142.86H242.74V144.41L245.53 144.4Z" fill="#C53F3F"/>
<path d="M246.2 144.45L246.45 143.91C246.896 144.274 247.454 144.472 248.03 144.47C248.86 144.47 249.21 144.15 249.21 143.73C249.21 142.56 246.31 143.3 246.31 141.52C246.31 140.78 246.89 140.15 248.15 140.15C248.691 140.138 249.224 140.288 249.68 140.58L249.46 141.12C249.067 140.873 248.614 140.738 248.15 140.73C247.33 140.73 246.98 141.08 246.98 141.49C246.98 142.66 249.88 141.93 249.88 143.69C249.88 144.42 249.29 145.05 248.03 145.05C247.369 145.068 246.722 144.856 246.2 144.45V144.45Z" fill="#C53F3F"/>
<path d="M250.44 144.45L250.69 143.91C251.137 144.273 251.695 144.471 252.27 144.47C253.1 144.47 253.46 144.15 253.46 143.73C253.46 142.56 250.56 143.3 250.56 141.52C250.56 140.78 251.13 140.15 252.39 140.15C252.934 140.139 253.47 140.289 253.93 140.58L253.7 141.12C253.308 140.871 252.854 140.736 252.39 140.73C251.58 140.73 251.23 141.08 251.23 141.49C251.23 142.66 254.13 141.93 254.13 143.69C254.13 144.42 253.54 145.05 252.27 145.05C251.609 145.068 250.962 144.856 250.44 144.45V144.45Z" fill="#C53F3F"/>
<path d="M260.06 140.21V140.67L258.12 145H257.4L259.29 140.81H257.1V141.67H256.45V140.22L260.06 140.21Z" fill="#C53F3F"/>
<path d="M260.52 142.6C260.52 141.04 261.35 140.15 262.52 140.15C263.69 140.15 264.46 141.04 264.46 142.6C264.46 144.16 263.63 145.05 262.52 145.05C261.41 145.05 260.52 144.16 260.52 142.6ZM263.74 142.6C263.74 141.38 263.22 140.76 262.48 140.76C261.74 140.76 261.2 141.38 261.2 142.6C261.2 143.82 261.72 144.44 262.48 144.44C263.24 144.44 263.74 143.82 263.74 142.6Z" fill="#C53F3F"/>
<path d="M265 141.47C264.979 141.309 264.992 141.146 265.038 140.991C265.085 140.836 265.163 140.692 265.269 140.569C265.375 140.446 265.505 140.347 265.652 140.279C265.798 140.21 265.958 140.173 266.12 140.17C266.78 140.17 267.22 140.69 267.22 141.47C267.22 142.25 266.78 142.78 266.12 142.78C265.958 142.776 265.798 142.737 265.651 142.668C265.504 142.598 265.374 142.498 265.268 142.374C265.163 142.251 265.084 142.106 265.038 141.951C264.992 141.795 264.979 141.631 265 141.47ZM266.79 141.47C266.79 140.9 266.53 140.56 266.12 140.56C265.71 140.56 265.45 140.9 265.45 141.47C265.45 142.04 265.71 142.39 266.12 142.39C266.53 142.39 266.79 142.05 266.79 141.47ZM269 140.21H269.53L266.26 145H265.73L269 140.21ZM268 143.73C268 142.95 268.44 142.42 269.11 142.42C269.422 142.467 269.707 142.625 269.913 142.865C270.118 143.104 270.232 143.409 270.232 143.725C270.232 144.041 270.118 144.346 269.913 144.585C269.707 144.825 269.422 144.983 269.11 145.03C268.949 145.026 268.79 144.988 268.645 144.918C268.499 144.849 268.37 144.75 268.266 144.627C268.161 144.505 268.083 144.361 268.037 144.207C267.992 144.052 267.979 143.89 268 143.73ZM269.77 143.73C269.77 143.16 269.52 142.81 269.11 142.81C268.7 142.81 268.44 143.15 268.44 143.73C268.44 144.31 268.69 144.64 269.11 144.64C269.53 144.64 269.81 144.3 269.81 143.73H269.77Z" fill="#C53F3F"/>
<path d="M115.08 262.89V259.62H112.89L115.08 258.34H113.44L115.63 256.91H117.71V255.26H115.3L117.71 254.3V250.73H115.3V248.4H112.89L115.3 247.59V245.93H113.57L114.98 244.52L116.21 243.29H153.59V244.97H156.06L153.31 246.2V247.59H158.35V250.16H160.58L158.35 251.28V254.16H156.77V255.53H153.59V259.62H155.37L153.91 261.08V262.9L115.08 262.89Z" fill="#C53F3F"/>
<path opacity="0.7" d="M115.08 262.89V259.62H112.89L115.08 258.34H113.44L115.63 256.91H117.71V255.26H115.3L117.71 254.3V250.73H115.3V248.4H112.89L115.3 247.59V245.93H113.57L114.98 244.52L116.21 243.29H153.59V244.97H156.06L153.31 246.2V247.59H158.35V250.16H160.58L158.35 251.28V254.16H156.77V255.53H153.59V259.62H155.37L153.91 261.08V262.9L115.08 262.89Z" fill="white"/>
<path opacity="0.1" d="M115.08 262.89V259.62H112.89L115.08 258.34H113.44L115.63 256.91H117.71V255.26H115.3L117.71 254.3V250.73H115.3V248.4H112.89L115.3 247.59V245.93H113.57L114.98 244.52L116.21 243.29H135.9V244.97H138.37L135.62 246.2V247.59H140.66V250.16H142.89L140.66 251.28V254.16H139.08V255.53H135.9V259.62H137.68L136.22 261.08V262.9L115.08 262.89Z" fill="black"/>
<path opacity="0.1" d="M153.31 247.59H135.62L153.31 246.95V247.59Z" fill="black"/>
<path opacity="0.1" d="M153.59 255.53H135.9L135.82 256.77L153.59 255.53Z" fill="black"/>
<path opacity="0.1" d="M156.77 254.16H139.08L156.77 254.78V254.16Z" fill="black"/>
<path opacity="0.1" d="M153.59 259.62H135.9L153.59 258.96V259.62Z" fill="black"/>
<path opacity="0.1" d="M153.91 261.08H136.22V261.75L153.91 261.08Z" fill="black"/>
<path opacity="0.1" d="M158.35 250.16H140.66L158.35 249.6V250.16Z" fill="black"/>
<path opacity="0.1" d="M153.59 244.97H135.9L153.59 244.35V244.97Z" fill="black"/>
<path opacity="0.1" d="M115.3 245.93H133.24L115.3 246.48V245.93Z" fill="black"/>
<path opacity="0.1" d="M135.62 247.59H115.3L133.72 248.19L135.62 247.59Z" fill="black"/>
<path opacity="0.1" d="M140.66 250.16L115.3 250.73V250.16H140.66Z" fill="black"/>
<path opacity="0.1" d="M140.66 251.28H128.12L140.66 251.9V251.28Z" fill="black"/>
<path opacity="0.1" d="M117.71 254.3L135.9 254.16L117.71 253.75V254.3Z" fill="black"/>
<path opacity="0.1" d="M117.71 255.26H136.22L117.71 255.88V255.26Z" fill="black"/>
<path opacity="0.1" d="M115.08 258.34H135.62V258.96L115.08 258.34Z" fill="black"/>
<path opacity="0.1" d="M115.08 259.62H129.97L115.08 260.03V259.62Z" fill="black"/>
<path d="M219.72 263.52L220.54 260.42H254.29L269.83 261.97L270.42 263.52H219.72Z" fill="#263238"/>
<path opacity="0.4" d="M254.29 260.42V263.52H219.72L220.54 260.42H254.29Z" fill="black"/>
<path d="M147.06 226L154.45 259.5C154.583 260.039 154.89 260.519 155.324 260.864C155.759 261.21 156.295 261.402 156.85 261.41H180.74C180.992 261.404 181.239 261.34 181.462 261.223C181.685 261.105 181.878 260.938 182.025 260.733C182.172 260.529 182.27 260.293 182.311 260.044C182.352 259.796 182.334 259.541 182.26 259.3L174.88 226.06C174.73 225.552 174.409 225.112 173.972 224.813C173.535 224.514 173.008 224.375 172.48 224.42H148.59C147.5 224.45 146.82 224.94 147.06 226Z" fill="#263238"/>
<path opacity="0.4" d="M148.43 226L155.81 259.5C155.943 260.039 156.25 260.519 156.684 260.864C157.119 261.21 157.655 261.402 158.21 261.41H180.74C180.991 261.402 181.237 261.337 181.459 261.219C181.681 261.101 181.873 260.933 182.02 260.729C182.167 260.525 182.265 260.291 182.306 260.043C182.348 259.795 182.332 259.541 182.26 259.3L174.88 226.06C174.73 225.552 174.409 225.112 173.972 224.813C173.535 224.514 173.008 224.375 172.48 224.42H150C148.87 224.45 148.19 224.94 148.43 226Z" fill="white"/>
<path d="M158.41 259.23V262.34C158.41 263.13 159.35 263.46 160.13 263.46H215.41C216.2 263.46 217.16 263.13 217.16 262.34V259.23H158.41Z" fill="#263238"/>
<path opacity="0.2" d="M217.16 259.23V262.34C217.16 263.13 216.22 263.46 215.44 263.46H160.17C159.37 263.46 158.41 263.13 158.41 262.34V259.23H217.16Z" fill="white"/>
<path opacity="0.4" d="M217.16 259.23V262.34C217.16 263.13 216.22 263.46 215.44 263.46H190C189.2 263.46 188.25 263.13 188.25 262.34V259.23H217.16Z" fill="black"/>
<path d="M180.92 256.77L174.21 226.6H149.77L156.42 256.77H180.92Z" fill="#C53F3F"/>
<path d="M247.51 245.56C247.559 245.938 247.526 246.323 247.413 246.687C247.3 247.052 247.11 247.388 246.856 247.672C246.601 247.957 246.289 248.184 245.939 248.337C245.59 248.49 245.212 248.566 244.83 248.56H193.13C192.316 248.544 191.536 248.23 190.939 247.677C190.342 247.124 189.968 246.37 189.89 245.56L186.82 212.46C186.78 212.126 186.8 211.787 186.88 211.46C187.027 210.88 187.365 210.366 187.841 210.003C188.317 209.64 188.902 209.449 189.5 209.46H241.2C242.014 209.476 242.794 209.79 243.391 210.343C243.988 210.896 244.362 211.65 244.44 212.46L247.51 245.56Z" fill="#263238"/>
<path opacity="0.4" d="M244.64 248.53H193.13C192.316 248.514 191.536 248.2 190.939 247.647C190.342 247.094 189.968 246.34 189.89 245.53L186.82 212.43C186.78 212.096 186.8 211.757 186.88 211.43H238.4C239.213 211.45 239.99 211.766 240.586 212.318C241.183 212.87 241.557 213.621 241.64 214.43L244.71 247.53C244.747 247.865 244.723 248.204 244.64 248.53V248.53Z" fill="black"/>
<path d="M209.12 228.23H219.82L216.97 258.85L233.88 261.39V263.52H198.26V261.39L205.56 258.85L209.12 228.23Z" fill="#263238"/>
<path opacity="0.1" d="M219.82 228.23L211.9 263.04L205.56 262.85L209.12 228.23H219.82Z" fill="white"/>
<path d="M184.14 418.24H178.22L167.56 269.97H175.43L184.14 418.24Z" fill="#263238"/>
<path opacity="0.1" d="M184.15 418.24H178.22L168.09 277.33L167.56 270.2H175.43L175.85 277.33L184.15 418.24Z" fill="white"/>
<path opacity="0.2" d="M175.85 276.98H168.09L167.56 270.2H175.43L175.85 276.98Z" fill="black"/>
<path d="M256.67 418.24H250.74L249.78 269.97H257.64L256.67 418.24Z" fill="#263238"/>
<path opacity="0.1" d="M257.64 270.2L257.49 294.13L256.68 418.24H250.74L249.93 294.13L249.78 270.2H257.64Z" fill="white"/>
<path opacity="0.2" d="M257.64 270.2L257.49 294.39H249.93L249.78 270.2H257.64Z" fill="black"/>
<path d="M319.6 418.24H313.68L303.02 269.97H310.89L319.6 418.24Z" fill="#263238"/>
<path opacity="0.1" d="M319.61 418.24H313.68L303.54 277.33L303.02 270.2H310.89L311.31 277.33L319.61 418.24Z" fill="white"/>
<path opacity="0.2" d="M311.31 276.98H303.54L303.02 270.2H310.89L311.31 276.98Z" fill="black"/>
<path d="M116.33 418.24H110.41L119.12 269.97H126.98L116.33 418.24Z" fill="#263238"/>
<path opacity="0.1" d="M126.98 270.2L126.46 277.33L116.33 418.24H110.41L118.69 277.33L119.12 270.2H126.98Z" fill="white"/>
<path opacity="0.2" d="M119.12 270.2H126.98L126.46 276.98H118.69L119.12 270.2Z" fill="black"/>
<path d="M112.89 266.25H317.12V271.51C317.12 272.083 316.892 272.632 316.487 273.037C316.082 273.442 315.533 273.67 314.96 273.67H115C114.427 273.67 113.878 273.442 113.473 273.037C113.068 272.632 112.84 272.083 112.84 271.51V266.25H112.89Z" fill="#C53F3F"/>
<path opacity="0.4" d="M112.89 266.25H317.12V271.51C317.12 272.083 316.892 272.632 316.487 273.037C316.082 273.442 315.533 273.67 314.96 273.67H115C114.427 273.67 113.878 273.442 113.473 273.037C113.068 272.632 112.84 272.083 112.84 271.51V266.25H112.89Z" fill="white"/>
<path opacity="0.2" d="M317.13 266.25H112.89V269.96H317.13V266.25Z" fill="black"/>
<path d="M320.8 267.22H109.21C108.656 267.217 108.126 266.996 107.735 266.605C107.344 266.214 107.123 265.683 107.12 265.13C107.12 264.576 107.34 264.044 107.732 263.652C108.124 263.26 108.656 263.04 109.21 263.04H320.8C321.354 263.04 321.886 263.26 322.278 263.652C322.67 264.044 322.89 264.576 322.89 265.13C322.887 265.683 322.666 266.214 322.275 266.605C321.884 266.996 321.353 267.217 320.8 267.22V267.22Z" fill="#C53F3F"/>
<path opacity="0.4" d="M320.8 267.22H109.21C108.656 267.217 108.126 266.996 107.735 266.605C107.344 266.214 107.123 265.683 107.12 265.13C107.12 264.576 107.34 264.044 107.732 263.652C108.124 263.26 108.656 263.04 109.21 263.04H320.8C321.354 263.04 321.886 263.26 322.278 263.652C322.67 264.044 322.89 264.576 322.89 265.13C322.887 265.683 322.666 266.214 322.275 266.605C321.884 266.996 321.353 267.217 320.8 267.22V267.22Z" fill="white"/>
<path d="M269.62 253.6V254.3L267.21 255.26H269.62V256.91H267.54L265.34 258.34H266.99L264.8 259.62H266.99V262.89L305.82 262.9V261.08L307.28 259.62H305.49V255.53H308.68V254.16H310.26V253.6H269.62Z" fill="#C53F3F"/>
<path opacity="0.9" d="M269.62 253.6V254.3L267.21 255.26H269.62V256.91H267.54L265.34 258.34H266.99L264.8 259.62H266.99V262.89L305.82 262.9V261.08L307.28 259.62H305.49V255.53H308.68V254.16H310.26V253.6H269.62Z" fill="white"/>
<path opacity="0.1" d="M269.62 253.6V254.3L267.21 255.26H269.62V256.91H267.54L265.34 258.34H266.99L264.8 259.62H266.99V262.89L288.13 262.9V261.08L289.59 259.62H287.8V255.53H290.99V254.16H292.57V253.6H269.62Z" fill="black"/>
<path opacity="0.1" d="M305.49 255.53H287.8L287.73 256.77L305.49 255.53Z" fill="black"/>
<path opacity="0.1" d="M308.68 254.16H290.99L308.68 254.78V254.16Z" fill="black"/>
<path opacity="0.1" d="M305.49 259.62H287.8L305.49 258.96V259.62Z" fill="black"/>
<path opacity="0.1" d="M305.82 261.08H288.13V261.75L305.82 261.08Z" fill="black"/>
<path opacity="0.1" d="M269.62 254.3L287.8 254.16L269.62 253.75V254.3Z" fill="black"/>
<path opacity="0.1" d="M269.62 255.26H288.13L269.62 255.88V255.26Z" fill="black"/>
<path opacity="0.1" d="M266.99 258.34H287.53V258.96L266.99 258.34Z" fill="black"/>
<path opacity="0.1" d="M266.99 259.62H281.87L266.99 260.03V259.62Z" fill="black"/>
</svg>
